SplineFontDB: 2.0
FontName: Verachart-Bold
FullName: Verachart Bold
FamilyName: Verachart
Weight: Bold
Copyright: Copyright (c) NECTEC, 2003. All rights reserved.\nModified under GNU General Public License by TLWG.
Version: 0.9.7: 2007-04-13
ItalicAngle: 0
UnderlinePosition: -170
UnderlineWidth: 10
Ascent: 1638
Descent: 410
Order2: 1
NeedsXUIDChange: 1
FSType: 0
OS2Version: 0
OS2_WeightWidthSlopeOnly: 0
OS2_UseTypoMetrics: 0
CreationTime: 1153662462
ModificationTime: 1184254292
PfmFamily: 33
TTFWeight: 700
TTFWidth: 5
LineGap: 0
VLineGap: 0
Panose: 2 11 6 4 2 2 2 2 2 4
OS2TypoAscent: 0
OS2TypoAOffset: 1
OS2TypoDescent: 0
OS2TypoDOffset: 1
OS2TypoLinegap: 0
OS2WinAscent: 0
OS2WinAOffset: 1
OS2WinDescent: 0
OS2WinDOffset: 1
HheadAscent: 0
HheadAOffset: 1
HheadDescent: 0
HheadDOffset: 1
OS2SubXSize: -3428
OS2SubYSize: 26328
OS2SubXOff: 0
OS2SubYOff: 0
OS2SupXSize: 26172
OS2SupYSize: 3
OS2SupXOff: -12668
OS2SupYOff: -12668
OS2StrikeYSize: 21536
OS2StrikeYPos: 90
OS2Vendor: 'PfEd'
Lookup: 6 0 0 "'ccmp' Glyph Composition/Decomposition in Thai lookup 0"  {"'ccmp' Glyph Composition/Decomposition in Thai lookup 0"  } ['ccmp' ('thai' <'KUY ' 'PAL ' 'THA ' 'dflt' > ) ]
Lookup: 6 0 0 "'ccmp' Glyph Composition/Decomposition in Thai lookup 1"  {"'ccmp' Glyph Composition/Decomposition in Thai lookup 1"  } ['ccmp' ('thai' <'KUY ' 'PAL ' 'THA ' 'dflt' > ) ]
Lookup: 4 0 1 "'liga' Standard Ligatures in Latin lookup 2"  {"'liga' Standard Ligatures in Latin lookup 2"  } ['liga' ('latn' <'dflt' > ) ]
Lookup: 4 0 0 "'frac' Diagonal Fractions in Thai lookup 3"  {"'frac' Diagonal Fractions in Thai lookup 3"  } ['frac' ('thai' <'KUY ' 'PAL ' 'THA ' 'dflt' > ) ]
Lookup: 5 0 0 "Required Feature in Thai lookup 4"  {"Required Feature in Thai lookup 4"  } [' RQD' ('thai' <'PAL ' > ) ]
Lookup: 1 0 0 "Single Substitution lookup 5"  {"Single Substitution lookup 5"  } []
Lookup: 2 0 0 "Multiple Substitution lookup 6"  {"Multiple Substitution lookup 6"  } []

StartChar: .notdef
Encoding: 65536 -1 0
Width: 1229
Flags: W
HStem: -362 114<217 1012> 1329 115<217 1012>
VStem: 102 115<-248 1329> 1012 114<-248 1329>
Fore
102 -362 m 1,0,-1
 102 1444 l 1,1,-1
 1126 1444 l 1,2,-1
 1126 -362 l 1,3,-1
 102 -362 l 1,0,-1
217 -248 m 1,4,-1
 1012 -248 l 1,5,-1
 1012 1329 l 1,6,-1
 217 1329 l 1,7,-1
 217 -248 l 1,4,-1
EndSplineSet
EndChar
StartChar: uni0E4D.high
Encoding: 63262 63262 2
Width: 0
Flags: W
TeX: 0 0 0 0
HStem: 1749.5 152<-319.5 -215.5> 2093.5 152<-319.5 -215.5>
VStem: -515.5 152<1945.5 2049.5> -171.5 152<1945.5 2049.5>
AnchorPoint: "AboveMark" -262 1700 mark 0
Fore
-515.5 1997.5 m 128,-1,1
 -515.5 2100.5 -515.5 2100.5 -443 2173 c 128,-1,2
 -370.5 2245.5 -370.5 2245.5 -267.5 2245.5 c 128,-1,3
 -164.5 2245.5 -164.5 2245.5 -92 2173 c 128,-1,4
 -19.5 2100.5 -19.5 2100.5 -19.5 1997.5 c 128,-1,5
 -19.5 1894.5 -19.5 1894.5 -92 1822 c 128,-1,6
 -164.5 1749.5 -164.5 1749.5 -267.5 1749.5 c 128,-1,7
 -370.5 1749.5 -370.5 1749.5 -443 1822 c 128,-1,0
 -515.5 1894.5 -515.5 1894.5 -515.5 1997.5 c 128,-1,1
-363.5 1997.5 m 128,-1,9
 -363.5 1957.5 -363.5 1957.5 -335.5 1929.5 c 128,-1,10
 -307.5 1901.5 -307.5 1901.5 -267.5 1901.5 c 128,-1,11
 -227.5 1901.5 -227.5 1901.5 -199.5 1929.5 c 128,-1,12
 -171.5 1957.5 -171.5 1957.5 -171.5 1997.5 c 128,-1,13
 -171.5 2037.5 -171.5 2037.5 -199.5 2065.5 c 128,-1,14
 -227.5 2093.5 -227.5 2093.5 -267.5 2093.5 c 128,-1,15
 -307.5 2093.5 -307.5 2093.5 -335.5 2065.5 c 128,-1,8
 -363.5 2037.5 -363.5 2037.5 -363.5 1997.5 c 128,-1,9
EndSplineSet
EndChar
StartChar: exclam
Encoding: 33 33 5
Width: 934
Flags: W
HStem: 0 356<287 647>
VStem: 287 360<0 356 869.643 1493>
Fore
287 1493 m 1,0,-1
 647 1493 l 1,1,-1
 647 920 l 1,2,-1
 596 502 l 1,3,-1
 338 502 l 1,4,-1
 287 920 l 1,5,-1
 287 1493 l 1,0,-1
287 356 m 1,6,-1
 647 356 l 1,7,-1
 647 0 l 1,8,-1
 287 0 l 1,9,-1
 287 356 l 1,6,-1
EndSplineSet
EndChar
StartChar: quotedbl
Encoding: 34 34 6
Width: 1067
Flags: W
VStem: 195 237<938 1493> 635 237<938 1493>
Fore
872 1493 m 1,0,-1
 872 938 l 1,1,-1
 635 938 l 1,2,-1
 635 1493 l 1,3,-1
 872 1493 l 1,0,-1
432 1493 m 1,4,-1
 432 938 l 1,5,-1
 195 938 l 1,6,-1
 195 1493 l 1,7,-1
 432 1493 l 1,4,-1
EndSplineSet
EndChar
StartChar: numbersign
Encoding: 35 35 7
Width: 1716
Flags: W
HStem: 0 21G<322 545 809 1030> 383 215<139 418 690 905 1178 1462> 872 213<254 537 815 1024 1300 1577> 1450 20G<688 911 1176 1397>
Fore
911 1470 m 1,0,-1
 815 1085 l 1,1,-1
 1079 1085 l 1,2,-1
 1176 1470 l 1,3,-1
 1397 1470 l 1,4,-1
 1300 1085 l 1,5,-1
 1577 1085 l 1,6,-1
 1577 872 l 1,7,-1
 1247 872 l 1,8,-1
 1178 598 l 1,9,-1
 1462 598 l 1,10,-1
 1462 383 l 1,11,-1
 1126 383 l 1,12,-1
 1030 0 l 1,13,-1
 809 0 l 1,14,-1
 905 383 l 1,15,-1
 641 383 l 1,16,-1
 545 0 l 1,17,-1
 322 0 l 1,18,-1
 418 383 l 1,19,-1
 139 383 l 1,20,-1
 139 598 l 1,21,-1
 467 598 l 1,22,-1
 537 872 l 1,23,-1
 254 872 l 1,24,-1
 254 1085 l 1,25,-1
 592 1085 l 1,26,-1
 688 1470 l 1,27,-1
 911 1470 l 1,0,-1
1024 872 m 1,28,-1
 760 872 l 1,29,-1
 690 598 l 1,30,-1
 954 598 l 1,31,-1
 1024 872 l 1,28,-1
EndSplineSet
EndChar
StartChar: dollar
Encoding: 36 36 8
Width: 1425
Flags: W
HStem: 0 228<475.7 633>
VStem: 633 162<-301 0 232 510 836 1097 1329 1556>
Fore
795 -301 m 1,0,-1
 633 -301 l 1,1,-1
 632 0 l 1,2,3
 507 4.99999 507 4.99999 390 28 c 128,-1,4
 273 51 273 51 162 92 c 1,5,-1
 162 354 l 1,6,7
 277.001 295 277.001 295 394.5 263.5 c 128,-1,8
 512 232 512 232 633 228 c 1,9,-1
 633 539 l 1,10,-1
 600 545 l 2,11,12
 361 587 361 587 260.5 677 c 128,-1,13
 160 767 160 767 160 936 c 0,14,15
 160 1114.99 160 1114.99 282.5 1215.5 c 128,-1,16
 405 1316 405 1316 632 1325 c 1,17,-1
 633 1556 l 1,18,-1
 795 1556 l 1,19,-1
 795 1329 l 1,20,21
 895 1321 895 1321 995 1304 c 128,-1,22
 1095 1287 1095 1287 1196 1260 c 1,23,-1
 1196 1006 l 1,24,25
 1096.01 1047.99 1096.01 1047.99 996 1071.5 c 128,-1,26
 896 1095.01 896 1095.01 795 1100 c 1,27,-1
 795 813 l 1,28,-1
 827 807 l 2,29,30
 1081 767 1081 767 1183.5 673.5 c 128,-1,31
 1285.99 580 1285.99 580 1286 397 c 0,32,33
 1286 213 1286 213 1164 114.5 c 128,-1,34
 1042.01 16 1042.01 16 795 2 c 1,35,-1
 795 -301 l 1,0,-1
633 836 m 1,36,-1
 633 1097 l 1,37,38
 562 1092.99 562 1092.99 519.5 1058.5 c 128,-1,39
 477 1024 477 1024 477 971 c 0,40,41
 477 912 477 912 516 878.5 c 128,-1,42
 555 845 555 845 633 836 c 1,36,-1
795 510 m 1,43,-1
 795 232 l 1,44,45
 882 233.001 882 233.001 925.5 266 c 128,-1,46
 969 299 969 299 969 365 c 0,47,48
 969 433 969 433 929 466.5 c 128,-1,49
 889 500 889 500 795 510 c 1,43,-1
EndSplineSet
EndChar
StartChar: percent
Encoding: 37 37 9
Width: 2052
Flags: W
HStem: -29 170<1493.41 1680.6> 616 168<1494.71 1679.29> 707 167<371.4 558.6> 1352 168<371.4 557.3>
VStem: 66 249<964.493 1262.21> 614 250<964.5 1262.2> 1186 252<229.5 527.2> 1735 252<229.5 527.2>
Fore
1587 616 m 256,0,1
 1516.01 616 1516.01 616 1477 554.5 c 128,-1,2
 1438 493 1438 493 1438 379 c 0,3,4
 1438 264 1438 264 1476.5 202.5 c 128,-1,5
 1515.01 141 1515.01 141 1587 141 c 256,6,7
 1659 141 1659 141 1697 202.5 c 128,-1,8
 1734.99 264 1734.99 264 1735 379 c 0,9,10
 1735 493 1735 493 1696.5 554.5 c 128,-1,11
 1657.99 616 1657.99 616 1587 616 c 256,0,1
1587 784 m 256,12,13
 1773 784 1773 784 1880 676 c 128,-1,14
 1986.99 568 1986.99 568 1987 379 c 256,15,16
 1987 190 1987 190 1880 80.5 c 128,-1,17
 1773.01 -29 1773.01 -29 1587 -29 c 256,18,19
 1401 -29 1401 -29 1293.5 80.5 c 128,-1,20
 1185.99 190 1185.99 190 1186 379 c 0,21,22
 1186 567 1186 567 1293.5 675.5 c 128,-1,23
 1401.01 784 1401.01 784 1587 784 c 256,12,13
670 -29 m 1,24,-1
 449 -29 l 1,25,-1
 1382 1520 l 1,26,-1
 1604 1520 l 1,27,-1
 670 -29 l 1,24,-1
465 1520 m 256,28,29
 651 1520 651 1520 757.5 1411.5 c 128,-1,30
 864 1303.01 864 1303.01 864 1114 c 256,31,32
 864 925 864 925 757.5 816 c 128,-1,33
 651 707 651 707 465 707 c 256,34,35
 279 707 279 707 172.5 816 c 128,-1,36
 66 925 66 925 66 1114 c 256,37,38
 66 1303 66 1303 172.5 1411.5 c 128,-1,39
 279 1519.99 279 1519.99 465 1520 c 256,28,29
465 1352 m 0,40,41
 393 1352 393 1352 354 1290 c 128,-1,42
 315 1228.01 315 1228.01 315 1114 c 0,43,44
 315 998.995 315 998.995 354 936.5 c 128,-1,45
 393 874 393 874 465 874 c 256,46,47
 537 874 537 874 575.5 936.5 c 128,-1,48
 614 999 614 999 614 1114 c 0,49,50
 614 1228 614 1228 575 1290 c 128,-1,51
 536 1351.99 536 1351.99 465 1352 c 0,40,41
EndSplineSet
EndChar
StartChar: ampersand
Encoding: 38 38 10
Width: 1786
Flags: W
HStem: -29 258<603.3 849.766> 1278 242<763.9 966.573>
VStem: 123 346<356.5 598.3>
Fore
799 991 m 2,0,-1
 1208 541 l 1,1,2
 1260.99 611 1260.99 611 1288.5 698 c 128,-1,3
 1315.99 785 1315.99 785 1321 895 c 1,4,-1
 1632 895 l 1,5,6
 1617 713 1617 713 1561.5 571 c 128,-1,7
 1506 429 1506 429 1407 322 c 1,8,-1
 1700 0 l 1,9,-1
 1276 0 l 1,10,-1
 1178 109 l 1,11,12
 1073 39 1073 39 957 5 c 128,-1,13
 841 -29 841 -29 711 -29 c 0,14,15
 448 -29 448 -29 285.5 109.5 c 128,-1,16
 123.001 247.999 123.001 247.999 123 467 c 0,17,18
 123 613 123 613 194.5 725.5 c 128,-1,19
 266.001 838 266.001 838 428 944 c 1,20,21
 386 997 386 997 366 1050 c 128,-1,22
 346 1102.99 346 1102.99 346 1161 c 0,23,24
 346 1324.01 346 1324.01 473 1422 c 128,-1,25
 600 1519.99 600 1519.99 811 1520 c 0,26,27
 902 1520 902 1520 1000.5 1505.5 c 128,-1,28
 1099.01 1490.99 1099.01 1490.99 1206 1462 c 1,29,-1
 1206 1184 l 1,30,31
 1112 1232 1112 1232 1028 1255 c 128,-1,32
 944 1277.99 944 1277.99 864 1278 c 0,33,34
 787 1278 787 1278 744.5 1248.5 c 128,-1,35
 702 1218.99 702 1218.99 702 1165 c 0,36,37
 702 1131 702 1131 726.5 1087.5 c 128,-1,38
 751.006 1043.99 751.006 1043.99 799 991 c 2,0,-1
600 743 m 1,39,40
 535 696 535 696 502 636.5 c 128,-1,41
 469 577 469 577 469 506 c 0,42,43
 469 391 469 391 554 310 c 128,-1,44
 639 229 639 229 758 229 c 0,45,46
 825 229 825 229 883 249.5 c 128,-1,47
 941 270 941 270 991 311 c 1,48,-1
 600 743 l 1,39,40
EndSplineSet
EndChar
StartChar: quotesingle
Encoding: 39 39 11
Width: 627
Flags: W
VStem: 195 237<938 1493>
Fore
432 1493 m 1,0,-1
 432 938 l 1,1,-1
 195 938 l 1,2,-1
 195 1493 l 1,3,-1
 432 1493 l 1,0,-1
EndSplineSet
EndChar
StartChar: parenleft
Encoding: 40 40 12
Width: 936
Flags: W
VStem: 176 340<356.3 925.7>
Fore
772 -270 m 1,0,-1
 475 -270 l 1,1,2
 322 -22.9995 322 -22.9995 249 199.5 c 128,-1,3
 175.999 422 175.999 422 176 641 c 256,4,5
 176 860 176 860 249.5 1084.5 c 128,-1,6
 323 1309.01 323 1309.01 475 1554 c 1,7,-1
 772 1554 l 1,8,9
 644 1317 644 1317 580 1090.5 c 128,-1,10
 516 864 516 864 516 643 c 256,11,12
 516 422 516 422 579.5 195 c 128,-1,13
 643 -32 643 -32 772 -270 c 1,0,-1
EndSplineSet
EndChar
StartChar: parenright
Encoding: 41 41 13
Width: 936
Flags: W
VStem: 420 340<356.3 925.7>
Fore
164 -270 m 1,0,1
 291.999 -31.9995 291.999 -31.9995 356 195 c 128,-1,2
 420 422 420 422 420 643 c 256,3,4
 420 864 420 864 356 1090.5 c 128,-1,5
 292 1317 292 1317 164 1554 c 1,6,-1
 461 1554 l 1,7,8
 613 1309.01 613 1309.01 686.5 1084.5 c 128,-1,9
 760 860 760 860 760 641 c 256,10,11
 760 422 760 422 687 199.5 c 128,-1,12
 614 -23 614 -23 461 -270 c 1,13,-1
 164 -270 l 1,0,1
EndSplineSet
EndChar
StartChar: asterisk
Encoding: 42 42 14
Width: 1071
Flags: W
VStem: 451 170<569 913 1176 1520>
Fore
1030 1217 m 1,0,-1
 700 1044 l 1,1,-1
 1030 870 l 1,2,-1
 954 729 l 1,3,-1
 621 913 l 1,4,-1
 621 569 l 1,5,-1
 451 569 l 1,6,-1
 451 913 l 1,7,-1
 117 729 l 1,8,-1
 41 870 l 1,9,-1
 375 1044 l 1,10,-1
 41 1217 l 1,11,-1
 117 1358 l 1,12,-1
 451 1176 l 1,13,-1
 451 1520 l 1,14,-1
 621 1520 l 1,15,-1
 621 1176 l 1,16,-1
 954 1358 l 1,17,-1
 1030 1217 l 1,0,-1
EndSplineSet
EndChar
StartChar: plus
Encoding: 43 43 15
Width: 1716
Flags: W
HStem: 0 21G<739 977> 524 236<217 739 977 1499>
VStem: 739 238<0 524 760 1284>
Fore
977 1284 m 1,0,-1
 977 760 l 1,1,-1
 1499 760 l 1,2,-1
 1499 524 l 1,3,-1
 977 524 l 1,4,-1
 977 0 l 1,5,-1
 739 0 l 1,6,-1
 739 524 l 1,7,-1
 217 524 l 1,8,-1
 217 760 l 1,9,-1
 739 760 l 1,10,-1
 739 1284 l 1,11,-1
 977 1284 l 1,0,-1
EndSplineSet
EndChar
StartChar: comma
Encoding: 44 44 16
Width: 778
Flags: W
VStem: 209 360<82 387>
Fore
209 387 m 1,0,-1
 569 387 l 1,1,-1
 569 82 l 1,2,-1
 322 -291 l 1,3,-1
 109 -291 l 1,4,-1
 209 82 l 1,5,-1
 209 387 l 1,0,-1
EndSplineSet
EndChar
StartChar: hyphen
Encoding: 45 45 17
Width: 850
Flags: W
HStem: 444 291<111 739>
Fore
111 735 m 1,0,-1
 739 735 l 1,1,-1
 739 444 l 1,2,-1
 111 444 l 1,3,-1
 111 735 l 1,0,-1
EndSplineSet
EndChar
StartChar: period
Encoding: 46 46 18
Width: 778
Flags: W
HStem: 0 387<209 569>
VStem: 209 360<0 387>
Fore
209 387 m 1,0,-1
 569 387 l 1,1,-1
 569 0 l 1,2,-1
 209 0 l 1,3,-1
 209 387 l 1,0,-1
EndSplineSet
EndChar
StartChar: slash
Encoding: 47 47 19
Width: 748
Flags: W
VStem: 0 748<-190 1493>
Fore
526 1493 m 1,0,-1
 748 1493 l 1,1,-1
 221 -190 l 1,2,-1
 0 -190 l 1,3,-1
 526 1493 l 1,0,-1
EndSplineSet
EndChar
StartChar: zero
Encoding: 48 48 20
Width: 1425
Flags: W
HStem: -29 262<551.8 872.9> 1257 263<551.8 874.2>
VStem: 98 385<380.1 1112.01> 942 385<380.1 1112>
Fore
942 748 m 0,0,1
 942 1028 942 1028 889.5 1142.5 c 128,-1,2
 837 1256.99 837 1256.99 713 1257 c 256,3,4
 589 1257 589 1257 536 1142.5 c 128,-1,5
 483 1028.01 483 1028.01 483 748 c 0,6,7
 483 465 483 465 536 349 c 128,-1,8
 589 233 589 233 713 233 c 0,9,10
 836 233 836 233 889 349 c 128,-1,11
 942 465 942 465 942 748 c 0,0,1
1327 745 m 0,12,13
 1327 374 1327 374 1167 172.5 c 128,-1,14
 1006.99 -29 1006.99 -29 713 -29 c 0,15,16
 418 -29 418 -29 258 172.5 c 128,-1,17
 97.9995 374 97.9995 374 98 745 c 0,18,19
 98 1117 98 1117 258 1318.5 c 128,-1,20
 418 1519.99 418 1519.99 713 1520 c 0,21,22
 1007 1520 1007 1520 1167 1318.5 c 128,-1,23
 1327.01 1117.01 1327.01 1117.01 1327 745 c 0,12,13
EndSplineSet
EndChar
StartChar: one
Encoding: 49 49 21
Width: 1425
Flags: W
HStem: 0 266<240 580 944 1284>
VStem: 580 364<266 1231>
Fore
240 266 m 1,0,-1
 580 266 l 1,1,-1
 580 1231 l 1,2,-1
 231 1159 l 1,3,-1
 231 1421 l 1,4,-1
 578 1493 l 1,5,-1
 944 1493 l 1,6,-1
 944 266 l 1,7,-1
 1284 266 l 1,8,-1
 1284 0 l 1,9,-1
 240 0 l 1,10,-1
 240 266 l 1,0,-1
EndSplineSet
EndChar
StartChar: two
Encoding: 50 50 22
Width: 1425
Flags: W
HStem: 0 283<590 1247> 1257 263<506.716 744.1>
Fore
590 283 m 1,0,-1
 1247 283 l 1,1,-1
 1247 0 l 1,2,-1
 162 0 l 1,3,-1
 162 283 l 1,4,-1
 707 764 l 2,5,6
 780 830 780 830 815 893 c 128,-1,7
 850 956 850 956 850 1024 c 0,8,9
 850 1129 850 1129 779.5 1193 c 128,-1,10
 709 1257.01 709 1257.01 592 1257 c 0,11,12
 502 1257 502 1257 395 1218.5 c 128,-1,13
 288 1179.99 288 1179.99 166 1104 c 1,14,-1
 166 1432 l 1,15,16
 296.001 1475.01 296.001 1475.01 423 1497.5 c 128,-1,17
 550 1520 550 1520 672 1520 c 0,18,19
 940 1520 940 1520 1088.5 1402 c 128,-1,20
 1237 1283.99 1237 1283.99 1237 1073 c 0,21,22
 1237 951 1237 951 1174 845.5 c 128,-1,23
 1111 740 1111 740 909 563 c 2,24,-1
 590 283 l 1,0,-1
EndSplineSet
EndChar
StartChar: three
Encoding: 51 51 23
Width: 1425
Flags: W
HStem: -29 262<427.607 759.9> 645 248<393 743.5> 1257 263<473.957 741.8>
VStem: 877 385<309.3 570.6>
Fore
954 805 m 1,0,1
 1105.01 766 1105.01 766 1183.5 669.5 c 128,-1,2
 1261.99 573 1261.99 573 1262 424 c 0,3,4
 1262 202 1262 202 1092 86.5 c 128,-1,5
 922 -29 922 -29 596 -29 c 0,6,7
 481 -29 481 -29 365.5 -10.5 c 128,-1,8
 250 7.99999 250 7.99999 137 45 c 1,9,-1
 137 342 l 1,10,11
 245 288 245 288 351.5 260.5 c 128,-1,12
 458 233.001 458 233.001 561 233 c 0,13,14
 714 233 714 233 795.5 286 c 128,-1,15
 877 339 877 339 877 438 c 0,16,17
 877 540 877 540 793.5 592.5 c 128,-1,18
 710 645 710 645 547 645 c 2,19,-1
 393 645 l 1,20,-1
 393 893 l 1,21,-1
 555 893 l 2,22,23
 700 893 700 893 771 938.5 c 128,-1,24
 842 984 842 984 842 1077 c 0,25,26
 842 1162.99 842 1162.99 773 1210 c 128,-1,27
 704 1256.99 704 1256.99 578 1257 c 0,28,29
 485 1257 485 1257 390 1236 c 128,-1,30
 295 1215 295 1215 201 1174 c 1,31,-1
 201 1456 l 1,32,33
 315 1487.99 315 1487.99 427 1504 c 128,-1,34
 539 1520.01 539 1520.01 647 1520 c 0,35,36
 938 1520 938 1520 1082.5 1424.5 c 128,-1,37
 1226.99 1328.99 1226.99 1328.99 1227 1137 c 0,38,39
 1227 1006.01 1227 1006.01 1158 922.5 c 128,-1,40
 1089 839 1089 839 954 805 c 1,0,1
EndSplineSet
EndChar
StartChar: four
Encoding: 52 52 24
Width: 1425
Flags: W
HStem: 0 21G<754 1118> 272 279<332 754 1118 1331>
VStem: 754 364<0 272 551 1176>
Fore
754 1176 m 1,0,-1
 332 551 l 1,1,-1
 754 551 l 1,2,-1
 754 1176 l 1,0,-1
690 1493 m 1,3,-1
 1118 1493 l 1,4,-1
 1118 551 l 1,5,-1
 1331 551 l 1,6,-1
 1331 272 l 1,7,-1
 1118 272 l 1,8,-1
 1118 0 l 1,9,-1
 754 0 l 1,10,-1
 754 272 l 1,11,-1
 92 272 l 1,12,-1
 92 602 l 1,13,-1
 690 1493 l 1,3,-1
EndSplineSet
EndChar
StartChar: five
Encoding: 53 53 25
Width: 1425
Flags: W
HStem: -29 262<491.9 778> 741 263<588.373 778> 1210 283<524 1174>
VStem: 217 307<979 1210> 897 385<334.9 640.4>
Fore
217 1493 m 1,0,-1
 1174 1493 l 1,1,-1
 1174 1210 l 1,2,-1
 524 1210 l 1,3,-1
 524 979 l 1,4,5
 568 991 568 991 612.5 997.5 c 128,-1,6
 657.035 1004 657.035 1004 705 1004 c 0,7,8
 978 1004 978 1004 1130 867.5 c 128,-1,9
 1281.99 731 1281.99 731 1282 487 c 0,10,11
 1282 245 1282 245 1116.5 108 c 128,-1,12
 951.005 -29 951.005 -29 657 -29 c 0,13,14
 530 -29 530 -29 405.5 -4.5 c 128,-1,15
 281 20 281 20 158 70 c 1,16,-1
 158 373 l 1,17,18
 279.999 303 279.999 303 389.5 268 c 128,-1,19
 499 233.001 499 233.001 596 233 c 0,20,21
 736 233 736 233 816.5 301.5 c 128,-1,22
 897 370 897 370 897 487 c 0,23,24
 897 605 897 605 816.5 673 c 128,-1,25
 736 741 736 741 596 741 c 0,26,27
 513 741 513 741 419 719.5 c 128,-1,28
 325 698 325 698 217 653 c 1,29,-1
 217 1493 l 1,0,-1
EndSplineSet
EndChar
StartChar: six
Encoding: 54 54 26
Width: 1425
Flags: W
HStem: -29 242<609.7 873.6> 737 248<686.7 873.6> 1266 252<650.4 985.294>
VStem: 127 412<304.7 725> 944 371<304.7 645.3>
Fore
741 737 m 0,0,1
 640 737 640 737 589.5 671.5 c 128,-1,2
 539 606 539 606 539 475 c 256,3,4
 539 344 539 344 589.5 278.5 c 128,-1,5
 640 212.999 640 212.999 741 213 c 0,6,7
 843 213 843 213 893.5 278.5 c 128,-1,8
 944 344 944 344 944 475 c 256,9,10
 944 606 944 606 893.5 671.5 c 128,-1,11
 843 737 843 737 741 737 c 0,0,1
1217 1454 m 1,12,-1
 1217 1178 l 1,13,14
 1122.01 1223 1122.01 1223 1038 1244.5 c 128,-1,15
 954 1265.99 954 1265.99 874 1266 c 0,16,17
 702 1266 702 1266 606 1170.5 c 128,-1,18
 510 1074.99 510 1074.99 494 887 c 1,19,20
 560 936 560 936 637 960.5 c 128,-1,21
 714 985 714 985 805 985 c 0,22,23
 1034 985 1034 985 1174.5 851 c 128,-1,24
 1315.01 717 1315.01 717 1315 500 c 0,25,26
 1315 260 1315 260 1158 115.5 c 128,-1,27
 1000.99 -29 1000.99 -29 737 -29 c 0,28,29
 446 -29 446 -29 286.5 167.5 c 128,-1,30
 127.001 364 127.001 364 127 725 c 0,31,32
 127 1095 127 1095 313.5 1306.5 c 128,-1,33
 500 1518 500 1518 825 1518 c 0,34,35
 928 1518 928 1518 1025 1502 c 128,-1,36
 1122.01 1485.99 1122.01 1485.99 1217 1454 c 1,12,-1
EndSplineSet
EndChar
StartChar: seven
Encoding: 55 55 27
Width: 1425
Flags: W
HStem: 0 21G<305 680> 1210 283<137 856>
Fore
137 1493 m 1,0,-1
 1262 1493 l 1,1,-1
 1262 1276 l 1,2,-1
 680 0 l 1,3,-1
 305 0 l 1,4,-1
 856 1210 l 1,5,-1
 137 1210 l 1,6,-1
 137 1493 l 1,0,-1
EndSplineSet
EndChar
StartChar: eight
Encoding: 56 56 28
Width: 1425
Flags: W
HStem: -29 242<572.6 852.1> 668 241<593.4 830> 1278 242<593.4 830>
VStem: 125 364<297 583> 934 364<297 584.3>
Fore
713 668 m 0,0,1
 605 668 605 668 547 609 c 128,-1,2
 489 550 489 550 489 440 c 256,3,4
 489 330 489 330 547 271.5 c 128,-1,5
 605 213 605 213 713 213 c 0,6,7
 820 213 820 213 877 271.5 c 128,-1,8
 934 330 934 330 934 440 c 0,9,10
 934 551 934 551 877 609.5 c 128,-1,11
 820 668 820 668 713 668 c 0,0,1
432 795 m 1,12,13
 296 836 296 836 227 921 c 128,-1,14
 158 1006 158 1006 158 1133 c 0,15,16
 158 1322 158 1322 299 1421 c 128,-1,17
 440 1520 440 1520 713 1520 c 0,18,19
 984 1520 984 1520 1125 1421.5 c 128,-1,20
 1266 1322.99 1266 1322.99 1266 1133 c 0,21,22
 1266 1005.99 1266 1005.99 1196.5 921 c 128,-1,23
 1127.01 836 1127.01 836 991 795 c 1,24,25
 1142.99 753 1142.99 753 1220.5 658.5 c 128,-1,26
 1298.01 564 1298.01 564 1298 420 c 0,27,28
 1298 198 1298 198 1150.5 84.5 c 128,-1,29
 1003.01 -29 1003.01 -29 713 -29 c 0,30,31
 422 -29 422 -29 273.5 84.5 c 128,-1,32
 125 198.001 125 198.001 125 420 c 0,33,34
 125 564 125 564 202.5 658.5 c 128,-1,35
 280.001 753 280.001 753 432 795 c 1,12,13
522 1094 m 0,36,37
 522 1005.01 522 1005.01 571.5 957 c 128,-1,38
 621 909 621 909 713 909 c 0,39,40
 803 909 803 909 852 957 c 128,-1,41
 901 1005 901 1005 901 1094 c 256,42,43
 901 1182.99 901 1182.99 852 1230.5 c 128,-1,44
 803 1278.01 803 1278.01 713 1278 c 0,45,46
 621 1278 621 1278 571.5 1230 c 128,-1,47
 522 1182 522 1182 522 1094 c 0,36,37
EndSplineSet
EndChar
StartChar: nine
Encoding: 57 57 29
Width: 1425
Flags: W
HStem: -29 252<433.004 770.6> 502 250<548.7 733> 1276 242<548.7 811.3>
VStem: 106 371<843.7 1183> 883 411<764 1183.01>
Fore
205 33 m 1,0,-1
 205 309 l 1,1,2
 297 266 297 266 381 244.5 c 128,-1,3
 465 223.001 465 223.001 547 223 c 0,4,5
 719 223 719 223 815 318.5 c 128,-1,6
 911 414 911 414 928 602 c 1,7,8
 860 552 860 552 783 527 c 128,-1,9
 706 502 706 502 616 502 c 0,10,11
 387 502 387 502 246.5 635.5 c 128,-1,12
 105.999 769 105.999 769 106 987 c 0,13,14
 106 1228.01 106 1228.01 262.5 1373 c 128,-1,15
 419 1518.01 419 1518.01 682 1518 c 0,16,17
 974 1518 974 1518 1134 1321 c 128,-1,18
 1294.01 1124.01 1294.01 1124.01 1294 764 c 0,19,20
 1294 394 1294 394 1107 182.5 c 128,-1,21
 920 -29 920 -29 594 -29 c 0,22,23
 489 -29 489 -29 393 -13.5 c 128,-1,24
 297 2 297 2 205 33 c 1,0,-1
680 752 m 256,25,26
 781 752 781 752 832 817.5 c 128,-1,27
 883 883 883 883 883 1014 c 0,28,29
 883 1144.01 883 1144.01 832 1210 c 128,-1,30
 781 1276 781 1276 680 1276 c 256,31,32
 579 1276 579 1276 528 1210 c 128,-1,33
 477 1144 477 1144 477 1014 c 0,34,35
 477 883 477 883 528 817.5 c 128,-1,36
 579 752 579 752 680 752 c 256,25,26
EndSplineSet
EndChar
StartChar: colon
Encoding: 58 58 30
Width: 819
Flags: W
HStem: 0 387<229 590> 733 387<229 590>
VStem: 229 361<0 387 733 1120>
Fore
229 1120 m 1,0,-1
 590 1120 l 1,1,-1
 590 733 l 1,2,-1
 229 733 l 1,3,-1
 229 1120 l 1,0,-1
229 387 m 1,4,-1
 590 387 l 1,5,-1
 590 0 l 1,6,-1
 229 0 l 1,7,-1
 229 387 l 1,4,-1
EndSplineSet
EndChar
StartChar: semicolon
Encoding: 59 59 31
Width: 819
Flags: W
HStem: 733 387<229 590>
VStem: 229 361<82 387 733 1120>
Fore
229 387 m 1,0,-1
 590 387 l 1,1,-1
 590 82 l 1,2,-1
 342 -291 l 1,3,-1
 129 -291 l 1,4,-1
 229 82 l 1,5,-1
 229 387 l 1,0,-1
229 1120 m 1,6,-1
 590 1120 l 1,7,-1
 590 733 l 1,8,-1
 229 733 l 1,9,-1
 229 1120 l 1,6,-1
EndSplineSet
EndChar
StartChar: less
Encoding: 60 60 32
Width: 1716
Flags: W
Fore
1499 973 m 1,0,-1
 535 641 l 1,1,-1
 1499 311 l 1,2,-1
 1499 61 l 1,3,-1
 217 524 l 1,4,-1
 217 760 l 1,5,-1
 1499 1223 l 1,6,-1
 1499 973 l 1,0,-1
EndSplineSet
EndChar
StartChar: equal
Encoding: 61 61 33
Width: 1716
Flags: W
HStem: 295 237<217 1499> 752 235<217 1499>
Fore
217 987 m 1,0,-1
 1499 987 l 1,1,-1
 1499 752 l 1,2,-1
 217 752 l 1,3,-1
 217 987 l 1,0,-1
217 532 m 1,4,-1
 1499 532 l 1,5,-1
 1499 295 l 1,6,-1
 217 295 l 1,7,-1
 217 532 l 1,4,-1
EndSplineSet
EndChar
StartChar: greater
Encoding: 62 62 34
Width: 1716
Flags: W
Fore
217 973 m 1,0,-1
 217 1223 l 1,1,-1
 1499 760 l 1,2,-1
 1499 524 l 1,3,-1
 217 61 l 1,4,-1
 217 311 l 1,5,-1
 1182 641 l 1,6,-1
 217 973 l 1,0,-1
EndSplineSet
EndChar
StartChar: question
Encoding: 63 63 35
Width: 1188
Flags: W
HStem: 0 356<348 709> 1257 263<420.044 623.8>
VStem: 348 361<0 356 504 594.696>
Fore
709 504 m 1,0,-1
 348 504 l 1,1,-1
 348 553 l 2,2,3
 348 635 348 635 381 698.5 c 128,-1,4
 414 762 414 762 520 860 c 2,5,-1
 584 918 l 2,6,7
 641 970 641 970 667.5 1016 c 128,-1,8
 694 1062 694 1062 694 1108 c 0,9,10
 694 1178.01 694 1178.01 646 1217.5 c 128,-1,11
 598 1256.99 598 1256.99 512 1257 c 0,12,13
 431 1257 431 1257 337 1223.5 c 128,-1,14
 243 1190.01 243 1190.01 141 1124 c 1,15,-1
 141 1438 l 1,16,17
 262.001 1480 262.001 1480 362 1500 c 128,-1,18
 462 1519.99 462 1519.99 555 1520 c 0,19,20
 799 1520 799 1520 927 1420.5 c 128,-1,21
 1054.99 1321.01 1054.99 1321.01 1055 1130 c 0,22,23
 1055 1032.01 1055 1032.01 1016 954.5 c 128,-1,24
 977 877 977 877 883 788 c 2,25,-1
 819 731 l 2,26,27
 751 669 751 669 730 631.5 c 128,-1,28
 709 594 709 594 709 549 c 2,29,-1
 709 504 l 1,0,-1
348 356 m 1,30,-1
 709 356 l 1,31,-1
 709 0 l 1,32,-1
 348 0 l 1,33,-1
 348 356 l 1,30,-1
EndSplineSet
EndChar
StartChar: at
Encoding: 64 64 36
Width: 2048
Flags: W
HStem: -356 188<844.9 1199.8> 88 186<909 1104.71> 801 186<909.6 1104.69> 1253 187<902.2 1268.8>
VStem: 135 187<349.3 778.3> 602 229<379.1 696.3> 1221 229<380.4 696.3> 1241 209<836 967> 1716 187<446.9 781>
Fore
831 539 m 0,0,1
 831 416 831 416 883.5 345 c 128,-1,2
 936 274 936 274 1026 274 c 0,3,4
 1114.99 274 1114.99 274 1168 345.5 c 128,-1,5
 1220.99 417 1220.99 417 1221 539 c 0,6,7
 1221 660 1221 660 1167.5 730.5 c 128,-1,8
 1113.99 801 1113.99 801 1024 801 c 0,9,10
 936 801 936 801 883.5 730.5 c 128,-1,11
 831 660 831 660 831 539 c 0,0,1
1241 238 m 1,12,13
 1211 167.001 1211 167.001 1144.5 127.5 c 128,-1,14
 1078.01 88.0005 1078.01 88.0005 989 88 c 0,15,16
 817 88 817 88 709.5 212.5 c 128,-1,17
 602 337 602 337 602 537 c 256,18,19
 602 737 602 737 710 862 c 128,-1,20
 818 987 818 987 989 987 c 0,21,22
 1077.99 987 1077.99 987 1144.5 947 c 128,-1,23
 1210.99 907 1210.99 907 1241 836 c 1,24,-1
 1241 967 l 1,25,-1
 1450 967 l 1,26,-1
 1450 274 l 1,27,28
 1574.01 293 1574.01 293 1645 393.5 c 128,-1,29
 1715.99 494 1715.99 494 1716 651 c 0,30,31
 1716 751 1716 751 1687 838.5 c 128,-1,32
 1658.01 926 1658.01 926 1599 999 c 0,33,34
 1504.01 1120.99 1504.01 1120.99 1361.5 1187 c 128,-1,35
 1219 1253 1219 1253 1053 1253 c 0,36,37
 937 1253 937 1253 831 1222.5 c 128,-1,38
 725 1192.01 725 1192.01 635 1133 c 0,39,40
 487 1035.01 487 1035.01 404.5 879.5 c 128,-1,41
 322 724 322 724 322 543 c 0,42,43
 322 394 322 394 375.5 263.5 c 128,-1,44
 429 133 429 133 530 33 c 0,45,46
 630 -65 630 -65 759.5 -116.5 c 128,-1,47
 889 -167.999 889 -167.999 1036 -168 c 0,48,49
 1162 -168 1162 -168 1288 -121 c 128,-1,50
 1414 -74.0001 1414 -74.0001 1503 6 c 1,51,-1
 1610 -156 l 1,52,53
 1485.01 -253.001 1485.01 -253.001 1337.5 -304.5 c 128,-1,54
 1190 -356 1190 -356 1038 -356 c 0,55,56
 853 -356 853 -356 689 -290.5 c 128,-1,57
 525 -224.999 525 -224.999 397 -100 c 256,58,59
 269 24.9999 269 24.9999 202 189.5 c 128,-1,60
 134.999 354 134.999 354 135 543 c 0,61,62
 135 725 135 725 203 890 c 128,-1,63
 270.999 1055 270.999 1055 397 1180 c 0,64,65
 523 1304.01 523 1304.01 690.5 1372 c 128,-1,66
 858 1439.99 858 1439.99 1038 1440 c 0,67,68
 1261.99 1440 1261.99 1440 1445 1354.5 c 128,-1,69
 1628 1269 1628 1269 1751 1108 c 0,70,71
 1826 1010.01 1826 1010.01 1864.5 895.5 c 128,-1,72
 1903.01 781 1903.01 781 1903 655 c 0,73,74
 1903 384 1903 384 1740 234 c 128,-1,75
 1576.99 84 1576.99 84 1280 84 c 2,76,-1
 1241 84 l 1,77,-1
 1241 238 l 1,12,13
EndSplineSet
EndChar
StartChar: A
Encoding: 65 65 37
Width: 1585
Flags: W
HStem: 0 21G<10 397 1188 1575> 272 277<588 997>
Fore
1094 272 m 1,0,-1
 492 272 l 1,1,-1
 397 0 l 1,2,-1
 10 0 l 1,3,-1
 563 1493 l 1,4,-1
 1022 1493 l 1,5,-1
 1575 0 l 1,6,-1
 1188 0 l 1,7,-1
 1094 272 l 1,0,-1
588 549 m 1,8,-1
 997 549 l 1,9,-1
 793 1143 l 1,10,-1
 588 549 l 1,8,-1
EndSplineSet
EndChar
StartChar: B
Encoding: 66 66 38
Width: 1561
Flags: W
HStem: 0 262<573 949.8> 653 262<573 904.3> 1231 262<573 904.3>
VStem: 188 385<262 653 915 1231>
Fore
786 915 m 6,0,1
 877 915 877 915 924 955 c 128,-1,2
 971 995 971 995 971 1073 c 0,3,4
 971 1149.99 971 1149.99 924 1190.5 c 128,-1,5
 877 1231 877 1231 786 1231 c 2,6,-1
 573 1231 l 1,7,-1
 573 915 l 1,8,-1
 786 915 l 6,0,1
799 262 m 6,9,10
 915 262 915 262 973.5 311 c 128,-1,11
 1032 360 1032 360 1032 459 c 0,12,13
 1032 556 1032 556 974 604.5 c 128,-1,14
 916 653 916 653 799 653 c 2,15,-1
 573 653 l 1,16,-1
 573 262 l 1,17,-1
 799 262 l 6,9,10
1157 799 m 5,18,19
 1281.01 763 1281.01 763 1349 666 c 128,-1,20
 1416.99 569 1416.99 569 1417 428 c 0,21,22
 1417 212 1417 212 1271 106 c 128,-1,23
 1125.01 -4.57764e-05 1125.01 -4.57764e-05 827 0 c 2,24,-1
 188 0 l 1,25,-1
 188 1493 l 1,26,-1
 766 1493 l 2,27,28
 1077 1493 1077 1493 1216.5 1399 c 128,-1,29
 1356 1304.99 1356 1304.99 1356 1098 c 0,30,31
 1356 988.995 1356 988.995 1305 912.5 c 128,-1,32
 1254 836 1254 836 1157 799 c 5,18,19
EndSplineSet
EndChar
StartChar: C
Encoding: 67 67 39
Width: 1503
Flags: W
HStem: -29 279<674.2 1073.49> 1241 279<674.2 1073.5>
VStem: 102 398<444.7 1046.6>
Fore
1372 82 m 1,0,1
 1266 27 1266 27 1151 -1 c 128,-1,2
 1035.99 -29 1035.99 -29 911 -29 c 0,3,4
 538 -29 538 -29 320 179.5 c 128,-1,5
 102.001 388 102.001 388 102 745 c 0,6,7
 102 1103 102 1103 320 1311.5 c 128,-1,8
 538 1520 538 1520 911 1520 c 0,9,10
 1036 1520 1036 1520 1151 1492 c 128,-1,11
 1266 1464 1266 1464 1372 1409 c 1,12,-1
 1372 1100 l 1,13,14
 1265 1173 1265 1173 1161 1207 c 128,-1,15
 1057.01 1241.01 1057.01 1241.01 942 1241 c 0,16,17
 736 1241 736 1241 618 1109 c 128,-1,18
 500 977 500 977 500 745 c 0,19,20
 500 514 500 514 618 382 c 128,-1,21
 736 250 736 250 942 250 c 0,22,23
 1057.01 250 1057.01 250 1161 284 c 128,-1,24
 1265 318 1265 318 1372 391 c 1,25,-1
 1372 82 l 1,0,1
EndSplineSet
EndChar
StartChar: D
Encoding: 68 68 40
Width: 1700
Flags: W
HStem: 0 291<573 947> 1202 291<573 948>
VStem: 188 385<291 1202> 1196 397<528.3 965.1>
Fore
573 1202 m 1,0,-1
 573 291 l 1,1,-1
 711 291 l 2,2,3
 947 291 947 291 1071.5 408 c 128,-1,4
 1196 525 1196 525 1196 748 c 0,5,6
 1196 970 1196 970 1072 1086 c 128,-1,7
 948 1201.99 948 1201.99 711 1202 c 2,8,-1
 573 1202 l 1,0,-1
188 1493 m 1,9,-1
 594 1493 l 2,10,11
 934 1493 934 1493 1100.5 1444.5 c 128,-1,12
 1267 1396.01 1267 1396.01 1386 1280 c 0,13,14
 1491 1179.01 1491 1179.01 1542 1047 c 128,-1,15
 1593 915 1593 915 1593 748 c 0,16,17
 1593 579 1593 579 1542 446.5 c 128,-1,18
 1491 314 1491 314 1386 213 c 0,19,20
 1266 97.0005 1266 97.0005 1098 48.5 c 128,-1,21
 930 4.95911e-05 930 4.95911e-05 594 0 c 2,22,-1
 188 0 l 1,23,-1
 188 1493 l 1,9,-1
EndSplineSet
EndChar
StartChar: E
Encoding: 69 69 41
Width: 1399
Flags: W
HStem: 0 291<573 1249> 633 291<573 1188> 1202 291<573 1227>
VStem: 188 385<291 633 924 1202>
Fore
188 1493 m 1,0,-1
 1227 1493 l 1,1,-1
 1227 1202 l 1,2,-1
 573 1202 l 1,3,-1
 573 924 l 1,4,-1
 1188 924 l 1,5,-1
 1188 633 l 1,6,-1
 573 633 l 1,7,-1
 573 291 l 1,8,-1
 1249 291 l 1,9,-1
 1249 0 l 1,10,-1
 188 0 l 1,11,-1
 188 1493 l 1,0,-1
EndSplineSet
EndChar
StartChar: F
Encoding: 70 70 42
Width: 1399
Flags: W
HStem: 0 21G<188 573> 633 291<573 1188> 1202 291<573 1227>
VStem: 188 385<0 633 924 1202>
Fore
188 1493 m 1,0,-1
 1227 1493 l 1,1,-1
 1227 1202 l 1,2,-1
 573 1202 l 1,3,-1
 573 924 l 1,4,-1
 1188 924 l 1,5,-1
 1188 633 l 1,6,-1
 573 633 l 1,7,-1
 573 0 l 1,8,-1
 188 0 l 1,9,-1
 188 1493 l 1,0,-1
EndSplineSet
EndChar
StartChar: G
Encoding: 71 71 43
Width: 1681
Flags: W
HStem: -29 279<673.7 1091.18> 571 258<930 1165> 1241 279<680 1125.69>
VStem: 102 398<436.9 1055.69> 1165 365<281 571>
Fore
1530 111 m 1,0,1
 1386 40.9999 1386 40.9999 1231 6 c 128,-1,2
 1076 -29 1076 -29 911 -29 c 0,3,4
 538 -29 538 -29 320 179.5 c 128,-1,5
 102.001 388 102.001 388 102 745 c 0,6,7
 102 1106 102 1106 324 1313 c 128,-1,8
 546 1520 546 1520 932 1520 c 0,9,10
 1080.99 1520 1080.99 1520 1217.5 1492 c 128,-1,11
 1354 1463.99 1354 1463.99 1475 1409 c 1,12,-1
 1475 1100 l 1,13,14
 1349.98 1171.01 1349.98 1171.01 1226.5 1206 c 128,-1,15
 1103.01 1240.99 1103.01 1240.99 979 1241 c 0,16,17
 749 1241 749 1241 624.5 1112.5 c 128,-1,18
 500 983.995 500 983.995 500 745 c 0,19,20
 500 508 500 508 620 379 c 128,-1,21
 740 250 740 250 961 250 c 0,22,23
 1021.01 250 1021.01 250 1072.5 257.5 c 128,-1,24
 1124.01 265.003 1124.01 265.003 1165 281 c 1,25,-1
 1165 571 l 1,26,-1
 930 571 l 1,27,-1
 930 829 l 1,28,-1
 1530 829 l 1,29,-1
 1530 111 l 1,0,1
EndSplineSet
EndChar
StartChar: H
Encoding: 72 72 44
Width: 1714
Flags: W
HStem: 0 21G<188 573 1141 1526> 633 291<573 1141>
VStem: 188 385<0 633 924 1493> 1141 385<0 633 924 1493>
Fore
188 1493 m 1,0,-1
 573 1493 l 1,1,-1
 573 924 l 1,2,-1
 1141 924 l 1,3,-1
 1141 1493 l 1,4,-1
 1526 1493 l 1,5,-1
 1526 0 l 1,6,-1
 1141 0 l 1,7,-1
 1141 633 l 1,8,-1
 573 633 l 1,9,-1
 573 0 l 1,10,-1
 188 0 l 1,11,-1
 188 1493 l 1,0,-1
EndSplineSet
EndChar
StartChar: I
Encoding: 73 73 45
Width: 762
Flags: W
HStem: 0 21G<188 573>
VStem: 188 385<0 1493>
Fore
188 1493 m 1,0,-1
 573 1493 l 1,1,-1
 573 0 l 1,2,-1
 188 0 l 1,3,-1
 188 1493 l 1,0,-1
EndSplineSet
EndChar
StartChar: J
Encoding: 74 74 46
Width: 762
Flags: W
HStem: -410 291<-115 101>
VStem: 188 385<15 1493>
Fore
188 1493 m 1,0,-1
 573 1493 l 1,1,-1
 573 145 l 2,2,3
 573 -134 573 -134 421.5 -272 c 128,-1,4
 270 -410 270 -410 -37 -410 c 2,5,-1
 -115 -410 l 1,6,-1
 -115 -119 l 1,7,-1
 -55 -119 l 2,8,9
 65 -119 65 -119 126.5 -52 c 128,-1,10
 188 15 188 15 188 145 c 2,11,-1
 188 1493 l 1,0,-1
EndSplineSet
EndChar
StartChar: K
Encoding: 75 75 47
Width: 1587
Flags: W
HStem: 0 21G<188 573 1167 1649>
VStem: 188 385<0 588 948 1493>
Fore
188 1493 m 1,0,-1
 573 1493 l 1,1,-1
 573 948 l 1,2,-1
 1128 1493 l 1,3,-1
 1575 1493 l 1,4,-1
 856 786 l 1,5,-1
 1649 0 l 1,6,-1
 1167 0 l 1,7,-1
 573 588 l 1,8,-1
 573 0 l 1,9,-1
 188 0 l 1,10,-1
 188 1493 l 1,0,-1
EndSplineSet
EndChar
StartChar: L
Encoding: 76 76 48
Width: 1305
Flags: W
HStem: 0 291<573 1249>
VStem: 188 385<291 1493>
Fore
188 1493 m 1,0,-1
 573 1493 l 1,1,-1
 573 291 l 1,2,-1
 1249 291 l 1,3,-1
 1249 0 l 1,4,-1
 188 0 l 1,5,-1
 188 1493 l 1,0,-1
EndSplineSet
EndChar
StartChar: M
Encoding: 77 77 49
Width: 2038
Flags: W
HStem: 0 21G<188 553 1485 1849>
VStem: 188 365<0 1092> 1485 364<0 1092>
Fore
188 1493 m 1,0,-1
 678 1493 l 1,1,-1
 1018 694 l 1,2,-1
 1360 1493 l 1,3,-1
 1849 1493 l 1,4,-1
 1849 0 l 1,5,-1
 1485 0 l 1,6,-1
 1485 1092 l 1,7,-1
 1141 287 l 1,8,-1
 897 287 l 1,9,-1
 553 1092 l 1,10,-1
 553 0 l 1,11,-1
 188 0 l 1,12,-1
 188 1493 l 1,0,-1
EndSplineSet
EndChar
StartChar: N
Encoding: 78 78 50
Width: 1714
Flags: W
HStem: 0 21G<188 553 1096 1526>
VStem: 188 365<0 1024> 1161 365<469 1493>
Fore
188 1493 m 1,0,-1
 618 1493 l 1,1,-1
 1161 469 l 1,2,-1
 1161 1493 l 1,3,-1
 1526 1493 l 1,4,-1
 1526 0 l 1,5,-1
 1096 0 l 1,6,-1
 553 1024 l 1,7,-1
 553 0 l 1,8,-1
 188 0 l 1,9,-1
 188 1493 l 1,0,-1
EndSplineSet
EndChar
StartChar: O
Encoding: 79 79 51
Width: 1741
Flags: W
HStem: -29 279<641.2 1100.1> 1241 279<641.2 1100.09>
VStem: 102 398<439.5 1051.79> 1241 397<439.5 1051.8>
Fore
870 1241 m 0,0,1
 694 1241 694 1241 597 1111 c 128,-1,2
 500 980.995 500 980.995 500 745 c 0,3,4
 500 510 500 510 597 380 c 128,-1,5
 694 250 694 250 870 250 c 0,6,7
 1047 250 1047 250 1144 380 c 128,-1,8
 1241.01 510 1241.01 510 1241 745 c 0,9,10
 1241 981 1241 981 1144 1111 c 128,-1,11
 1046.99 1241.01 1046.99 1241.01 870 1241 c 0,0,1
870 1520 m 0,12,13
 1230 1520 1230 1520 1434 1314 c 128,-1,14
 1638 1108.01 1638 1108.01 1638 745 c 0,15,16
 1638 383 1638 383 1434 177 c 128,-1,17
 1230 -29 1230 -29 870 -29 c 0,18,19
 511 -29 511 -29 306.5 177 c 128,-1,20
 102.001 383 102.001 383 102 745 c 0,21,22
 102 1108 102 1108 306.5 1314 c 128,-1,23
 511 1519.99 511 1519.99 870 1520 c 0,12,13
EndSplineSet
EndChar
StartChar: P
Encoding: 80 80 52
Width: 1501
Flags: W
HStem: 0 21G<188 573> 518 279<573 898> 1214 279<573 931.6>
VStem: 188 385<0 518 797 1214>
Fore
188 1493 m 1,0,-1
 827 1493 l 2,1,2
 1112 1493 1112 1493 1264.5 1366.5 c 128,-1,3
 1417.01 1240.01 1417.01 1240.01 1417 1006 c 0,4,5
 1417 771 1417 771 1264.5 644.5 c 128,-1,6
 1111.99 518 1111.99 518 827 518 c 2,7,-1
 573 518 l 1,8,-1
 573 0 l 1,9,-1
 188 0 l 1,10,-1
 188 1493 l 1,0,-1
573 1214 m 1,11,-1
 573 797 l 1,12,-1
 786 797 l 2,13,14
 898 797 898 797 959 851.5 c 128,-1,15
 1020 906 1020 906 1020 1006 c 256,16,17
 1020 1106.01 1020 1106.01 959 1160 c 128,-1,18
 898 1214 898 1214 786 1214 c 2,19,-1
 573 1214 l 1,11,-1
EndSplineSet
EndChar
StartChar: Q
Encoding: 81 81 53
Width: 1741
Flags: W
HStem: -27 277<636 911> 1241 279<641.2 1100.09>
VStem: 102 398<433 1051.79> 1241 397<439.5 1051.8>
Fore
911 -27 m 1,0,-1
 881 -27 l 2,1,2
 512 -27 512 -27 307 177 c 128,-1,3
 101.999 381 101.999 381 102 745 c 0,4,5
 102 1108 102 1108 306.5 1314 c 128,-1,6
 511 1519.99 511 1519.99 870 1520 c 0,7,8
 1233 1520 1233 1520 1435.5 1316 c 128,-1,9
 1638 1112 1638 1112 1638 745 c 0,10,11
 1638 493 1638 493 1530.5 311 c 128,-1,12
 1422.99 129.001 1422.99 129.001 1221 37 c 1,13,-1
 1522 -299 l 1,14,-1
 1155 -299 l 1,15,-1
 911 -27 l 1,0,-1
870 1241 m 0,16,17
 694 1241 694 1241 597 1111 c 128,-1,18
 500 980.995 500 980.995 500 745 c 0,19,20
 500 505 500 505 595 377.5 c 128,-1,21
 690 250 690 250 870 250 c 0,22,23
 1047 250 1047 250 1144 380 c 128,-1,24
 1241.01 510 1241.01 510 1241 745 c 0,25,26
 1241 981 1241 981 1144 1111 c 128,-1,27
 1046.99 1241.01 1046.99 1241.01 870 1241 c 0,16,17
EndSplineSet
EndChar
StartChar: R
Encoding: 82 82 54
Width: 1577
Flags: W
HStem: 0 21G<188 573 1126 1536> 565 266<573 804.2> 1214 279<573 892.3>
VStem: 188 385<0 565 831 1214> 961 385<890.1 1156.6>
Fore
735 831 m 2,0,1
 856 831 856 831 908.5 876 c 128,-1,2
 961 921 961 921 961 1024 c 0,3,4
 961 1126 961 1126 908.5 1170 c 128,-1,5
 856 1213.99 856 1213.99 735 1214 c 2,6,-1
 573 1214 l 1,7,-1
 573 831 l 1,8,-1
 735 831 l 2,0,1
573 565 m 1,9,-1
 573 0 l 1,10,-1
 188 0 l 1,11,-1
 188 1493 l 1,12,-1
 776 1493 l 2,13,14
 1071 1493 1071 1493 1208.5 1394 c 128,-1,15
 1346.01 1295 1346.01 1295 1346 1081 c 0,16,17
 1346 933 1346 933 1274.5 838 c 128,-1,18
 1202.99 743 1202.99 743 1059 698 c 1,19,20
 1137.99 680.003 1137.99 680.003 1200.5 616.5 c 128,-1,21
 1262.98 553.022 1262.98 553.022 1327 424 c 2,22,-1
 1536 0 l 1,23,-1
 1126 0 l 1,24,-1
 944 371 l 2,25,26
 888.999 483.002 888.999 483.002 832.5 524 c 128,-1,27
 776 565 776 565 682 565 c 2,28,-1
 573 565 l 1,9,-1
EndSplineSet
EndChar
StartChar: S
Encoding: 83 83 55
Width: 1475
Flags: W
HStem: -29 279<546.4 857.8> 1241 279<586.6 887.767>
Fore
1227 1446 m 1,0,-1
 1227 1130 l 1,1,2
 1104 1185.01 1104 1185.01 987 1213 c 128,-1,3
 870 1241.01 870 1241.01 766 1241 c 0,4,5
 628 1241 628 1241 562 1203 c 128,-1,6
 496 1165.01 496 1165.01 496 1085 c 0,7,8
 496 1025 496 1025 540.5 991.5 c 128,-1,9
 585 958 585 958 702 934 c 2,10,-1
 866 901 l 2,11,12
 1115 851 1115 851 1220 749 c 128,-1,13
 1325 647 1325 647 1325 459 c 0,14,15
 1325 212 1325 212 1178.5 91.5 c 128,-1,16
 1031.99 -28.9999 1031.99 -28.9999 731 -29 c 0,17,18
 589 -29 589 -29 446 -2 c 128,-1,19
 303 25 303 25 160 78 c 1,20,-1
 160 403 l 1,21,22
 302.999 327 302.999 327 436.5 288.5 c 128,-1,23
 570 250 570 250 694 250 c 0,24,25
 820 250 820 250 887 292 c 128,-1,26
 954 334 954 334 954 412 c 0,27,28
 954 482 954 482 908.5 520 c 128,-1,29
 863 558 863 558 727 588 c 2,30,-1
 578 621 l 2,31,32
 354 669 354 669 250.5 774 c 128,-1,33
 147 879 147 879 147 1057 c 0,34,35
 147 1280.01 147 1280.01 291 1400 c 128,-1,36
 435 1520 435 1520 705 1520 c 0,37,38
 828 1520 828 1520 958 1501.5 c 128,-1,39
 1087.98 1483.01 1087.98 1483.01 1227 1446 c 1,0,-1
EndSplineSet
EndChar
StartChar: T
Encoding: 84 84 56
Width: 1397
Flags: W
HStem: 0 21G<506 891> 1202 291<10 506 891 1386>
VStem: 506 385<0 1202>
Fore
10 1493 m 1,0,-1
 1386 1493 l 1,1,-1
 1386 1202 l 1,2,-1
 891 1202 l 1,3,-1
 891 0 l 1,4,-1
 506 0 l 1,5,-1
 506 1202 l 1,6,-1
 10 1202 l 1,7,-1
 10 1493 l 1,0,-1
EndSplineSet
EndChar
StartChar: U
Encoding: 85 85 57
Width: 1663
Flags: W
HStem: -29 283<652.9 1010.4>
VStem: 188 385<413 1493> 1090 385<357.5 1493>
Fore
188 1493 m 1,0,-1
 573 1493 l 1,1,-1
 573 598 l 2,2,3
 573 413 573 413 633.5 333.5 c 128,-1,4
 694 254 694 254 831 254 c 0,5,6
 969 254 969 254 1029.5 333.5 c 128,-1,7
 1089.99 413 1089.99 413 1090 598 c 2,8,-1
 1090 1493 l 1,9,-1
 1475 1493 l 1,10,-1
 1475 598 l 2,11,12
 1475 281 1475 281 1316 126 c 128,-1,13
 1157 -29 1157 -29 831 -29 c 0,14,15
 506 -29 506 -29 347 126 c 128,-1,16
 188 280.999 188 280.999 188 598 c 2,17,-1
 188 1493 l 1,0,-1
EndSplineSet
EndChar
StartChar: V
Encoding: 86 86 58
Width: 1585
Flags: W
HStem: 0 21G<563 1022>
Fore
10 1493 m 1,0,-1
 397 1493 l 1,1,-1
 793 391 l 1,2,-1
 1188 1493 l 1,3,-1
 1575 1493 l 1,4,-1
 1022 0 l 1,5,-1
 563 0 l 1,6,-1
 10 1493 l 1,0,-1
EndSplineSet
EndChar
StartChar: W
Encoding: 87 87 59
Width: 2259
Flags: W
HStem: 0 21G<416 860 1399 1843>
Fore
61 1493 m 1,0,-1
 430 1493 l 1,1,-1
 688 408 l 1,2,-1
 944 1493 l 1,3,-1
 1315 1493 l 1,4,-1
 1571 408 l 1,5,-1
 1829 1493 l 1,6,-1
 2195 1493 l 1,7,-1
 1843 0 l 1,8,-1
 1399 0 l 1,9,-1
 1128 1135 l 1,10,-1
 860 0 l 1,11,-1
 416 0 l 1,12,-1
 61 1493 l 1,0,-1
EndSplineSet
EndChar
StartChar: X
Encoding: 88 88 60
Width: 1579
Flags: W
HStem: 0 21G<39 442 1137 1538>
Fore
1020 762 m 1,0,-1
 1538 0 l 1,1,-1
 1137 0 l 1,2,-1
 788 510 l 1,3,-1
 442 0 l 1,4,-1
 39 0 l 1,5,-1
 557 762 l 1,6,-1
 59 1493 l 1,7,-1
 461 1493 l 1,8,-1
 788 1012 l 1,9,-1
 1114 1493 l 1,10,-1
 1518 1493 l 1,11,-1
 1020 762 l 1,0,-1
EndSplineSet
EndChar
StartChar: Y
Encoding: 89 89 61
Width: 1483
Flags: W
HStem: 0 21G<549 934>
VStem: 549 385<0 629>
Fore
-20 1493 m 1,0,-1
 401 1493 l 1,1,-1
 741 961 l 1,2,-1
 1081 1493 l 1,3,-1
 1503 1493 l 1,4,-1
 934 629 l 1,5,-1
 934 0 l 1,6,-1
 549 0 l 1,7,-1
 549 629 l 1,8,-1
 -20 1493 l 1,0,-1
EndSplineSet
EndChar
StartChar: Z
Encoding: 90 90 62
Width: 1485
Flags: W
HStem: 0 291<569 1393> 1202 291<115 893>
Fore
115 1493 m 1,0,-1
 1370 1493 l 1,1,-1
 1370 1260 l 1,2,-1
 569 291 l 1,3,-1
 1393 291 l 1,4,-1
 1393 0 l 1,5,-1
 92 0 l 1,6,-1
 92 233 l 1,7,-1
 893 1202 l 1,8,-1
 115 1202 l 1,9,-1
 115 1493 l 1,0,-1
EndSplineSet
EndChar
StartChar: bracketleft
Encoding: 91 91 63
Width: 936
Flags: W
HStem: -270 225<516 797> 1331 225<516 797>
VStem: 176 340<-45 1331>
Fore
176 1556 m 1,0,-1
 797 1556 l 1,1,-1
 797 1331 l 1,2,-1
 516 1331 l 1,3,-1
 516 -45 l 1,4,-1
 797 -45 l 1,5,-1
 797 -270 l 1,6,-1
 176 -270 l 1,7,-1
 176 1556 l 1,0,-1
EndSplineSet
EndChar
StartChar: backslash
Encoding: 92 92 64
Width: 748
Flags: W
VStem: 0 748<-190 1493>
Fore
526 -190 m 1,0,-1
 0 1493 l 1,1,-1
 221 1493 l 1,2,-1
 748 -190 l 1,3,-1
 526 -190 l 1,0,-1
EndSplineSet
EndChar
StartChar: bracketright
Encoding: 93 93 65
Width: 936
Flags: W
HStem: -270 225<139 420> 1331 225<139 420>
VStem: 420 340<-45 1331>
Fore
760 -270 m 1,0,-1
 139 -270 l 1,1,-1
 139 -45 l 1,2,-1
 420 -45 l 1,3,-1
 420 1331 l 1,4,-1
 139 1331 l 1,5,-1
 139 1556 l 1,6,-1
 760 1556 l 1,7,-1
 760 -270 l 1,0,-1
EndSplineSet
EndChar
StartChar: asciicircum
Encoding: 94 94 66
Width: 1716
Flags: W
HStem: 936 557<981 1509>
Fore
981 1493 m 1,0,-1
 1509 936 l 1,1,-1
 1268 936 l 1,2,-1
 858 1237 l 1,3,-1
 449 936 l 1,4,-1
 207 936 l 1,5,-1
 735 1493 l 1,6,-1
 981 1493 l 1,0,-1
EndSplineSet
EndChar
StartChar: underscore
Encoding: 95 95 67
Width: 1024
Flags: W
HStem: -483 190<0 1024>
Fore
1024 -293 m 1,0,-1
 1024 -483 l 1,1,-1
 0 -483 l 1,2,-1
 0 -293 l 1,3,-1
 1024 -293 l 1,0,-1
EndSplineSet
EndChar
StartChar: grave
Encoding: 96 96 68
Width: 1024
Flags: W
HStem: 1262 376<377 659>
VStem: 94 565<1262 1638>
Fore
377 1638 m 1,0,-1
 659 1262 l 1,1,-1
 463 1262 l 1,2,-1
 94 1638 l 1,3,-1
 377 1638 l 1,0,-1
EndSplineSet
EndChar
StartChar: a
Encoding: 97 97 69
Width: 1382
Flags: W
HStem: 0 21G<860 1221> 504 213<528.4 860> 909 238<455.763 768.6>
VStem: 860 361<0 166 321.3 504 717 830>
Fore
674 504 m 2,0,1
 562 504 562 504 505.5 466 c 128,-1,2
 449 428 449 428 449 354 c 0,3,4
 449 286 449 286 494.5 247.5 c 128,-1,5
 540 208.999 540 208.999 621 209 c 0,6,7
 722 209 722 209 791 281.5 c 128,-1,8
 860 354 860 354 860 463 c 2,9,-1
 860 504 l 1,10,-1
 674 504 l 2,0,1
1221 639 m 2,11,-1
 1221 0 l 1,12,-1
 860 0 l 1,13,-1
 860 166 l 1,14,15
 788 64 788 64 698 17.5 c 128,-1,16
 608 -29 608 -29 479 -29 c 0,17,18
 305 -29 305 -29 196.5 72.5 c 128,-1,19
 88.0005 174.001 88.0005 174.001 88 336 c 0,20,21
 88 533 88 533 223.5 625 c 128,-1,22
 359 717 359 717 649 717 c 2,23,-1
 860 717 l 1,24,-1
 860 745 l 2,25,26
 860 830 860 830 793 869.5 c 128,-1,27
 726 909 726 909 584 909 c 0,28,29
 469 909 469 909 370 886 c 128,-1,30
 271 863 271 863 186 817 c 1,31,-1
 186 1090 l 1,32,33
 300.915 1117.98 300.915 1117.98 417 1132.5 c 128,-1,34
 532.959 1147 532.959 1147 649 1147 c 0,35,36
 952 1147 952 1147 1086.5 1027.5 c 128,-1,37
 1221.01 908 1221.01 908 1221 639 c 2,11,-1
EndSplineSet
EndChar
StartChar: b
Encoding: 98 98 70
Width: 1466
Flags: W
HStem: 0 21G<172 530> 1127 20G<842.5 1004.5>
VStem: 172 358<0 162 352.3 765.7 956 1556> 1004 370<351 767>
Fore
768 231 m 256,0,1
 883 231 883 231 943.5 315 c 128,-1,2
 1004 399 1004 399 1004 559 c 256,3,4
 1004 719 1004 719 943.5 803 c 128,-1,5
 883 887 883 887 768 887 c 256,6,7
 653 887 653 887 591.5 802.5 c 128,-1,8
 530 718 530 718 530 559 c 256,9,10
 530 400 530 400 591.5 315.5 c 128,-1,11
 653 231 653 231 768 231 c 256,0,1
530 956 m 1,12,13
 604 1053.99 604 1053.99 694 1100.5 c 128,-1,14
 784 1147 784 1147 901 1147 c 0,15,16
 1108 1147 1108 1147 1241 982.5 c 128,-1,17
 1374.01 818 1374.01 818 1374 559 c 256,18,19
 1374 300 1374 300 1241 135.5 c 128,-1,20
 1107.99 -29 1107.99 -29 901 -29 c 0,21,22
 784 -29 784 -29 694 17.5 c 128,-1,23
 604 64 604 64 530 162 c 1,24,-1
 530 0 l 1,25,-1
 172 0 l 1,26,-1
 172 1556 l 1,27,-1
 530 1556 l 1,28,-1
 530 956 l 1,12,13
EndSplineSet
EndChar
StartChar: c
Encoding: 99 99 71
Width: 1214
Flags: W
HStem: -29 256<583 874.121> 891 256<583 874.73>
VStem: 88 373<354.9 763.1>
Fore
1077 1085 m 1,0,-1
 1077 793 l 1,1,2
 1003.99 843.004 1003.99 843.004 930.5 867 c 128,-1,3
 857 891 857 891 778 891 c 0,4,5
 628 891 628 891 544.5 803.5 c 128,-1,6
 461 716 461 716 461 559 c 256,7,8
 461 402 461 402 544.5 314.5 c 128,-1,9
 628 227 628 227 778 227 c 0,10,11
 862 227 862 227 937.5 252 c 128,-1,12
 1013 277 1013 277 1077 326 c 1,13,-1
 1077 33 l 1,14,15
 993 1.99995 993 1.99995 906.5 -13.5 c 128,-1,16
 820 -29 820 -29 733 -29 c 0,17,18
 430 -29 430 -29 259 126.5 c 128,-1,19
 88 282.001 88 282.001 88 559 c 256,20,21
 88 836 88 836 259 991.5 c 128,-1,22
 430 1147.01 430 1147.01 733 1147 c 0,23,24
 821 1147 821 1147 906.5 1131.5 c 128,-1,25
 991.99 1116.01 991.99 1116.01 1077 1085 c 1,0,-1
EndSplineSet
EndChar
StartChar: d
Encoding: 100 100 72
Width: 1466
Flags: W
HStem: 0 21G<934 1294>
VStem: 92 371<351 767> 934 360<0 162 351 767 956 1556>
Fore
934 956 m 1,0,-1
 934 1556 l 1,1,-1
 1294 1556 l 1,2,-1
 1294 0 l 1,3,-1
 934 0 l 1,4,-1
 934 162 l 1,5,6
 860 63 860 63 771 17 c 128,-1,7
 682 -29 682 -29 565 -29 c 0,8,9
 358 -29 358 -29 225 135.5 c 128,-1,10
 91.9995 300.001 91.9995 300.001 92 559 c 256,11,12
 92 818 92 818 225 982.5 c 128,-1,13
 358 1147.01 358 1147.01 565 1147 c 0,14,15
 681 1147 681 1147 770.5 1100.5 c 128,-1,16
 860 1054 860 1054 934 956 c 1,0,-1
698 231 m 0,17,18
 813 231 813 231 873.5 315 c 128,-1,19
 934 399 934 399 934 559 c 256,20,21
 934 719 934 719 873.5 803 c 128,-1,22
 813 887 813 887 698 887 c 0,23,24
 584 887 584 887 523.5 803 c 128,-1,25
 463 719 463 719 463 559 c 256,26,27
 463 399 463 399 523.5 315 c 128,-1,28
 584 231 584 231 698 231 c 0,17,18
EndSplineSet
EndChar
StartChar: e
Encoding: 101 101 73
Width: 1389
Flags: W
HStem: -29 238<580 894.099> 461 221<457 922> 909 238<571.8 831.8>
VStem: 922 368<563 814.6>
Fore
1290 563 m 2,0,-1
 1290 461 l 1,1,-1
 453 461 l 1,2,3
 466 335 466 335 544 272 c 128,-1,4
 622 209 622 209 762 209 c 0,5,6
 875 209 875 209 993.5 242.5 c 128,-1,7
 1112.01 276.001 1112.01 276.001 1237 344 c 1,8,-1
 1237 68 l 1,9,10
 1109.98 19.9959 1109.98 19.9959 983 -4.5 c 128,-1,11
 855.999 -29 855.999 -29 729 -29 c 0,12,13
 425 -29 425 -29 256.5 125.5 c 128,-1,14
 88.0005 280 88.0005 280 88 559 c 0,15,16
 88 833 88 833 253.5 990 c 128,-1,17
 419 1147.01 419 1147.01 709 1147 c 0,18,19
 973 1147 973 1147 1131.5 988 c 128,-1,20
 1290.01 829 1290.01 829 1290 563 c 2,0,-1
922 682 m 1,21,22
 922 784 922 784 862.5 846.5 c 128,-1,23
 803 909 803 909 707 909 c 0,24,25
 603 909 603 909 538 850.5 c 128,-1,26
 473 792 473 792 457 682 c 1,27,-1
 922 682 l 1,21,22
EndSplineSet
EndChar
StartChar: f
Encoding: 102 102 74
Width: 891
Flags: W
HStem: 0 21G<217 575> 864 256<39 217 575 881> 1321 235<635 909>
VStem: 217 358<0 864 1120 1286.41>
Fore
909 1556 m 1,0,-1
 909 1321 l 1,1,-1
 711 1321 l 2,2,3
 635 1321 635 1321 605 1293.5 c 128,-1,4
 575 1266.01 575 1266.01 575 1198 c 2,5,-1
 575 1120 l 1,6,-1
 881 1120 l 1,7,-1
 881 864 l 1,8,-1
 575 864 l 1,9,-1
 575 0 l 1,10,-1
 217 0 l 1,11,-1
 217 864 l 1,12,-1
 39 864 l 1,13,-1
 39 1120 l 1,14,-1
 217 1120 l 1,15,-1
 217 1198 l 2,16,17
 217 1381 217 1381 319 1468.5 c 128,-1,18
 421 1555.99 421 1555.99 635 1556 c 2,19,-1
 909 1556 l 1,0,-1
EndSplineSet
EndChar
StartChar: g
Encoding: 103 103 75
Width: 1466
Flags: W
HStem: -442 237<475.7 822.8> 1125 20G<462.5 623.5>
VStem: 92 371<372.8 768> 934 360<-51.0001 190 379.3 768 954 1120>
Fore
934 190 m 1,0,1
 860 92.0005 860 92.0005 771 46 c 128,-1,2
 682 -4.95911e-05 682 -4.95911e-05 565 0 c 0,3,4
 360 0 360 0 226 161.5 c 128,-1,5
 92.0005 323 92.0005 323 92 573 c 0,6,7
 92 824 92 824 226 984.5 c 128,-1,8
 360 1145 360 1145 565 1145 c 0,9,10
 682 1145 682 1145 771 1099 c 128,-1,11
 860 1052.99 860 1052.99 934 954 c 1,12,-1
 934 1120 l 1,13,-1
 1294 1120 l 1,14,-1
 1294 113 l 2,15,16
 1294 -157 1294 -157 1123.5 -299.5 c 128,-1,17
 952.995 -442 952.995 -442 629 -442 c 0,18,19
 524 -442 524 -442 426 -426 c 128,-1,20
 328 -410 328 -410 229 -377 c 1,21,-1
 229 -98 l 1,22,23
 323 -152 323 -152 413 -178.5 c 128,-1,24
 503 -205.001 503 -205.001 594 -205 c 0,25,26
 770 -205 770 -205 852 -128 c 128,-1,27
 934 -51.0001 934 -51.0001 934 113 c 2,28,-1
 934 190 l 1,0,1
698 887 m 0,29,30
 587 887 587 887 525 805 c 128,-1,31
 463 723 463 723 463 573 c 0,32,33
 463 419 463 419 523 339.5 c 128,-1,34
 583 260 583 260 698 260 c 0,35,36
 810 260 810 260 872 342 c 128,-1,37
 934 424 934 424 934 573 c 0,38,39
 934 723 934 723 872 805 c 128,-1,40
 810 887 810 887 698 887 c 0,29,30
EndSplineSet
EndChar
StartChar: h
Encoding: 104 104 76
Width: 1458
Flags: W
HStem: 0 21G<172 530 938 1298> 1127 20G<848 999.995>
VStem: 172 358<0 749.9 956 1556> 938 360<0 778.014>
Fore
1298 682 m 2,0,-1
 1298 0 l 1,1,-1
 938 0 l 1,2,-1
 938 111 l 1,3,-1
 938 520 l 2,4,5
 938 667 938 667 931.5 722 c 128,-1,6
 925 777 925 777 909 803 c 0,7,8
 888 838 888 838 852 857.5 c 128,-1,9
 816 877 816 877 770 877 c 0,10,11
 658 877 658 877 594 790.5 c 128,-1,12
 530 704 530 704 530 551 c 2,13,-1
 530 0 l 1,14,-1
 172 0 l 1,15,-1
 172 1556 l 1,16,-1
 530 1556 l 1,17,-1
 530 956 l 1,18,19
 611 1053.99 611 1053.99 702 1100.5 c 128,-1,20
 793 1147 793 1147 903 1147 c 0,21,22
 1096.99 1147 1096.99 1147 1197.5 1028 c 128,-1,23
 1298 909 1298 909 1298 682 c 2,0,-1
EndSplineSet
EndChar
StartChar: i
Encoding: 105 105 77
Width: 702
Flags: W
HStem: 0 21G<172 530> 1264 292<172 530>
VStem: 172 358<0 1120 1264 1556>
Fore
172 1120 m 1,0,-1
 530 1120 l 1,1,-1
 530 0 l 1,2,-1
 172 0 l 1,3,-1
 172 1120 l 1,0,-1
172 1556 m 1,4,-1
 530 1556 l 1,5,-1
 530 1264 l 1,6,-1
 172 1264 l 1,7,-1
 172 1556 l 1,4,-1
EndSplineSet
EndChar
StartChar: j
Encoding: 106 106 78
Width: 702
Flags: W
HStem: -442 235<-68 96> 1264 292<172 530>
VStem: 172 358<-114.999 1120 1264 1556>
Fore
172 1120 m 1,0,-1
 530 1120 l 1,1,-1
 530 20 l 2,2,3
 530 -205 530 -205 422 -323.5 c 128,-1,4
 314 -442 314 -442 109 -442 c 2,5,-1
 -68 -442 l 1,6,-1
 -68 -207 l 1,7,-1
 -6 -207 l 2,8,9
 96 -207 96 -207 134 -161 c 128,-1,10
 171.999 -114.999 171.999 -114.999 172 20 c 2,11,-1
 172 1120 l 1,0,-1
172 1556 m 1,12,-1
 530 1556 l 1,13,-1
 530 1264 l 1,14,-1
 172 1264 l 1,15,-1
 172 1556 l 1,12,-1
EndSplineSet
EndChar
StartChar: k
Encoding: 107 107 79
Width: 1362
Flags: W
HStem: 0 21G<172 530 967 1401>
VStem: 172 358<0 467 709 1556>
Fore
172 1556 m 1,0,-1
 530 1556 l 1,1,-1
 530 709 l 1,2,-1
 942 1120 l 1,3,-1
 1358 1120 l 1,4,-1
 811 606 l 1,5,-1
 1401 0 l 1,6,-1
 967 0 l 1,7,-1
 530 467 l 1,8,-1
 530 0 l 1,9,-1
 172 0 l 1,10,-1
 172 1556 l 1,0,-1
EndSplineSet
EndChar
StartChar: l
Encoding: 108 108 80
Width: 702
Flags: W
HStem: 0 21G<172 530>
VStem: 172 358<0 1556>
Fore
172 1556 m 1,0,-1
 530 1556 l 1,1,-1
 530 0 l 1,2,-1
 172 0 l 1,3,-1
 172 1556 l 1,0,-1
EndSplineSet
EndChar
StartChar: m
Encoding: 109 109 81
Width: 2134
Flags: W
HStem: 0 21G<170 530 891 1251 1612 1972> 1127 20G<818.5 928>
VStem: 170 360<0 755.1 956 1120> 891 360<0 756.7> 1614 358<0 805.7>
Fore
1210 934 m 1,0,1
 1277.99 1037.99 1277.99 1037.99 1371.5 1092.5 c 128,-1,2
 1464.99 1146.99 1464.99 1146.99 1577 1147 c 0,3,4
 1770.01 1147 1770.01 1147 1871 1028 c 128,-1,5
 1971.99 909 1971.99 909 1972 682 c 2,6,-1
 1972 0 l 1,7,-1
 1612 0 l 1,8,-1
 1612 584 l 2,9,10
 1613.01 597 1613.01 597 1613.5 611 c 128,-1,11
 1614 625.143 1614 625.143 1614 651 c 0,12,13
 1614 770 1614 770 1579 823.5 c 128,-1,14
 1544.01 877 1544.01 877 1466 877 c 0,15,16
 1364 877 1364 877 1308.5 793 c 128,-1,17
 1253 709 1253 709 1251 550 c 2,18,-1
 1251 0 l 1,19,-1
 891 0 l 1,20,-1
 891 584 l 2,21,22
 891 770 891 770 859 823.5 c 128,-1,23
 827 877 827 877 745 877 c 0,24,25
 642 877 642 877 586 792.5 c 128,-1,26
 530 708 530 708 530 551 c 2,27,-1
 530 0 l 1,28,-1
 170 0 l 1,29,-1
 170 1120 l 1,30,-1
 530 1120 l 1,31,-1
 530 956 l 1,32,33
 596 1050.99 596 1050.99 681.5 1099 c 128,-1,34
 767 1147 767 1147 870 1147 c 0,35,36
 986 1147 986 1147 1075 1091 c 128,-1,37
 1163.99 1035.01 1163.99 1035.01 1210 934 c 1,0,1
EndSplineSet
EndChar
StartChar: n
Encoding: 110 110 82
Width: 1458
Flags: W
HStem: 0 21G<172 530 938 1298> 1127 20G<848 999.995>
VStem: 172 358<0 749.9 956 1120> 938 360<0 777.417>
Fore
1298 682 m 2,0,-1
 1298 0 l 1,1,-1
 938 0 l 1,2,-1
 938 111 l 1,3,-1
 938 522 l 2,4,5
 938 667 938 667 931.5 722 c 128,-1,6
 925 777 925 777 909 803 c 0,7,8
 888 838 888 838 852 857.5 c 128,-1,9
 816 877 816 877 770 877 c 0,10,11
 658 877 658 877 594 790.5 c 128,-1,12
 530 704 530 704 530 551 c 2,13,-1
 530 0 l 1,14,-1
 172 0 l 1,15,-1
 172 1120 l 1,16,-1
 530 1120 l 1,17,-1
 530 956 l 1,18,19
 611 1053.99 611 1053.99 702 1100.5 c 128,-1,20
 793 1147 793 1147 903 1147 c 0,21,22
 1096.99 1147 1096.99 1147 1197.5 1028 c 128,-1,23
 1298 909 1298 909 1298 682 c 2,0,-1
EndSplineSet
EndChar
StartChar: o
Encoding: 111 111 83
Width: 1407
Flags: W
HStem: -29 256<550.3 857.1> 891 256<550.3 857.1>
VStem: 88 373<349.7 768.3> 946 373<349.7 768.3>
Fore
705 891 m 0,0,1
 586 891 586 891 523.5 805.5 c 128,-1,2
 461 720 461 720 461 559 c 256,3,4
 461 398 461 398 523.5 312.5 c 128,-1,5
 586 227 586 227 705 227 c 0,6,7
 822 227 822 227 884 312.5 c 128,-1,8
 946 398 946 398 946 559 c 256,9,10
 946 720 946 720 884 805.5 c 128,-1,11
 822 891 822 891 705 891 c 0,0,1
705 1147 m 0,12,13
 994 1147 994 1147 1156.5 991 c 128,-1,14
 1318.99 835 1318.99 835 1319 559 c 256,15,16
 1319 283 1319 283 1156.5 127 c 128,-1,17
 994.005 -29 994.005 -29 705 -29 c 0,18,19
 415 -29 415 -29 251.5 127 c 128,-1,20
 88 283 88 283 88 559 c 256,21,22
 88 835 88 835 251.5 991 c 128,-1,23
 415 1147 415 1147 705 1147 c 0,12,13
EndSplineSet
EndChar
StartChar: p
Encoding: 112 112 84
Width: 1466
Flags: W
HStem: 1127 20G<842.5 1004.5>
VStem: 172 358<-426 162 352.3 765.7 956 1120> 1004 370<351 767>
Fore
530 162 m 1,0,-1
 530 -426 l 1,1,-1
 172 -426 l 1,2,-1
 172 1120 l 1,3,-1
 530 1120 l 1,4,-1
 530 956 l 1,5,6
 604 1053.99 604 1053.99 694 1100.5 c 128,-1,7
 784 1147 784 1147 901 1147 c 0,8,9
 1108 1147 1108 1147 1241 982.5 c 128,-1,10
 1374.01 818 1374.01 818 1374 559 c 256,11,12
 1374 300 1374 300 1241 135.5 c 128,-1,13
 1107.99 -29 1107.99 -29 901 -29 c 0,14,15
 784 -29 784 -29 694 17.5 c 128,-1,16
 604 64 604 64 530 162 c 1,0,-1
768 887 m 256,17,18
 653 887 653 887 591.5 802.5 c 128,-1,19
 530 718 530 718 530 559 c 256,20,21
 530 400 530 400 591.5 315.5 c 128,-1,22
 653 231 653 231 768 231 c 256,23,24
 883 231 883 231 943.5 315 c 128,-1,25
 1004 399 1004 399 1004 559 c 256,26,27
 1004 719 1004 719 943.5 803 c 128,-1,28
 883 887 883 887 768 887 c 256,17,18
EndSplineSet
EndChar
StartChar: q
Encoding: 113 113 85
Width: 1466
Flags: W
HStem: 1125 20G<461.5 623.5>
VStem: 92 371<351 767> 934 360<-426 162 351 767 954 1120>
Fore
698 887 m 0,0,1
 584 887 584 887 523.5 803 c 128,-1,2
 463 719 463 719 463 559 c 256,3,4
 463 399 463 399 523.5 315 c 128,-1,5
 584 231 584 231 698 231 c 0,6,7
 813 231 813 231 873.5 315 c 128,-1,8
 934 399 934 399 934 559 c 256,9,10
 934 719 934 719 873.5 803 c 128,-1,11
 813 887 813 887 698 887 c 0,0,1
934 162 m 1,12,13
 860 63 860 63 771 17 c 128,-1,14
 682 -29 682 -29 565 -29 c 0,15,16
 358 -29 358 -29 225 135.5 c 128,-1,17
 91.9995 300.001 91.9995 300.001 92 559 c 256,18,19
 92 818 92 818 225 981.5 c 128,-1,20
 358 1145 358 1145 565 1145 c 0,21,22
 682 1145 682 1145 771 1099 c 128,-1,23
 860 1052.99 860 1052.99 934 954 c 1,24,-1
 934 1120 l 1,25,-1
 1294 1120 l 1,26,-1
 1294 -426 l 1,27,-1
 934 -426 l 1,28,-1
 934 162 l 1,12,13
EndSplineSet
EndChar
StartChar: r
Encoding: 114 114 86
Width: 1010
Flags: W
HStem: 0 21G<172 530>
VStem: 172 358<0 730.5 936 1120>
Fore
1004 815 m 1,0,1
 957 837 957 837 910.5 847.5 c 128,-1,2
 864 858 864 858 817 858 c 0,3,4
 679 858 679 858 604.5 769.5 c 128,-1,5
 530 681 530 681 530 516 c 2,6,-1
 530 0 l 1,7,-1
 172 0 l 1,8,-1
 172 1120 l 1,9,-1
 530 1120 l 1,10,-1
 530 936 l 1,11,12
 599 1045.99 599 1045.99 688.5 1096.5 c 128,-1,13
 778 1147.01 778 1147.01 903 1147 c 0,14,15
 921 1147 921 1147 942 1145.5 c 128,-1,16
 962.904 1144.01 962.904 1144.01 1003 1139 c 1,17,-1
 1004 815 l 1,0,1
EndSplineSet
EndChar
StartChar: s
Encoding: 115 115 87
Width: 1219
Flags: W
HStem: -29 238<425.894 707.5> 430.829 265.171<477.626 709.697> 909 238<490.4 750.4>
Fore
1047 1085 m 1,0,-1
 1047 813 l 1,1,2
 932 861 932 861 825 885 c 128,-1,3
 718 909 718 909 623 909 c 0,4,5
 521 909 521 909 471.5 883.5 c 128,-1,6
 422 858 422 858 422 805 c 0,7,8
 422 762 422 762 459.5 739 c 128,-1,9
 497 716 497 716 594 705 c 2,10,-1
 657 696 l 2,11,12
 932 661 932 661 1027 581 c 128,-1,13
 1121.99 501 1121.99 501 1122 330 c 0,14,15
 1122 151.001 1122 151.001 990 61 c 128,-1,16
 858 -29 858 -29 596 -29 c 0,17,18
 485 -29 485 -29 366.5 -11.5 c 128,-1,19
 248 6 248 6 123 41 c 1,20,-1
 123 313 l 1,21,22
 229.999 261 229.999 261 342.5 235 c 128,-1,23
 455 209.001 455 209.001 571 209 c 0,24,25
 676 209 676 209 729 238 c 128,-1,26
 782 267 782 267 782 324 c 0,27,28
 782 372 782 372 745.5 395.5 c 128,-1,29
 709 419 709 419 600 432 c 2,30,-1
 537 440 l 2,31,32
 298 470 298 470 202 551 c 128,-1,33
 106 632 106 632 106 797 c 0,34,35
 106 975 106 975 228 1061 c 128,-1,36
 350 1146.99 350 1146.99 602 1147 c 0,37,38
 701 1147 701 1147 810 1132 c 128,-1,39
 919 1117 919 1117 1047 1085 c 1,0,-1
EndSplineSet
EndChar
StartChar: t
Encoding: 116 116 88
Width: 979
Flags: W
HStem: 0 256<597.4 901> 864 256<27 205 563 932>
VStem: 205 358<311 864 1120 1438>
Fore
563 1438 m 1,0,-1
 563 1120 l 1,1,-1
 932 1120 l 1,2,-1
 932 864 l 1,3,-1
 563 864 l 1,4,-1
 563 389 l 2,5,6
 563 311 563 311 594 283.5 c 128,-1,7
 625 256 625 256 717 256 c 2,8,-1
 901 256 l 1,9,-1
 901 0 l 1,10,-1
 594 0 l 2,11,12
 382 0 382 0 293.5 88.5 c 128,-1,13
 205 177 205 177 205 389 c 2,14,-1
 205 864 l 1,15,-1
 27 864 l 1,16,-1
 27 1120 l 1,17,-1
 205 1120 l 1,18,-1
 205 1438 l 1,19,-1
 563 1438 l 1,0,-1
EndSplineSet
EndChar
StartChar: u
Encoding: 117 117 89
Width: 1458
Flags: W
HStem: 0 21G<928 1286>
VStem: 160 358<355.835 1120> 928 358<0 162 368.1 1120>
Fore
160 436 m 2,0,-1
 160 1120 l 1,1,-1
 520 1120 l 1,2,-1
 520 1008 l 2,3,4
 520 917 520 917 519 779.5 c 128,-1,5
 518 642 518 642 518 596 c 0,6,7
 518 461 518 461 525 401.5 c 128,-1,8
 532 342 532 342 549 315 c 0,9,10
 571 280 571 280 606.5 261 c 128,-1,11
 642 241.999 642 241.999 688 242 c 0,12,13
 800 242 800 242 864 328 c 128,-1,14
 928 414 928 414 928 567 c 2,15,-1
 928 1120 l 1,16,-1
 1286 1120 l 1,17,-1
 1286 0 l 1,18,-1
 928 0 l 1,19,-1
 928 162 l 1,20,21
 847 64.0001 847 64.0001 756.5 17.5 c 128,-1,22
 666 -29 666 -29 557 -29 c 0,23,24
 363 -29 363 -29 261.5 90 c 128,-1,25
 159.999 208.999 159.999 208.999 160 436 c 2,0,-1
EndSplineSet
EndChar
StartChar: v
Encoding: 118 118 90
Width: 1335
Flags: W
HStem: 0 21G<471 864>
Fore
31 1120 m 1,0,-1
 389 1120 l 1,1,-1
 668 346 l 1,2,-1
 946 1120 l 1,3,-1
 1305 1120 l 1,4,-1
 864 0 l 1,5,-1
 471 0 l 1,6,-1
 31 1120 l 1,0,-1
EndSplineSet
EndChar
StartChar: w
Encoding: 119 119 91
Width: 1892
Flags: W
HStem: 0 21G<367 758 1135 1526>
Fore
72 1120 m 1,0,-1
 420 1120 l 1,1,-1
 608 348 l 1,2,-1
 797 1120 l 1,3,-1
 1096 1120 l 1,4,-1
 1284 356 l 1,5,-1
 1473 1120 l 1,6,-1
 1821 1120 l 1,7,-1
 1526 0 l 1,8,-1
 1135 0 l 1,9,-1
 946 770 l 1,10,-1
 758 0 l 1,11,-1
 367 0 l 1,12,-1
 72 1120 l 1,0,-1
EndSplineSet
EndChar
StartChar: x
Encoding: 120 120 92
Width: 1321
Flags: W
HStem: 0 21G<31 410 911 1290>
Fore
455 573 m 1,0,-1
 51 1120 l 1,1,-1
 430 1120 l 1,2,-1
 659 788 l 1,3,-1
 891 1120 l 1,4,-1
 1270 1120 l 1,5,-1
 866 575 l 1,6,-1
 1290 0 l 1,7,-1
 911 0 l 1,8,-1
 659 354 l 1,9,-1
 410 0 l 1,10,-1
 31 0 l 1,11,-1
 455 573 l 1,0,-1
EndSplineSet
EndChar
StartChar: y
Encoding: 121 121 93
Width: 1335
Flags: W
HStem: -442 235<205 408>
Fore
25 1120 m 1,0,-1
 383 1120 l 1,1,-1
 684 360 l 1,2,-1
 940 1120 l 1,3,-1
 1298 1120 l 1,4,-1
 827 -106 l 2,5,6
 756 -293.001 756 -293.001 661.5 -367.5 c 128,-1,7
 567 -442 567 -442 412 -442 c 2,8,-1
 205 -442 l 1,9,-1
 205 -207 l 1,10,-1
 317 -207 l 2,11,12
 408 -207 408 -207 449.5 -178 c 128,-1,13
 491 -149.001 491 -149.001 514 -74 c 2,14,-1
 524 -43 l 1,15,-1
 25 1120 l 1,0,-1
EndSplineSet
EndChar
StartChar: z
Encoding: 122 122 94
Width: 1192
Flags: W
HStem: 0 256<504 1094> 864 256<117 682>
Fore
117 1120 m 1,0,-1
 1094 1120 l 1,1,-1
 1094 870 l 1,2,-1
 504 256 l 1,3,-1
 1094 256 l 1,4,-1
 1094 0 l 1,5,-1
 92 0 l 1,6,-1
 92 250 l 1,7,-1
 682 864 l 1,8,-1
 117 864 l 1,9,-1
 117 1120 l 1,0,-1
EndSplineSet
EndChar
StartChar: braceleft
Encoding: 123 123 95
Width: 1458
Flags: W
HStem: -334 225<992 1202> 494 223<256 501.6> 1331 225<992 1202>
VStem: 567 340<-22 377 788 1244>
Fore
1202 -109 m 1,0,-1
 1202 -334 l 1,1,-1
 985 -334 l 2,2,3
 767 -334 767 -334 667 -246 c 128,-1,4
 567 -157.999 567 -157.999 567 35 c 2,5,-1
 567 227 l 2,6,7
 567 377 567 377 513 435.5 c 128,-1,8
 459 494 459 494 317 494 c 2,9,-1
 256 494 l 1,10,-1
 256 717 l 1,11,-1
 317 717 l 2,12,13
 459 717 459 717 513 775 c 128,-1,14
 567 833 567 833 567 983 c 2,15,-1
 567 1188 l 2,16,17
 567 1381.01 567 1381.01 667 1468.5 c 128,-1,18
 767 1555.99 767 1555.99 985 1556 c 2,19,-1
 1202 1556 l 1,20,-1
 1202 1331 l 1,21,-1
 1133 1331 l 2,22,23
 992 1331 992 1331 949.5 1287.5 c 128,-1,24
 907 1244 907 1244 907 1102 c 2,25,-1
 907 936 l 2,26,27
 907 779 907 779 862 708 c 128,-1,28
 817 637 817 637 707 612 c 1,29,30
 818 585 818 585 862.5 514 c 128,-1,31
 907 443 907 443 907 287 c 2,32,-1
 907 121 l 2,33,34
 907 -22 907 -22 949.5 -65.5 c 128,-1,35
 992 -109 992 -109 1133 -109 c 2,36,-1
 1202 -109 l 1,0,-1
EndSplineSet
EndChar
StartChar: bar
Encoding: 124 124 96
Width: 748
Flags: W
VStem: 260 227<-483 1565>
Fore
487 1565 m 1,0,-1
 487 -483 l 1,1,-1
 260 -483 l 1,2,-1
 260 1565 l 1,3,-1
 487 1565 l 1,0,-1
EndSplineSet
EndChar
StartChar: braceright
Encoding: 125 125 97
Width: 1458
Flags: W
HStem: -334 225<256 466> 494 223<956.4 1202> 1331 225<256 508>
VStem: 551 340<-64.9 377 788 1244.01>
Fore
256 -109 m 1,0,-1
 326 -109 l 2,1,2
 466 -109 466 -109 508.5 -65.5 c 128,-1,3
 551 -22 551 -22 551 121 c 2,4,-1
 551 287 l 2,5,6
 551 443 551 443 596 514 c 128,-1,7
 641 585 641 585 752 612 c 1,8,9
 641 637 641 637 596 708 c 128,-1,10
 551 779 551 779 551 936 c 2,11,-1
 551 1102 l 2,12,13
 551 1244.01 551 1244.01 508.5 1287.5 c 128,-1,14
 466 1331 466 1331 326 1331 c 2,15,-1
 256 1331 l 1,16,-1
 256 1556 l 1,17,-1
 473 1556 l 2,18,19
 691 1556 691 1556 791 1468.5 c 128,-1,20
 891 1381.01 891 1381.01 891 1188 c 2,21,-1
 891 983 l 2,22,23
 891 833 891 833 945 775 c 128,-1,24
 999 717 999 717 1141 717 c 2,25,-1
 1202 717 l 1,26,-1
 1202 494 l 1,27,-1
 1141 494 l 2,28,29
 998.995 494 998.995 494 945 435.5 c 128,-1,30
 891 377 891 377 891 227 c 2,31,-1
 891 35 l 2,32,33
 891 -158 891 -158 791 -246 c 128,-1,34
 691 -334 691 -334 473 -334 c 2,35,-1
 256 -334 l 1,36,-1
 256 -109 l 1,0,-1
EndSplineSet
EndChar
StartChar: asciitilde
Encoding: 126 126 98
Width: 1716
Flags: W
HStem: 457 233<1018.8 1242.79> 594 233<473.2 697.2>
Fore
1499 850 m 1,0,-1
 1499 606 l 1,1,2
 1392.98 525.992 1392.98 525.992 1303.5 491.5 c 128,-1,3
 1213.99 457 1213.99 457 1118 457 c 0,4,5
 1011.01 457 1011.01 457 868 515 c 0,6,7
 854 521 854 521 846 524 c 2,8,-1
 824 533 l 2,9,10
 669 594 669 594 575 594 c 0,11,12
 487 594 487 594 401 555.5 c 128,-1,13
 315 517 315 517 217 434 c 1,14,-1
 217 678 l 1,15,16
 324 758 324 758 413 792.5 c 128,-1,17
 502 827 502 827 598 827 c 0,18,19
 705 827 705 827 848 769 c 2,20,-1
 870 760 l 257,21,-1
 892 751 l 2,22,23
 1047 690 1047 690 1141 690 c 0,24,25
 1227.01 690 1227.01 690 1311.5 727.5 c 128,-1,26
 1395.99 765 1395.99 765 1499 850 c 1,0,-1
EndSplineSet
EndChar
StartChar: exclamdown
Encoding: 161 161 100
Width: 934
Flags: W
HStem: 0 21G<287 647> 1137 356<287 647>
VStem: 287 360<0 623.357 1137 1493>
Fore
287 0 m 1,0,-1
 287 573 l 1,1,-1
 338 991 l 1,2,-1
 596 991 l 1,3,-1
 647 573 l 1,4,-1
 647 0 l 1,5,-1
 287 0 l 1,0,-1
287 1137 m 1,6,-1
 287 1493 l 1,7,-1
 647 1493 l 1,8,-1
 647 1137 l 1,9,-1
 287 1137 l 1,6,-1
EndSplineSet
EndChar
StartChar: cent
Encoding: 162 162 101
Width: 1425
Flags: W
VStem: 174 373<417.3 699.4> 702 162<-313 -29 260 858 1145 1432>
Fore
702 858 m 1,0,1
 624 814 624 814 585.5 740.5 c 128,-1,2
 547 667 547 667 547 559 c 0,3,4
 547 450 547 450 585.5 376 c 128,-1,5
 624 302 624 302 702 260 c 1,6,-1
 702 858 l 1,0,1
1161 1085 m 1,7,-1
 1161 793 l 1,8,9
 1087.01 841 1087.01 841 1015.5 866 c 128,-1,10
 944 891 944 891 879 891 c 2,11,-1
 864 891 l 1,12,-1
 864 228 l 1,13,14
 953 229.001 953 229.001 1028.5 254 c 128,-1,15
 1103.99 279 1103.99 279 1161 326 c 1,16,-1
 1161 33 l 1,17,18
 1078.01 3 1078.01 3 1005 -13 c 128,-1,19
 932 -29 932 -29 874 -29 c 2,20,-1
 864 -29 l 1,21,-1
 864 -313 l 1,22,-1
 702 -313 l 1,23,-1
 702 -25 l 1,24,25
 440 15 440 15 307 166 c 128,-1,26
 173.999 317 173.999 317 174 575 c 0,27,28
 174 819 174 819 309 964.5 c 128,-1,29
 444 1110 444 1110 702 1145 c 1,30,-1
 702 1432 l 1,31,-1
 864 1432 l 1,32,-1
 865 1145 l 1,33,34
 936 1142 936 1142 1009.5 1127.5 c 128,-1,35
 1083.06 1112.98 1083.06 1112.98 1161 1085 c 1,7,-1
EndSplineSet
EndChar
StartChar: sterling
Encoding: 163 163 102
Width: 1425
Flags: W
HStem: 0 266<125 352 717 1255> 592 239<158 352 717 1090> 1257 263<794.6 1040.84>
VStem: 352 365<266 592 831 1171.29>
Fore
1243 1466 m 1,0,-1
 1243 1180 l 1,1,2
 1172.99 1219 1172.99 1219 1099 1238 c 128,-1,3
 1025 1257 1025 1257 948 1257 c 0,4,5
 830 1257 830 1257 773.5 1194.5 c 128,-1,6
 717 1131.99 717 1131.99 717 1001 c 2,7,-1
 717 831 l 1,8,-1
 1090 831 l 1,9,-1
 1090 592 l 1,10,-1
 717 592 l 1,11,-1
 717 266 l 1,12,-1
 1255 266 l 1,13,-1
 1255 0 l 1,14,-1
 125 0 l 1,15,-1
 125 266 l 1,16,-1
 352 266 l 1,17,-1
 352 592 l 1,18,-1
 158 592 l 1,19,-1
 158 831 l 1,20,-1
 352 831 l 1,21,-1
 352 1001 l 2,22,23
 352 1272.01 352 1272.01 479 1396 c 128,-1,24
 606 1520.01 606 1520.01 881 1520 c 0,25,26
 973.005 1520 973.005 1520 1063.5 1506.5 c 128,-1,27
 1154.01 1493 1154.01 1493 1243 1466 c 1,0,-1
EndSplineSet
EndChar
StartChar: currency
Encoding: 164 164 103
Width: 1303
Flags: W
HStem: 213 209<554.029 747.988> 860 209<557.43 747.331>
VStem: 225 209<543.449 736.471> 872 209<543.957 733.697>
Fore
434 268 m 1,0,-1
 227 61 l 1,1,-1
 74 215 l 1,2,-1
 281 422 l 1,3,4
 253 471 253 471 239 524.5 c 128,-1,5
 225.001 578 225.001 578 225 641 c 256,6,7
 225 704 225 704 240 758 c 128,-1,8
 255 812 255 812 285 858 c 1,9,-1
 76 1063 l 1,10,-1
 229 1217 l 1,11,-1
 436 1010 l 1,12,13
 484 1040 484 1040 538 1054.5 c 128,-1,14
 592 1069.01 592 1069.01 653 1069 c 0,15,16
 707 1069 707 1069 761 1055.5 c 128,-1,17
 815 1042 815 1042 872 1014 c 1,18,-1
 1079 1221 l 1,19,-1
 1231 1067 l 1,20,-1
 1024 860 l 1,21,22
 1053 805 1053 805 1067 750 c 128,-1,23
 1080.99 695 1080.99 695 1081 641 c 0,24,25
 1081 578 1081 578 1066.5 525.5 c 128,-1,26
 1051.99 473 1051.99 473 1022 426 c 1,27,-1
 1229 219 l 1,28,-1
 1075 66 l 1,29,-1
 868 272 l 1,30,31
 822 242 822 242 769 227.5 c 128,-1,32
 716 212.999 716 212.999 653 213 c 0,33,34
 595 213 595 213 541 226.5 c 128,-1,35
 487 240 487 240 434 268 c 1,0,-1
653 422 m 0,36,37
 744 422 744 422 808 485.5 c 128,-1,38
 872 549 872 549 872 641 c 256,39,40
 872 733 872 733 808.5 796.5 c 128,-1,41
 745 860 745 860 653 860 c 0,42,43
 562 860 562 860 498 796.5 c 128,-1,44
 434 733 434 733 434 641 c 0,45,46
 434 548 434 548 497 485 c 128,-1,47
 560 422 560 422 653 422 c 0,36,37
EndSplineSet
EndChar
StartChar: yen
Encoding: 165 165 104
Width: 1425
Flags: W
HStem: 0 21G<522 903> 416 194<68 522 903 1358> 762 192<68 360 1065 1358>
VStem: 522 381<0 416 610 676>
Fore
1358 416 m 1,0,-1
 903 416 l 1,1,-1
 903 0 l 1,2,-1
 522 0 l 1,3,-1
 522 416 l 1,4,-1
 68 416 l 1,5,-1
 68 610 l 1,6,-1
 522 610 l 1,7,-1
 522 676 l 1,8,-1
 473 762 l 1,9,-1
 68 762 l 1,10,-1
 68 954 l 1,11,-1
 360 954 l 1,12,-1
 25 1493 l 1,13,-1
 424 1493 l 1,14,-1
 713 1032 l 1,15,-1
 1001 1493 l 1,16,-1
 1401 1493 l 1,17,-1
 1065 954 l 1,18,-1
 1358 954 l 1,19,-1
 1358 762 l 1,20,-1
 952 762 l 1,21,-1
 903 676 l 1,22,-1
 903 610 l 1,23,-1
 1358 610 l 1,24,-1
 1358 416 l 1,0,-1
EndSplineSet
EndChar
StartChar: brokenbar
Encoding: 166 166 105
Width: 748
Flags: W
VStem: 260 227<-350 408 674 1432>
Fore
487 1432 m 1,0,-1
 487 674 l 1,1,-1
 260 674 l 1,2,-1
 260 1432 l 1,3,-1
 487 1432 l 1,0,-1
487 408 m 1,4,-1
 487 -350 l 1,5,-1
 260 -350 l 1,6,-1
 260 408 l 1,7,-1
 487 408 l 1,4,-1
EndSplineSet
EndChar
StartChar: section
Encoding: 167 167 106
Width: 1024
Flags: W
HStem: -195 211<377.794 553.5> 1313 207<473.5 660.6>
Fore
885 1462 m 1,0,-1
 885 1235 l 1,1,2
 786 1274 786 1274 707 1293.5 c 128,-1,3
 628 1313 628 1313 571 1313 c 0,4,5
 496 1313 496 1313 458 1288.5 c 128,-1,6
 420 1264.01 420 1264.01 420 1217 c 0,7,8
 420 1150 420 1150 608 1071 c 0,9,10
 634 1060 634 1060 647 1055 c 0,11,12
 857 966 857 966 936.5 879.5 c 128,-1,13
 1016 793 1016 793 1016 668 c 0,14,15
 1016 551 1016 551 959.5 471.5 c 128,-1,16
 903 392 903 392 786 344 c 1,17,18
 863 303 863 303 900.5 246.5 c 128,-1,19
 938 189.999 938 189.999 938 117 c 0,20,21
 938 -28 938 -28 817 -111.5 c 128,-1,22
 696 -195.001 696 -195.001 483 -195 c 0,23,24
 398 -195 398 -195 307.5 -180.5 c 128,-1,25
 217.001 -165.999 217.001 -165.999 115 -137 c 1,26,-1
 115 100 l 1,27,28
 230.001 59.0001 230.001 59.0001 321 37.5 c 128,-1,29
 412 16 412 16 469 16 c 0,30,31
 534 16 534 16 573 41 c 128,-1,32
 612 66 612 66 612 106 c 0,33,34
 612 176.001 612 176.001 432 250 c 0,35,36
 396 264 396 264 377 272 c 0,37,38
 174.001 359 174.001 359 94 448.5 c 128,-1,39
 14 538 14 538 14 668 c 0,40,41
 14 772 14 772 69.5 849 c 128,-1,42
 125 926 125 926 238 977 c 1,43,44
 163 1028 163 1028 130.5 1083.5 c 128,-1,45
 97.9995 1139 97.9995 1139 98 1214 c 0,46,47
 98 1358 98 1358 212.5 1439 c 128,-1,48
 327 1520 327 1520 528 1520 c 0,49,50
 612 1520 612 1520 702 1505.5 c 128,-1,51
 792 1490.99 792 1490.99 885 1462 c 1,0,-1
434 856 m 1,52,53
 366 828 366 828 332.5 790 c 128,-1,54
 299 752 299 752 299 702 c 0,55,56
 299 635 299 635 360.5 586 c 128,-1,57
 422 537 422 537 604 471 c 1,58,59
 669 494 669 494 704 533.5 c 128,-1,60
 739 573 739 573 739 625 c 0,61,62
 739 692 739 692 670 745 c 128,-1,63
 601 798 601 798 434 856 c 1,52,53
EndSplineSet
EndChar
StartChar: dieresis
Encoding: 168 168 107
Width: 1024
Flags: W
HStem: 1339 246<197 432 592 827>
VStem: 197 235<1339 1585> 592 235<1339 1585>
Fore
197 1585 m 1,0,-1
 432 1585 l 1,1,-1
 432 1339 l 1,2,-1
 197 1339 l 1,3,-1
 197 1585 l 1,0,-1
592 1585 m 1,4,-1
 827 1585 l 1,5,-1
 827 1339 l 1,6,-1
 592 1339 l 1,7,-1
 592 1585 l 1,4,-1
EndSplineSet
EndChar
StartChar: copyright
Encoding: 169 169 108
Width: 2048
Flags: W
HStem: 0 154<866.7 1183.9> 313 187<949.8 1183.21> 983 186<951.107 1183.03> 1331 154<866.7 1181.3>
VStem: 283 151<583.7 899.6> 600 258<591.5 889.2> 1614 151<583.7 899.6>
Fore
1323 1126 m 1,0,-1
 1323 911 l 1,1,2
 1266 948 1266 948 1210.5 965.5 c 128,-1,3
 1155 983 1155 983 1098 983 c 0,4,5
 985.005 983 985.005 983 921.5 919 c 128,-1,6
 858 855 858 855 858 741 c 0,7,8
 858 626 858 626 921 563 c 128,-1,9
 984 500 984 500 1098 500 c 0,10,11
 1162.01 500 1162.01 500 1219.5 518 c 128,-1,12
 1276.99 536 1276.99 536 1323 571 c 1,13,-1
 1323 358 l 1,14,15
 1258.01 336 1258.01 336 1192.5 324.5 c 128,-1,16
 1126.99 313 1126.99 313 1065 313 c 0,17,18
 854 313 854 313 727 430 c 128,-1,19
 600 547 600 547 600 741 c 0,20,21
 600 936 600 936 727 1052.5 c 128,-1,22
 854 1169.01 854 1169.01 1065 1169 c 0,23,24
 1133.99 1169 1133.99 1169 1198 1158.5 c 128,-1,25
 1262.01 1148 1262.01 1148 1323 1126 c 1,0,-1
1024 1331 m 256,26,27
 903 1331 903 1331 799 1287.5 c 128,-1,28
 695 1244 695 1244 608 1157 c 256,29,30
 521 1070 521 1070 477.5 966.5 c 128,-1,31
 434 863 434 863 434 741 c 0,32,33
 434 620 434 620 477.5 516.5 c 128,-1,34
 521 413 521 413 608 326 c 0,35,36
 694 240 694 240 798.5 197 c 128,-1,37
 903 153.999 903 153.999 1024 154 c 0,38,39
 1147 154 1147 154 1250 196.5 c 128,-1,40
 1353.01 238.999 1353.01 238.999 1440 326 c 256,41,42
 1527 413 1527 413 1570.5 516.5 c 128,-1,43
 1614 620 1614 620 1614 741 c 0,44,45
 1614 863 1614 863 1570.5 966.5 c 128,-1,46
 1527 1070 1527 1070 1440 1157 c 0,47,48
 1351.99 1245.01 1351.99 1245.01 1248.5 1288 c 128,-1,49
 1145 1331.01 1145 1331.01 1024 1331 c 256,26,27
1024 1485 m 256,50,51
 1175.99 1485 1175.99 1485 1307.5 1430 c 128,-1,52
 1439.01 1374.99 1439.01 1374.99 1548 1266 c 256,53,54
 1657.01 1156.99 1657.01 1156.99 1711 1026 c 128,-1,55
 1765 895 1765 895 1765 741 c 0,56,57
 1765 589 1765 589 1711 458.5 c 128,-1,58
 1657 328 1657 328 1548 219 c 256,59,60
 1438.99 109.999 1438.99 109.999 1307.5 55 c 128,-1,61
 1175.99 -4.95911e-05 1175.99 -4.95911e-05 1024 0 c 256,62,63
 872 0 872 0 740.5 55 c 128,-1,64
 609 110 609 110 500 219 c 256,65,66
 391 328 391 328 337 458.5 c 128,-1,67
 283 589 283 589 283 741 c 0,68,69
 283 895 283 895 337 1026 c 128,-1,70
 391 1156.99 391 1156.99 500 1266 c 256,71,72
 609 1375.01 609 1375.01 740.5 1430 c 128,-1,73
 872 1485.01 872 1485.01 1024 1485 c 256,50,51
EndSplineSet
EndChar
StartChar: ordfeminine
Encoding: 170 170 109
Width: 1155
Flags: W
HStem: 373 200<176 989> 696 162<454.6 589.2> 1081 138<470.1 731> 1354 166<427.966 667.5>
VStem: 158 248<900.7 1047.61> 733 268<945.9 1081 1219 1294.99> 756 245<717 844>
Fore
176 573 m 1,0,-1
 989 573 l 1,1,-1
 989 373 l 1,2,-1
 176 373 l 1,3,-1
 176 573 l 1,0,-1
643 1081 m 2,4,5
 510 1081 510 1081 458 1055 c 128,-1,6
 406 1029.01 406 1029.01 406 967 c 0,7,8
 406 916 406 916 439 887 c 128,-1,9
 472 858 472 858 530 858 c 0,10,11
 619 858 619 858 676 915 c 128,-1,12
 733 972 733 972 733 1059 c 2,13,-1
 733 1081 l 1,14,-1
 643 1081 l 2,4,5
1001 1165 m 2,15,-1
 1001 717 l 1,16,-1
 756 717 l 1,17,-1
 756 844 l 1,18,19
 701 768 701 768 631 732 c 128,-1,20
 561 696 561 696 467 696 c 0,21,22
 322 696 322 696 240 763 c 128,-1,23
 157.999 830 157.999 830 158 946 c 0,24,25
 158 1087 158 1087 263 1153 c 128,-1,26
 368 1219 368 1219 594 1219 c 2,27,-1
 731 1219 l 1,28,-1
 731 1239 l 2,29,30
 731 1294.99 731 1294.99 686.5 1324.5 c 128,-1,31
 642 1354.01 642 1354.01 557 1354 c 0,32,33
 470 1354 470 1354 387 1336.5 c 128,-1,34
 304 1318.99 304 1318.99 225 1284 c 1,35,-1
 225 1464 l 1,36,37
 317 1492.01 317 1492.01 401.5 1506 c 128,-1,38
 486 1519.99 486 1519.99 561 1520 c 0,39,40
 785 1520 785 1520 893 1432.5 c 128,-1,41
 1001 1345.01 1001 1345.01 1001 1165 c 2,15,-1
EndSplineSet
EndChar
StartChar: guillemotleft
Encoding: 171 171 110
Width: 1323
Flags: W
HStem: 137 926<651 651>
VStem: 158 972<506 1063>
Fore
651 1063 m 1,0,-1
 651 821 l 1,1,-1
 358 600 l 1,2,-1
 651 379 l 1,3,-1
 651 137 l 1,4,-1
 158 506 l 1,5,-1
 158 692 l 1,6,-1
 651 1063 l 1,0,-1
1130 1063 m 1,7,-1
 1130 821 l 1,8,-1
 838 600 l 1,9,-1
 1130 379 l 1,10,-1
 1130 137 l 1,11,-1
 637 506 l 1,12,-1
 637 692 l 1,13,-1
 1130 1063 l 1,7,-1
EndSplineSet
EndChar
StartChar: logicalnot
Encoding: 172 172 111
Width: 1716
Flags: W
HStem: 672 237<217 1264>
VStem: 1264 235<287 672>
Fore
217 909 m 1,0,-1
 1499 909 l 1,1,-1
 1499 287 l 1,2,-1
 1264 287 l 1,3,-1
 1264 672 l 1,4,-1
 217 672 l 1,5,-1
 217 909 l 1,0,-1
EndSplineSet
EndChar
StartChar: uni00AD
Encoding: 173 173 112
Width: 850
Flags: W
HStem: 444 291<111 739>
Fore
111 735 m 1,0,-1
 739 735 l 1,1,-1
 739 444 l 1,2,-1
 111 444 l 1,3,-1
 111 735 l 1,0,-1
EndSplineSet
EndChar
StartChar: registered
Encoding: 174 174 113
Width: 2048
Flags: W
HStem: 0 154<866.7 1183.9> 1036 138<932 1070.99> 1331 154<866.7 1181.3>
VStem: 283 151<583.7 899.6> 719 213<338 694 829 1036> 1124 230<866.4 1001.6> 1614 151<583.7 899.6>
Fore
1024 1331 m 256,0,1
 903 1331 903 1331 799 1287.5 c 128,-1,2
 695 1244 695 1244 608 1157 c 256,3,4
 521 1070 521 1070 477.5 966.5 c 128,-1,5
 434 863 434 863 434 741 c 0,6,7
 434 620 434 620 477.5 516.5 c 128,-1,8
 521 413 521 413 608 326 c 0,9,10
 694 240 694 240 798.5 197 c 128,-1,11
 903 153.999 903 153.999 1024 154 c 0,12,13
 1147 154 1147 154 1250 196.5 c 128,-1,14
 1353.01 238.999 1353.01 238.999 1440 326 c 256,15,16
 1527 413 1527 413 1570.5 516.5 c 128,-1,17
 1614 620 1614 620 1614 741 c 0,18,19
 1614 863 1614 863 1570.5 966.5 c 128,-1,20
 1527 1070 1527 1070 1440 1157 c 0,21,22
 1351.99 1245.01 1351.99 1245.01 1248.5 1288 c 128,-1,23
 1145 1331.01 1145 1331.01 1024 1331 c 256,0,1
967 1036 m 2,24,-1
 932 1036 l 1,25,-1
 932 829 l 1,26,-1
 967 829 l 2,27,28
 1045 829 1045 829 1084.5 855.5 c 128,-1,29
 1123.99 882 1123.99 882 1124 934 c 256,30,31
 1124 986 1124 986 1085.5 1011 c 128,-1,32
 1046.99 1036.01 1046.99 1036.01 967 1036 c 2,24,-1
1004 1174 m 2,33,34
 1179.99 1174 1179.99 1174 1267 1114.5 c 128,-1,35
 1354 1054.99 1354 1054.99 1354 934 c 0,36,37
 1354 848 1354 848 1301.5 792 c 128,-1,38
 1249 736 1249 736 1153 719 c 1,39,40
 1193.99 697 1193.99 697 1229.5 657 c 128,-1,41
 1265.01 617 1265.01 617 1294 559 c 2,42,-1
 1405 338 l 1,43,-1
 1176 338 l 1,44,-1
 1069 551 l 2,45,46
 1031.02 628.974 1031.02 628.974 1002 661.5 c 128,-1,47
 973.001 694 973.001 694 944 694 c 2,48,-1
 932 694 l 1,49,-1
 932 338 l 1,50,-1
 719 338 l 1,51,-1
 719 1174 l 1,52,-1
 1004 1174 l 2,33,34
1024 1485 m 256,53,54
 1175.99 1485 1175.99 1485 1307.5 1430 c 128,-1,55
 1439.01 1374.99 1439.01 1374.99 1548 1266 c 256,56,57
 1657.01 1156.99 1657.01 1156.99 1711 1026 c 128,-1,58
 1765 895 1765 895 1765 741 c 0,59,60
 1765 589 1765 589 1711 458.5 c 128,-1,61
 1657 328 1657 328 1548 219 c 256,62,63
 1438.99 109.999 1438.99 109.999 1307.5 55 c 128,-1,64
 1175.99 -4.95911e-05 1175.99 -4.95911e-05 1024 0 c 256,65,66
 872 0 872 0 740.5 55 c 128,-1,67
 609 110 609 110 500 219 c 256,68,69
 391 328 391 328 337 458.5 c 128,-1,70
 283 589 283 589 283 741 c 0,71,72
 283 895 283 895 337 1026 c 128,-1,73
 391 1156.99 391 1156.99 500 1266 c 256,74,75
 609 1375.01 609 1375.01 740.5 1430 c 128,-1,76
 872 1485.01 872 1485.01 1024 1485 c 256,53,54
EndSplineSet
EndChar
StartChar: macron
Encoding: 175 175 114
Width: 1024
Flags: W
HStem: 1368 188<197 827>
Fore
197 1556 m 1,0,-1
 827 1556 l 1,1,-1
 827 1368 l 1,2,-1
 197 1368 l 1,3,-1
 197 1556 l 1,0,-1
EndSplineSet
EndChar
StartChar: degree
Encoding: 176 176 115
Width: 1024
Flags: W
HStem: 868 162<417.1 598.4> 1372 162<418.4 597.8>
VStem: 178 162<1106.4 1293.61> 684 160<1112.89 1288.4>
Fore
512 1372 m 0,0,1
 440 1372 440 1372 390 1322 c 128,-1,2
 340 1272.01 340 1272.01 340 1200 c 256,3,4
 340 1128 340 1128 389.5 1079 c 128,-1,5
 439 1029.99 439 1029.99 512 1030 c 0,6,7
 584 1030 584 1030 634 1079.5 c 128,-1,8
 684 1129 684 1129 684 1200 c 0,9,10
 684 1272 684 1272 633.5 1322 c 128,-1,11
 583 1371.99 583 1371.99 512 1372 c 0,0,1
512 1534 m 0,12,13
 578 1534 578 1534 639 1508.5 c 128,-1,14
 700 1483 700 1483 748 1436 c 0,15,16
 795 1388 795 1388 819.5 1328 c 128,-1,17
 844 1268 844 1268 844 1200 c 0,18,19
 844 1132.99 844 1132.99 819.5 1072.5 c 128,-1,20
 795 1012.01 795 1012.01 750 967 c 0,21,22
 702 919 702 919 640 893.5 c 128,-1,23
 578 868 578 868 510 868 c 0,24,25
 369 868 369 868 273.5 963.5 c 128,-1,26
 177.999 1059.01 177.999 1059.01 178 1200 c 256,27,28
 178 1341 178 1341 274.5 1437.5 c 128,-1,29
 371 1533.99 371 1533.99 512 1534 c 0,12,13
EndSplineSet
EndChar
StartChar: plusminus
Encoding: 177 177 116
Width: 1716
Flags: W
HStem: 0 238<217 1499> 694 236<217 739 977 1499>
VStem: 739 238<340 694 930 1284>
Fore
977 1284 m 1,0,-1
 977 930 l 1,1,-1
 1499 930 l 1,2,-1
 1499 694 l 1,3,-1
 977 694 l 1,4,-1
 977 340 l 1,5,-1
 739 340 l 1,6,-1
 739 694 l 1,7,-1
 217 694 l 1,8,-1
 217 930 l 1,9,-1
 739 930 l 1,10,-1
 739 1284 l 1,11,-1
 977 1284 l 1,0,-1
217 238 m 1,12,-1
 1499 238 l 1,13,-1
 1499 0 l 1,14,-1
 217 0 l 1,15,-1
 217 238 l 1,12,-1
EndSplineSet
EndChar
StartChar: uni00B2
Encoding: 178 178 117
Width: 897
Flags: W
HStem: 668 168<412 782> 1372 148<316.771 479.7>
Fore
412 836 m 1,0,-1
 782 836 l 1,1,-1
 782 668 l 1,2,-1
 109 668 l 1,3,-1
 109 821 l 1,4,-1
 422 1087 l 2,5,6
 483 1139.99 483 1139.99 509 1180 c 128,-1,7
 535 1220 535 1220 535 1260 c 0,8,9
 535 1309.99 535 1309.99 498.5 1341 c 128,-1,10
 462 1372.01 462 1372.01 403 1372 c 0,11,12
 341 1372 341 1372 270 1349.5 c 128,-1,13
 199.001 1327 199.001 1327 115 1280 c 1,14,-1
 115 1466 l 1,15,16
 202 1493 202 1493 283.5 1506.5 c 128,-1,17
 365 1520 365 1520 440 1520 c 0,18,19
 598 1520 598 1520 688 1455.5 c 128,-1,20
 778 1391 778 1391 778 1280 c 0,21,22
 778 1208 778 1208 742.5 1147.5 c 128,-1,23
 707 1087.01 707 1087.01 606 1001 c 2,24,-1
 412 836 l 1,0,-1
EndSplineSet
EndChar
StartChar: uni00B3
Encoding: 179 179 118
Width: 897
Flags: W
HStem: 653 146<254.605 467.5> 1047 137<248 459.4> 1372 148<265.588 466>
VStem: 520 244<1215.71 1340.5> 543 243<845.3 1005.2>
Fore
592 1120 m 1,0,1
 684 1102 684 1102 735 1047 c 128,-1,2
 786 991.995 786 991.995 786 911 c 0,3,4
 786 782 786 782 687 717.5 c 128,-1,5
 588 653 588 653 387 653 c 0,6,7
 306 653 306 653 232 664.5 c 128,-1,8
 158.001 676 158.001 676 90 698 c 1,9,-1
 90 872 l 1,10,11
 156 836 156 836 220 817.5 c 128,-1,12
 284 799 284 799 344 799 c 0,13,14
 439 799 439 799 491 831 c 128,-1,15
 543 863 543 863 543 922 c 0,16,17
 543 986 543 986 489.5 1016.5 c 128,-1,18
 436 1046.99 436 1046.99 322 1047 c 2,19,-1
 248 1047 l 1,20,-1
 248 1184 l 1,21,-1
 332 1184 l 2,22,23
 430 1184 430 1184 475 1207.5 c 128,-1,24
 520 1231.01 520 1231.01 520 1282 c 0,25,26
 520 1327 520 1327 481 1349.5 c 128,-1,27
 442 1372 442 1372 362 1372 c 0,28,29
 310 1372 310 1372 248.5 1359 c 128,-1,30
 187 1345.99 187 1345.99 117 1319 c 1,31,-1
 117 1485 l 1,32,33
 182.034 1502 182.034 1502 257.5 1511 c 128,-1,34
 333 1520 333 1520 420 1520 c 0,35,36
 587 1520 587 1520 675.5 1464 c 128,-1,37
 764 1408.01 764 1408.01 764 1303 c 0,38,39
 764 1234 764 1234 719 1186 c 128,-1,40
 674 1138 674 1138 592 1120 c 1,0,1
EndSplineSet
EndChar
StartChar: acute
Encoding: 180 180 119
Width: 1024
Flags: W
HStem: 1262 376<561 647>
VStem: 365 565<1262 1638>
Fore
647 1638 m 1,0,-1
 930 1638 l 1,1,-1
 561 1262 l 1,2,-1
 365 1262 l 1,3,-1
 647 1638 l 1,0,-1
EndSplineSet
EndChar
StartChar: mu
Encoding: 181 181 120
Width: 1507
Flags: W
HStem: -29 269<646.8 858.7>
VStem: 174 361<-428 66 353 1120> 940 360<318.2 1120>
Fore
174 -428 m 1,0,-1
 174 1120 l 1,1,-1
 535 1120 l 1,2,-1
 535 469 l 2,3,4
 535 353 535 353 585 296.5 c 128,-1,5
 635 240 635 240 737 240 c 0,6,7
 840 240 840 240 890 296.5 c 128,-1,8
 940 353 940 353 940 469 c 2,9,-1
 940 1120 l 1,10,-1
 1300 1120 l 1,11,-1
 1300 371 l 2,12,13
 1300 300 1300 300 1316.5 272 c 128,-1,14
 1333 243.999 1333 243.999 1372 244 c 0,15,16
 1390 244 1390 244 1406.5 249 c 128,-1,17
 1422.99 253.996 1422.99 253.996 1442 266 c 1,18,-1
 1442 16 l 1,19,20
 1389.01 -6.99748 1389.01 -6.99748 1342.5 -18 c 128,-1,21
 1296 -29 1296 -29 1251 -29 c 0,22,23
 1162.01 -29 1162.01 -29 1105.5 8.5 c 128,-1,24
 1048.99 46 1048.99 46 1014 129 c 1,25,26
 967 49.9999 967 49.9999 899.5 10.5 c 128,-1,27
 832 -29 832 -29 743 -29 c 0,28,29
 669 -29 669 -29 617 -5.5 c 128,-1,30
 565 18 565 18 535 66 c 1,31,-1
 535 -428 l 1,32,-1
 174 -428 l 1,0,-1
EndSplineSet
EndChar
StartChar: paragraph
Encoding: 182 182 121
Width: 1303
Flags: W
HStem: 1346 147<745 934>
VStem: 555 190<-197 649> 934 190<-197 1346>
Fore
604 1493 m 2,0,-1
 1124 1493 l 1,1,-1
 1124 -197 l 1,2,-1
 934 -197 l 1,3,-1
 934 1346 l 1,4,-1
 745 1346 l 1,5,-1
 745 -197 l 1,6,-1
 555 -197 l 1,7,-1
 555 649 l 1,8,9
 351 674 351 674 240 783.5 c 128,-1,10
 129 893 129 893 129 1071 c 0,11,12
 129 1261.01 129 1261.01 259 1377 c 128,-1,13
 389 1492.99 389 1492.99 604 1493 c 2,0,-1
EndSplineSet
EndChar
StartChar: periodcentered
Encoding: 183 183 122
Width: 778
Flags: W
HStem: 518 387<209 569>
VStem: 209 360<518 905>
Fore
209 905 m 1,0,-1
 569 905 l 1,1,-1
 569 518 l 1,2,-1
 209 518 l 1,3,-1
 209 905 l 1,0,-1
EndSplineSet
EndChar
StartChar: cedilla
Encoding: 184 184 123
Width: 1024
Flags: W
HStem: -401 147<342.819 503.4> -20 20G<463 602>
Fore
602 0 m 1,0,1
 660 -62 660 -62 687.5 -115 c 128,-1,2
 715 -167.999 715 -167.999 715 -215 c 0,3,4
 715 -310 715 -310 653.5 -355.5 c 128,-1,5
 592 -401 592 -401 465 -401 c 0,6,7
 417 -401 417 -401 366 -394.5 c 128,-1,8
 315 -388 315 -388 263 -375 c 1,9,-1
 262 -223 l 1,10,11
 312 -239.001 312 -239.001 353.5 -246.5 c 128,-1,12
 395 -254 395 -254 428 -254 c 0,13,14
 486 -254 486 -254 518.5 -231 c 128,-1,15
 551 -208.001 551 -208.001 551 -168 c 0,16,17
 551 -142.001 551 -142.001 529.5 -101 c 128,-1,18
 508 -60.0001 508 -60.0001 463 0 c 1,19,-1
 602 0 l 1,0,1
EndSplineSet
EndChar
StartChar: uni0E01
Encoding: 3585 3585 124
Width: 1470
Flags: MW
HStem: 0 21G<170 481 998 1309> 984 241<691.5 794.5>
VStem: 170 311<0 554.8> 998 311<0 931.2>
Fore
1309 812 m 2,0,-1
 1309 0 l 1,1,-1
 998 0 l 1,2,-1
 998 796 l 2,3,4
 998 900 998 900 927.5 942 c 128,-1,5
 857 984 857 984 732 984 c 4,6,7
 651 984 651 984 581 974.5 c 128,-1,8
 511 965 511 965 453 938 c 1,9,-1
 644 847 l 1,10,-1
 644 651 l 1,11,12
 565 621 565 621 523 576.5 c 128,-1,13
 481 532 481 532 481 456 c 2,14,-1
 481 0 l 1,15,-1
 170 0 l 1,16,-1
 170 456 l 2,17,18
 170 536 170 536 211 615.5 c 128,-1,19
 252 695 252 695 324 735 c 1,20,-1
 139 812 l 1,21,-1
 139 1088 l 1,22,23
 322 1164 322 1164 464.5 1194.5 c 128,-1,24
 607 1225 607 1225 728 1225 c 4,25,26
 1037 1225 1037 1225 1173 1121.5 c 128,-1,27
 1309 1018 1309 1018 1309 812 c 2,0,-1
EndSplineSet
EndChar
StartChar: uni0E02
Encoding: 3586 3586 125
Width: 1380
Flags: HW
HStem: 0 222<574 878> 712 136<216.4 300.047> 997 218<221.4 359>
VStem: 39 144<883.421 964.3> 264 310<222 457.388> 878 312<190.8 1205>
Fore
263 997 m 28,0,1
 231 998 231 998 207.5 976.5 c 132,-1,2
 184 955 184 955 183 924 c 132,-1,3
 182 893 182 893 204 871 c 132,-1,4
 226 849 226 849 258 848 c 4,5,6
 289 847 289 847 312 868.5 c 132,-1,7
 335 890 335 890 336 921 c 132,-1,8
 337 952 337 952 315.5 974 c 132,-1,9
 294 996 294 996 263 997 c 28,0,1
455 1009 m 5,10,11
 485.761 969.899 485.761 969.899 485.871 913 c 4,0,0
 486 847 486 847 427.625 779.5 c 132,-1,12
 369.25 712 369.25 712 260 712 c 4,13,14
 166 712 166 712 102 775 c 132,-1,15
 38 838 38 838 39 929 c 4,16,17
 39 1055 39 1055 137.5 1133.5 c 132,-1,18
 236 1212 236 1212 359 1215 c 4,19,20
 522.393 1218.79 522.393 1218.79 640.196 1129 c 132,-1,21
 758 1039.21 758 1039.21 758 864 c 4,22,23
 758 824.079 758 824.079 743.842 776.39 c 132,-1,24
 729.684 728.701 729.684 728.701 668.842 631.85 c 132,-1,25
 608 535 608 535 591 481 c 132,-1,26
 574 427 574 427 574 361 c 6,27,-1
 574 222 l 1,28,-1
 770 222 l 2,29,30
 878 222 878 222 878 326 c 2,31,-1
 878 1206 l 1,32,-1
 1190 1206 l 1,33,-1
 1190 320 l 2,34,35
 1190 0 1190 0 768 0 c 2,36,-1
 264 0 l 1,37,-1
 264 406 l 6,38,39
 264 465 264 465 286.194 524.356 c 132,-1,40
 308.388 583.713 308.388 583.713 388.567 668.883 c 132,-1,41
 468.745 754.054 468.745 754.054 495.066 803.341 c 132,-1,42
 521.387 852.627 521.387 852.627 521.381 895 c 4,0,0
 521.37 970.423 521.37 970.423 455 1009 c 5,10,11
EndSplineSet
EndChar
StartChar: uni0E03
Encoding: 3587 3587 126
Width: 1530
Flags: W
HStem: 0 222<721 1058.4> 605 135.956<216.7 299.047> 1186 20G<1026 1336>
VStem: 38 144<776.421 857.3> 411 310<222 457.388> 660 254<835.415 975.527> 1026 310<190.8 1206>
Fore
1336 319 m 2,0,1
 1336 0 1336 0 924 0 c 2,2,-1
 411 0 l 1,3,-1
 411 406 l 6,4,5
 411 525.843 411 525.843 464.355 613.801 c 132,-1,6
 517.711 701.76 517.711 701.76 587.825 762.881 c 132,-1,7
 657.939 824.001 657.939 824.001 660 910 c 260,8,9
 661.371 954.916 661.371 954.916 645.663 977.789 c 132,-1,10
 629.956 1000.66 629.956 1000.66 593 1008 c 5,11,-1
 490 970 l 5,12,-1
 330 1051 l 5,13,-1
 284 1032 l 5,14,15
 366.639 1020 366.639 1020 419.368 962.166 c 132,-1,16
 472.098 904.332 472.098 904.332 479 812 c 4,17,18
 485 733 485 733 425.5 669 c 132,-1,19
 366 605 366 605 260 605 c 4,20,21
 166 605 166 605 102 668 c 132,-1,22
 38 731 38 731 38 852 c 4,23,24
 38 1022 38 1022 135 1114 c 132,-1,25
 232 1206 232 1206 348 1215 c 5,26,-1
 492 1126 l 5,27,-1
 626 1215 l 5,28,29
 755.313 1198.55 755.313 1198.55 833.268 1114.05 c 132,-1,30
 911.222 1029.55 911.222 1029.55 914 909 c 260,31,32
 914.835 854.025 914.835 854.025 882.417 766.013 c 132,-1,33
 850 678 850 678 802.5 606.5 c 132,-1,34
 755 535 755 535 738 481 c 132,-1,35
 721 427 721 427 721 361 c 6,36,-1
 721 222 l 1,37,-1
 918 222 l 2,38,39
 1026 222 1026 222 1026 326 c 2,40,-1
 1026 1206 l 1,41,-1
 1336 1206 l 1,42,-1
 1336 319 l 2,0,1
262 890 m 28,43,44
 230 891 230 891 206.5 869.5 c 132,-1,45
 183 848 183 848 182 817 c 132,-1,46
 181 786 181 786 203.5 764 c 132,-1,47
 226 742 226 742 257 741 c 132,-1,48
 288 740 288 740 311 761.5 c 132,-1,49
 334 783 334 783 335 814 c 132,-1,50
 336 845 336 845 314.5 867.5 c 132,-1,51
 293 890 293 890 262 890 c 28,43,44
EndSplineSet
EndChar
StartChar: uni0E04
Encoding: 3588 3588 127
Width: 1570
Flags: HMW
HStem: 0 21G<177 488> 360 127<738.7 819.3> 636 139<738.4 821.6> 984 239<775 783>
VStem: 156 319<547 876.7> 177 311<0 208> 856 143<521 601.6> 1080 311<1 881>
Fore
778 805 m 4,0,1
 861 805 861 805 929.5 742.5 c 132,-1,2
 998 680 998 680 999 593 c 4,3,4
 1000 509 1000 509 932 448.5 c 132,-1,5
 864 388 864 388 782 390 c 4,6,7
 674 393 674 393 624 453 c 5,8,9
 566.101 357.158 566.101 357.158 527.051 258.579 c 132,-1,10
 488 160 488 160 488 0 c 5,11,-1
 177 0 l 1,12,-1
 156 732 l 2,13,14
 149.112 972.083 149.112 972.083 317 1096.5 c 128,-1,15
 485 1221 485 1221 775 1223 c 0,16,17
 1055 1225 1055 1225 1223 1093.5 c 128,-1,18
 1391 962 1391 962 1391 729 c 2,19,-1
 1391 0 l 1,20,-1
 1079 1 l 1,21,-1
 1080 738 l 2,22,23
 1080.15 847.848 1080.15 847.848 999.5 916 c 128,-1,24
 919 984 919 984 783 984 c 0,25,26
 640 984 640 984 557.5 914 c 128,-1,27
 475 844 475 844 475 735 c 2,28,-1
 475 577 l 5,29,30
 517 678 517 678 599 741.5 c 132,-1,31
 681 805 681 805 778 805 c 4,0,1
779 517 m 156,-1,33
 810 517 810 517 833 538.5 c 132,-1,34
 856 560 856 560 856 590 c 4,35,36
 856 622 856 622 834 644 c 132,-1,37
 812 666 812 666 780 666 c 132,-1,38
 748 666 748 666 726 644 c 132,-1,39
 704 622 704 622 704 590 c 4,40,41
 704 559 704 559 726 538 c 132,-1,32
 748 517 748 517 779 517 c 156,-1,33
EndSplineSet
EndChar
StartChar: uni0E05
Encoding: 3589 3589 128
Width: 1570
Flags: HW
HStem: 0 21G<177 488> 353 124<738.7 819.3> 626 137<738.4 821.6>
VStem: 156 319<597 847.7> 856 128<511 591.6> 1080 312<1 848.1>
Fore
779 517 m 152,-1,33
 810 517 810 517 833 538.5 c 128,-1,34
 856 560 856 560 856 590 c 0,35,36
 856 622 856 622 834 644 c 128,-1,37
 812 666 812 666 780 666 c 128,-1,38
 748 666 748 666 726 644 c 128,-1,39
 704 622 704 622 704 590 c 0,40,41
 704 559 704 559 726 538 c 128,-1,32
 748 517 748 517 779 517 c 152,-1,33
488 0 m 5,10,-1
 177 0 l 1,11,-1
 156 742 l 2,12,13
 149.424 974.356 149.424 974.356 274.5 1079.5 c 0
 400 1185 400 1185 559 1218 c 1,15,-1
 793 1081 l 1,16,-1
 1024 1218 l 1,17,18
 1187 1178 1187 1178 1289.5 1060.5 c 128,-1,19
 1392 943 1392 943 1392 739 c 2,20,-1
 1392 0 l 1,21,-1
 1080 1 l 1,22,-1
 1080 748 l 2,23,24
 1080 825 1080 825 1049 877.5 c 128,-1,25
 1018 930 1018 930 978 952 c 1,26,-1
 837 868 l 1,27,-1
 746 868 l 1,28,-1
 589 961 l 1,29,30
 538 926 538 926 506.5 875 c 128,-1,31
 475 824 475 824 475 745 c 2,32,-1
 475 576 l 1,33,34
 517 678 517 678 599 741.5 c 128,-1,31
 681 805 681 805 778 805 c 0,0,1
 861 805 861 805 929.5 742.5 c 128,-1,2
 998 680 998 680 999 593 c 0,3,4
 1000 509 1000 509 932 448.5 c 128,-1,5
 864 388 864 388 782 390 c 0,6,7
 674 393 674 393 624 453 c 1,8,9
 566.101 357.158 566.101 357.158 527.051 258.579 c 128,-1,10
 488 160 488 160 488 0 c 5,10,-1
EndSplineSet
EndChar
StartChar: uni0E06
Encoding: 3590 3590 129
Width: 1600
Flags: HW
HStem: 0 21G<1080 1411> 645 135.956<236.7 319.047> 1185 20G<1085 1411>
VStem: 58 144<816.421 897.3> 687 229<826.1 949.919> 1085 326<336 1205>
Fore
776 540 m 1
 863 516 863 516 964.5 449.5 c 128,-1,31
 1066 383 1066 383 1085 336 c 1,32,-1
 1085 1205 l 1,33,-1
 1411 1205 l 1,34,-1
 1411 0 l 1,35,-1
 1080 0 l 1,36,37
 1035 98 1035 98 947 189 c 128,-1,38
 859 280 859 280 777 315 c 1,39,-1
 777 265 l 2,40,41
 777 142 777 142 690 65.5 c 128,-1,42
 603 -11 603 -11 468 -11 c 0,43,44
 325 -11 325 -11 237 69.5 c 128,-1,45
 149 150 149 150 148 284 c 0,46,47
 148 395 148 395 225 487 c 128,-1,48
 302 579 302 579 473 588 c 1
 508 692 508 692 593.004 759.441 c 128,-1,7
 678.009 826.881 678.009 826.881 680 910 c 256,8,9
 681.371 954.916 681.371 954.916 665.663 977.789 c 128,-1,10
 649.956 1000.66 649.956 1000.66 613 1008 c 1,11,-1
 510 970 l 1,12,-1
 350 1051 l 1,13,-1
 304 1032 l 1,14,15
 386.639 1020 386.639 1020 439.368 962.166 c 128,-1,16
 492.098 904.332 492.098 904.332 499 812 c 0,17,18
 505 733 505 733 445.5 669 c 128,-1,19
 386 605 386 605 280 605 c 0,20,21
 186 605 186 605 122 668 c 128,-1,22
 58 731 58 731 58 852 c 0,23,24
 58 1022 58 1022 155 1114 c 128,-1,25
 252 1206 252 1206 368 1215 c 1,26,-1
 512 1126 l 1,27,-1
 646 1215 l 1,28,29
 771.508 1199.44 771.508 1199.44 858.254 1112.99 c 128,-1,30
 945 1026.53 945 1026.53 945 909 c 256,31,32
 945 850.724 945 850.724 919.252 774.901 c 128,-1,33
 893.504 699.077 893.504 699.077 840.752 644.539 c 128,-1,34
 788 590 788 590 776 540 c 1
282 890 m 24,43,44
 250 891 250 891 226.5 869.5 c 128,-1,45
 203 848 203 848 202 817 c 128,-1,46
 201 786 201 786 223.5 764 c 128,-1,47
 246 742 246 742 277 741 c 128,-1,48
 308 740 308 740 331 761.5 c 128,-1,49
 354 783 354 783 355 814 c 128,-1,50
 356 845 356 845 334.5 867.5 c 128,-1,51
 313 890 313 890 282 890 c 24,43,44
458 205 m 24,58,59
 493 205 493 205 518 229.5 c 128,-1,60
 543 254 543 254 543 288 c 0,61,62
 543 323 543 323 517.5 348 c 128,-1,63
 492 373 492 373 457 373 c 128,-1,64
 422 373 422 373 396.5 348 c 128,-1,65
 371 323 371 323 371 288 c 128,-1,66
 371 253 371 253 396.5 229 c 128,-1,67
 422 205 422 205 458 205 c 24,58,59
EndSplineSet
EndChar
StartChar: uni0E07
Encoding: 3591 3591 130
Width: 1130
Flags: W
HStem: 0 21G<574 941> 744 146<518.7 599.3> 1195 20G<529.5 691>
VStem: 324 160<922.7 1003.3> 626 315<371 752>
Back
372 960 m 4,0,1
 372 1064 372 1064 446 1138 c 0,2,3
 520 1212 520 1212 624 1212 c 0,4,5
 728 1212 728 1212 802 1138 c 0,6,7
 876 1064 876 1064 876 960 c 0,8,9
 876 856 876 856 802 782 c 0,10,11
 728 708 728 708 624 708 c 0,12,13
 520 708 520 708 446 782 c 0,14,15
 372 856 372 856 372 960 c 4,0,1
548 962 m 4,8,9
 548 993 548 993 569.5 1014.5 c 0,10,11
 591 1036 591 1036 622 1036 c 0,12,13
 653 1036 653 1036 674.5 1014.5 c 0,14,15
 696 993 696 993 696 962 c 0,16,17
 696 931 696 931 674.5 909.5 c 0,18,19
 653 888 653 888 622 888 c 0,20,21
 591 888 591 888 569.5 909.5 c 0,22,23
 548 931 548 931 548 962 c 4,8,9
EndSplineSet
Fore
559 890 m 152,-1,1
 590 890 590 890 613 911.5 c 128,-1,2
 636 933 636 933 636 963 c 0,3,4
 636 994 636 994 614 1016.5 c 128,-1,5
 592 1039 592 1039 560 1039 c 128,-1,6
 528 1039 528 1039 506 1016.5 c 128,-1,7
 484 994 484 994 484 963 c 128,-1,8
 484 932 484 932 506 911 c 128,-1,0
 528 890 528 890 559 890 c 152,-1,1
941 0 m 25,9,-1
 574 0 l 1,10,11
 425 197 425 197 292 337 c 128,-1,12
 159 477 159 477 39 570 c 1,13,-1
 103 761 l 1,14,15
 215 705 215 705 374 590.5 c 128,-1,16
 533 476 533 476 626 371 c 1,17,-1
 626 752 l 1,18,19
 612 744 612 744 559 744 c 0,20,21
 464 744 464 744 394 809 c 128,-1,22
 324 874 324 874 324 963 c 0,23,24
 324 1072 324 1072 392.5 1143.5 c 128,-1,25
 461 1215 461 1215 598 1215 c 0,26,27
 784 1215 784 1215 862.5 1097.5 c 128,-1,28
 941 980 941 980 941 822 c 2,29,-1
 941 0 l 25,9,-1
EndSplineSet
EndChar
StartChar: uni0E08
Encoding: 3592 3592 131
Width: 1360
Flags: MW
HStem: 0 21G<852 1163> 364 144<422.7 503.3> 657 144<422.4 505.6> 994 240<538 615.5>
VStem: 244 144<540.7 621.3> 852 311<518 929.5>
Fore
1163 789 m 10,0,-1
 1163 0 l 1,1,-1
 852 0 l 1,2,3
 796 321 796 321 649 460 c 1,4,5
 634 423 634 423 575 393 c 128,-1,6
 516 363 516 363 465 364 c 0,7,8
 386 365 386 365 315 427 c 128,-1,9
 244 489 244 489 244 574 c 0,10,11
 244 674 244 674 313.5 738 c 128,-1,12
 383 802 383 802 482 801 c 0,13,14
 623 801 623 801 718 713.5 c 128,-1,15
 813 626 813 626 852 518 c 1,16,-1
 852 806 l 2,17,18
 852 901 852 901 772.5 947.5 c 128,-1,19
 693 994 693 994 538 994 c 4,20,21
 400 992 400 992 279 951 c 128,-1,22
 158 910 158 910 59 822 c 1,23,-1
 59 1095 l 1,24,25
 186 1172 186 1172 306 1203.5 c 128,-1,26
 426 1235 426 1235 538 1234 c 4,27,28
 807 1234 807 1234 985 1138.5 c 128,-1,29
 1163 1043 1163 1043 1163 789 c 10,0,-1
463 508 m 152,-1,31
 494 508 494 508 517 529.5 c 128,-1,32
 540 551 540 551 540 581 c 0,33,34
 540 612 540 612 518 634.5 c 128,-1,35
 496 657 496 657 464 657 c 128,-1,36
 432 657 432 657 410 634.5 c 128,-1,37
 388 612 388 612 388 581 c 128,-1,38
 388 550 388 550 410 529 c 128,-1,30
 432 508 432 508 463 508 c 152,-1,31
EndSplineSet
EndChar
StartChar: uni0E09
Encoding: 3593 3593 132
Width: 1470
Flags: MW
HStem: 0 21G<369 675> 324 146<261.7 342.3> 994 241<618 675>
VStem: 67 160<502.7 583.3> 932 311<507 908.7>
Fore
302 470 m 152,-1,1
 333 470 333 470 356 491.5 c 128,-1,2
 379 513 379 513 379 543 c 0,3,4
 379 574 379 574 356.5 596.5 c 128,-1,5
 334 619 334 619 303 619 c 128,-1,6
 272 619 272 619 249.5 596.5 c 128,-1,7
 227 574 227 574 227 543 c 128,-1,8
 227 512 227 512 249 491 c 128,-1,0
 271 470 271 470 302 470 c 152,-1,1
675 432 m 2,9,-1
 675 305 l 1,10,11
 780.893 402 780.893 402 932 471 c 1,12,-1
 932 806 l 2,13,14
 932 885 932 885 867 940 c 128,-1,15
 802 995 802 995 618 994 c 4,16,17
 491 993 491 993 365 946 c 128,-1,18
 239 899 239 899 119 822 c 1,19,-1
 119 1095 l 1,20,21
 252 1169 252 1169 391.5 1202 c 128,-1,22
 531 1235 531 1235 675 1235 c 4,23,24
 954 1235 954 1235 1098.5 1125.5 c 128,-1,25
 1243 1016 1243 1016 1243 789 c 2,26,-1
 1243 507 l 1,27,28
 1292 507 1292 507 1363 434 c 128,-1,29
 1434 361 1434 361 1434 251 c 0,30,31
 1434 149 1434 149 1369.5 69.5 c 128,-1,32
 1305 -10 1305 -10 1164 -10 c 0,33,34
 949 -10 949 -10 897 185 c 1,35,36
 766.5 143.5 766.5 143.5 675 0 c 1,37,-1
 369 0 l 1,38,-1
 369 332 l 1,39,40
 355 324 355 324 302 324 c 0,41,42
 207 324 207 324 137 389 c 128,-1,43
 67 454 67 454 67 543 c 0,44,45
 67 652 67 652 135.582 723.5 c 128,-1,46
 204.163 795 204.163 795 341 795 c 0,47,48
 495 795 495 795 585 676 c 128,-1,49
 675 557 675 557 675 432 c 2,9,-1
1164 164 m 152,-1,51
 1195 164 1195 164 1218 185.5 c 128,-1,52
 1241 207 1241 207 1241 237 c 0,53,54
 1241 268 1241 268 1218.5 290.5 c 128,-1,55
 1196 313 1196 313 1165 313 c 128,-1,56
 1134 313 1134 313 1111.5 290.5 c 128,-1,57
 1089 268 1089 268 1089 237 c 128,-1,58
 1089 206 1089 206 1111 185 c 128,-1,50
 1133 164 1133 164 1164 164 c 152,-1,51
EndSplineSet
EndChar
StartChar: uni0E0A
Encoding: 3594 3594 133
Width: 1420
Flags: W
HStem: 0 222<574 911> 712 136<216.4 300.047> 997 218<221.4 359>
VStem: 39 144<883.421 964.3> 264 310<222 457.388> 336 149.871<880.7 962.636> 521.381 236.619<839.915 993.049> 911 312<190.8 702>
Fore
263 997 m 24,0,1
 231 998 231 998 207.5 976.5 c 128,-1,2
 184 955 184 955 183 924 c 128,-1,3
 182 893 182 893 204 871 c 128,-1,4
 226 849 226 849 258 848 c 0,5,6
 289 847 289 847 312 868.5 c 128,-1,7
 335 890 335 890 336 921 c 128,-1,8
 337 952 337 952 315.5 974 c 128,-1,9
 294 996 294 996 263 997 c 24,0,1
574 361 m 2,10,-1
 574 222 l 1,11,-1
 803 222 l 2,12,13
 911 222 911 222 911 326 c 2,14,-1
 911 608 l 2,15,16
 911 744 911 744 784 761 c 1,17,-1
 784 1042 l 1,18,19
 866.571 1059.28 866.571 1059.28 919.785 1157.14 c 128,-1,20
 973 1255 973 1255 968 1373 c 1,21,-1
 1298 1373 l 1,22,23
 1300 1198 1300 1198 1227.5 1069.5 c 128,-1,24
 1155 941 1155 941 1056 894 c 1,25,26
 1124 864 1124 864 1173.5 783 c 128,-1,27
 1223 702 1223 702 1223 614 c 2,28,-1
 1223 320 l 18,29,30
 1223 0 1223 0 811 0 c 2,31,-1
 264 0 l 1,32,-1
 264 406 l 2,33,34
 264 465 264 465 286.194 524.356 c 128,-1,35
 308.388 583.713 308.388 583.713 388.567 668.883 c 128,-1,36
 468.745 754.054 468.745 754.054 495.066 803.341 c 128,-1,37
 521.387 852.627 521.387 852.627 521.381 895 c 0,38,39
 521.37 970.423 521.37 970.423 455 1009 c 1,40,41
 485.761 969.899 485.761 969.899 485.871 913 c 0,42,43
 486 847 486 847 427.625 779.5 c 128,-1,44
 369.25 712 369.25 712 260 712 c 0,45,46
 166 712 166 712 102 775 c 128,-1,47
 38 838 38 838 39 929 c 0,48,49
 39 1055 39 1055 137.5 1133.5 c 128,-1,50
 236 1212 236 1212 359 1215 c 0,51,52
 522.393 1218.79 522.393 1218.79 640.196 1129 c 128,-1,53
 758 1039.21 758 1039.21 758 864 c 0,54,55
 758 824.079 758 824.079 743.842 776.39 c 128,-1,56
 729.684 728.701 729.684 728.701 668.842 631.85 c 128,-1,57
 608 535 608 535 591 481 c 128,-1,58
 574 427 574 427 574 361 c 2,10,-1
EndSplineSet
EndChar
StartChar: uni0E0B
Encoding: 3595 3595 134
Width: 1580
Flags: HW
HStem: 0 222<721 1076> 605 135.956<216.7 299.047>
VStem: 38 144<776.421 857.3> 411 310<222 457.388> 660 254<835.415 975.527> 1076 312<190.8 702>
Fore
721 361 m 2,0,-1
 721 222 l 1,1,-1
 968 222 l 2,2,3
 1076 222 1076 222 1076 326 c 2,4,-1
 1076 608 l 2,5,6
 1076 755.066 1076 755.066 949 761 c 5,7,-1
 949 1052 l 1,8,9
 1037.61 1069.28 1037.61 1069.28 1087.81 1162.14 c 128,-1,10
 1138 1255 1138 1255 1133 1373 c 1,11,-1
 1463 1373 l 1,12,13
 1465 1198 1465 1198 1392.5 1069.5 c 128,-1,14
 1320 941 1320 941 1221 894 c 1,15,16
 1289 864 1289 864 1338.5 783 c 128,-1,17
 1388 702 1388 702 1388 614 c 2,18,-1
 1388 290 l 18,19,20
 1388 0 1388 0 995 0 c 2,21,-1
 411 0 l 1,22,-1
 411 406 l 2,23,24
 411 525.843 411 525.843 464.355 613.801 c 128,-1,25
 517.711 701.76 517.711 701.76 587.825 762.881 c 128,-1,26
 657.939 824.001 657.939 824.001 660 910 c 256,27,28
 661.371 954.916 661.371 954.916 645.663 977.789 c 128,-1,29
 629.956 1000.66 629.956 1000.66 593 1008 c 1,30,-1
 490 970 l 1,31,-1
 330 1051 l 1,32,-1
 284 1032 l 1,33,34
 366.639 1020 366.639 1020 419.368 962.166 c 128,-1,35
 472.098 904.332 472.098 904.332 479 812 c 0,36,37
 485 733 485 733 425.5 669 c 128,-1,38
 366 605 366 605 260 605 c 0,39,40
 166 605 166 605 102 668 c 128,-1,41
 38 731 38 731 38 852 c 0,42,43
 38 1022 38 1022 135 1114 c 128,-1,44
 232 1206 232 1206 348 1215 c 1,45,-1
 492 1126 l 1,46,-1
 626 1215 l 1,47,48
 755.313 1198.55 755.313 1198.55 833.268 1114.05 c 128,-1,49
 911.222 1029.55 911.222 1029.55 914 909 c 256,50,51
 914.835 854.025 914.835 854.025 882.417 766.013 c 128,-1,52
 850 678 850 678 802.5 606.5 c 128,-1,53
 755 535 755 535 738 481 c 128,-1,54
 721 427 721 427 721 361 c 2,0,-1
262 890 m 24,55,56
 230 891 230 891 206.5 869.5 c 128,-1,57
 183 848 183 848 182 817 c 128,-1,58
 181 786 181 786 203.5 764 c 128,-1,59
 226 742 226 742 257 741 c 128,-1,60
 288 740 288 740 311 761.5 c 128,-1,61
 334 783 334 783 335 814 c 128,-1,62
 336 845 336 845 314.5 867.5 c 128,-1,63
 293 890 293 890 262 890 c 24,55,56
EndSplineSet
EndChar
StartChar: uni0E0C
Encoding: 3596 3596 135
Width: 2060
Flags: HMW
HStem: -20 186<402 499.3> 315 148<419.7 500.3> 984 241<594.5 794.5>
VStem: 535 158<200.4 282.3> 962 306<547 909.506> 1547 304<366 1204>
Fore
1069 -20 m 0,0,1
 958 -20 958 -20 861 56 c 128,-1,2
 764 132 764 132 764 268 c 0,3,4
 764 365 764 365 819 433.5 c 128,-1,5
 874 502 874 502 960 536 c 1,6,-1
 962 796 l 2,7,8
 962.672 883.312 962.672 883.312 909.836 933.656 c 132,-1,10
 857 984 857 984 732 984 c 0,11,12
 658 984 658 984 580.5 974.5 c 128,-1,13
 503 965 503 965 436 936 c 1,14,-1
 589 850 l 1,15,-1
 589 708 l 1,16,17
 514 680 514 680 457 634.5 c 128,-1,18
 400 589 400 589 400 516 c 2,19,-1
 400 463 l 1,20,21
 402 464 402 464 486 463 c 128,-1,22
 570 462 570 462 631.5 398.5 c 128,-1,23
 693 335 693 335 693 220 c 0,24,25
 693 126 693 126 617 53 c 128,-1,26
 541 -20 541 -20 402 -20 c 0,27,28
 285 -20 285 -20 187.5 70.5 c 128,-1,29
 90 161 90 161 90 337 c 2,30,-1
 90 468 l 2,31,32
 90 579 90 579 138 650.5 c 128,-1,33
 186 722 186 722 263 765 c 1,34,-1
 89 854 l 1,35,-1
 90 1074 l 1,36,37
 241 1158 241 1158 384.5 1191.5 c 128,-1,38
 528 1225 528 1225 661 1225 c 0,39,40
 981 1224 981 1224 1124.14 1114.9 c 132,-1,42
 1267.27 1005.8 1267.27 1005.8 1268 812 c 2,43,-1
 1269 547 l 1,44,45
 1437 510 1437 510 1547 366 c 1,46,-1
 1547 1204 l 1,47,-1
 1851 1204 l 1,48,-1
 1851 0 l 1,49,-1
 1541 0 l 1,50,51
 1464 182 1464 182 1355 220 c 1,52,53
 1358 131 1358 131 1279 55.5 c 128,-1,54
 1200 -20 1200 -20 1069 -20 c 0,0,1
1071 186 m 24,55,56
 1106 186 1106 186 1131 210.5 c 128,-1,57
 1156 235 1156 235 1156 269 c 0,58,59
 1156 304 1156 304 1130.5 329 c 128,-1,60
 1105 354 1105 354 1070 354 c 128,-1,61
 1035 354 1035 354 1009.5 329 c 128,-1,62
 984 304 984 304 984 269 c 128,-1,63
 984 234 984 234 1009.5 210 c 128,-1,64
 1035 186 1035 186 1071 186 c 24,55,56
460 315 m 152,-1,66
 429 315 429 315 406 293.5 c 128,-1,67
 383 272 383 272 383 242 c 0,68,69
 383 210 383 210 405.5 188 c 128,-1,70
 428 166 428 166 459 166 c 128,-1,71
 490 166 490 166 512.5 188 c 128,-1,72
 535 210 535 210 535 242 c 0,73,74
 535 273 535 273 513 294 c 128,-1,65
 491 315 491 315 460 315 c 152,-1,66
EndSplineSet
EndChar
StartChar: uni0E0D
Encoding: 3597 3597 136
Width: 1970
Flags: MW
HStem: -461 175<1064.8 1222> -172 119.076<1061.83 1131.6> 0 221<1186 1467> 983 242<636 639>
VStem: 876 311<221 911.7> 915.983 121.017<-262.404 -196.8> 1158 123<-262.2 -195.555> 1467 308<221 1202>
Fore
484 493 m 2,0,1
 566.746 489.239 566.746 489.239 642.373 418.119 c 128,-1,3
 718 347 718 347 718 238 c 0,4,5
 718 123 718 123 630 50.5 c 128,-1,7
 542 -22 542 -22 406 -20 c 0,8,9
 293 -18 293 -18 198.5 66 c 128,-1,10
 104 150 104 150 104 320 c 2,11,-1
 104 465 l 2,12,13
 104 565 104 565 145 630.5 c 128,-1,14
 186 696 186 696 257 735 c 1,15,-1
 71 812 l 1,16,-1
 72 1088 l 1,17,18
 222 1150 222 1150 365.5 1187.5 c 128,-1,19
 509 1225 509 1225 636 1225 c 0,20,21
 909 1225 909 1225 1048.18 1122.39 c 128,-1,23
 1187.35 1019.77 1187.35 1019.77 1187 812 c 2,24,-1
 1186 221 l 1,25,-1
 1467 221 l 1,26,-1
 1467 1202 l 1,27,-1
 1775 1202 l 1,28,-1
 1775 0 l 1,29,-1
 876 0 l 1,30,-1
 876 796 l 2,31,32
 876 885 876 885 814.5 929 c 128,-1,33
 753 973 753 973 639 983 c 0,34,35
 567 989 567 989 503 978 c 128,-1,36
 439 967 439 967 385 938 c 1,37,-1
 587 847 l 1,38,-1
 587 651 l 1,39,40
 518 629 518 629 467.5 592 c 128,-1,41
 417.143 555 417.143 555 418 496 c 1,42,-1
 484 493 l 2,0,1
437 318 m 152,-1,44
 406 318 406 318 383 296.5 c 128,-1,45
 360 275 360 275 360 245 c 0,46,47
 360 214 360 214 382 191.5 c 128,-1,48
 404 169 404 169 436 169 c 128,-1,49
 468 169 468 169 490 191.5 c 128,-1,50
 512 214 512 214 512 245 c 128,-1,51
 512 276 512 276 490 297 c 128,-1,43
 468 318 468 318 437 318 c 152,-1,44
1096 -286 m 24,52,53
 1121 -287 1121 -287 1139 -271 c 128,-1,54
 1157 -255 1157 -255 1158 -231 c 128,-1,55
 1159 -207 1159 -207 1141.5 -190 c 128,-1,56
 1124 -173 1124 -173 1100 -172 c 0,57,58
 1075 -171 1075 -171 1056.5 -187.5 c 128,-1,59
 1038 -204 1038 -204 1037 -228 c 128,-1,60
 1036 -252 1036 -252 1054 -268.5 c 128,-1,61
 1072 -285 1072 -285 1096 -286 c 24,52,53
1751 -67 m 1,62,-1
 1790 -306 l 1,63,64
 1696 -377 1696 -377 1535 -417 c 128,-1,65
 1374 -457 1374 -457 1222 -461 c 0,66,67
 1095 -464 1095 -464 1031.5 -420.5 c 128,-1,68
 968 -377 968 -377 942.5 -336.5 c 128,-1,69
 917 -296 917 -296 916 -224 c 128,-1,70
 915 -152 915 -152 972 -101.5 c 128,-1,71
 1029 -51 1029 -51 1104 -53 c 0,72,73
 1176 -55 1176 -55 1228.5 -110.5 c 128,-1,74
 1281 -166 1281 -166 1281 -233 c 0,75,76
 1281 -268 1281 -268 1276 -274 c 1,77,78
 1368 -265 1368 -265 1518 -207.5 c 128,-1,79
 1668 -150 1668 -150 1751 -67 c 1,62,-1
EndSplineSet
Substitution2: "Single Substitution lookup 11" uni0E0D.descless
Substitution2: "Single Substitution lookup 10" uni0E0D.descless
EndChar
StartChar: uni0E0E
Encoding: 3598 3598 137
Width: 1560
Flags: MW
HStem: -196 195<561 672.721> 982 243<800 804>
VStem: 1040 320<-217 897.781>
AnchorPoint: "BelowBase" 1351.5 -580.5 basechar 0
Fore
319 318 m 152,-1,1
 288 318 288 318 266 297 c 128,-1,2
 244 276 244 276 244 245 c 128,-1,3
 244 214 244 214 266 191.5 c 128,-1,4
 288 169 288 169 320 169 c 128,-1,5
 352 169 352 169 374 191.5 c 128,-1,6
 396 214 396 214 396 245 c 0,7,8
 396 275 396 275 373 296.5 c 128,-1,0
 350 318 350 318 319 318 c 152,-1,1
1040 795 m 2,9,10
 1039.92 874.062 1039.92 874.062 984 922.5 c 128,-1,11
 928 971 928 971 804 982 c 0,12,13
 735 988 735 988 671 978 c 128,-1,14
 607 968 607 968 550 937 c 1,15,-1
 770 836 l 1,16,-1
 770 644 l 1,17,18
 715 625 715 625 683.5 580 c 128,-1,19
 652 535 652 535 652 478 c 2,20,-1
 652 320 l 2,21,22
 652 143 652 143 567 66.5 c 128,-1,23
 482 -10 482 -10 340 -10 c 0,24,25
 218 -10 218 -10 143 53.5 c 128,-1,26
 68 117 68 117 68 238 c 0,27,28
 68 350 68 350 135 418.5 c 128,-1,29
 202.136 487.139 202.136 487.139 292 493 c 2,30,-1
 338 496 l 1,31,32
 338 594 338 594 362 648 c 128,-1,33
 386 702 386 702 452 734 c 1,34,-1
 236 811 l 1,35,-1
 236 1088 l 1,36,37
 372 1149 372 1149 514.5 1187 c 128,-1,38
 657 1225 657 1225 800 1225 c 0,39,40
 1061 1225 1061 1225 1210.5 1128.5 c 128,-1,41
 1359.83 1032.13 1359.83 1032.13 1360 811 c 2,42,-1
 1361 -520 l 1,43,-1
 1032 -520 l 1,44,45
 972 -426 972 -426 888 -358 c 1,46,47
 837 -461 837 -461 746.5 -497.5 c 128,-1,48
 656 -534 656 -534 567 -532 c 0,49,50
 466 -530 466 -530 384 -462 c 128,-1,51
 302 -394 302 -394 300 -289 c 0,52,53
 298 -144 298 -144 403 -72.5 c 128,-1,54
 508 -1 508 -1 628 -1 c 0,55,56
 695 -1 695 -1 763 -29 c 1,57,-1
 775 62 l 1,58,-1
 978 -1 l 1,59,-1
 939 -127 l 1,60,61
 1002 -170 1002 -170 1041 -217 c 1,62,-1
 1040 795 l 2,9,10
569 -339 m 0,63,64
 612 -340 612 -340 650 -308 c 128,-1,65
 688 -276 688 -276 705 -220 c 1,66,67
 656 -195 656 -195 613 -196 c 0,68,69
 573 -197 573 -197 542 -220.5 c 128,-1,70
 511 -244 511 -244 512 -278 c 0,71,72
 513 -307 513 -307 529 -322.5 c 128,-1,73
 545 -338 545 -338 569 -339 c 0,63,64
EndSplineSet
EndChar
StartChar: uni0E0F
Encoding: 3599 3599 138
Width: 1550
Flags: MW
HStem: -523 176.939<274 406.532> -241 162<323.6 430.649> 982 243<800 804>
VStem: 1040 319<-254 905.5>
AnchorPoint: "BelowBase" 1350.5 -580.5 basechar 0
Fore
319 318 m 152,-1,1
 288 318 288 318 266 297 c 128,-1,2
 244 276 244 276 244 245 c 128,-1,3
 244 214 244 214 266 191.5 c 128,-1,4
 288 169 288 169 320 169 c 128,-1,5
 352 169 352 169 374 191.5 c 128,-1,6
 396 214 396 214 396 245 c 0,7,8
 396 275 396 275 373 296.5 c 128,-1,0
 350 318 350 318 319 318 c 152,-1,1
1359 811 m 2,9,-1
 1359 -520 l 1,10,-1
 1022 -520 l 1,11,-1
 928 -418 l 1,12,-1
 850 -508 l 1,13,-1
 751 -508 l 1,14,-1
 629 -388 l 1,15,16
 566.387 -455.514 566.387 -455.514 504.194 -483.757 c 128,-1,17
 442 -512 442 -512 358 -523 c 1,18,19
 252.341 -520 252.341 -520 169.17 -458.5 c 128,-1,20
 86 -397 86 -397 86 -304 c 0,21,22
 86 -227.18 86 -227.18 160.862 -152.59 c 128,-1,23
 235.724 -78 235.724 -78 376 -79 c 0,24,25
 400.606 -79 400.606 -79 451.389 -87.1771 c 128,-1,26
 502.173 -95.3542 502.173 -95.3542 542 -119 c 1,27,-1
 616 9 l 1,28,-1
 856 -76 l 1,29,-1
 736 -232 l 1,30,-1
 793 -265 l 1,31,-1
 877 -175 l 1,32,-1
 955 -175 l 1,33,-1
 1040 -254 l 1,34,-1
 1040 795 l 2,35,36
 1040 880 1040 880 979.5 926 c 128,-1,37
 919 972 919 972 804 982 c 4,38,39
 730 989 730 989 666.5 977.5 c 128,-1,40
 603 966 603 966 550 937 c 1,41,-1
 770 836 l 1,42,-1
 770 644 l 1,43,44
 715 625 715 625 683.5 580 c 128,-1,45
 652 535 652 535 652 478 c 2,46,-1
 652 320 l 2,47,48
 652 157 652 157 568.5 79.5 c 128,-1,49
 485 2 485 2 360 -10 c 0,50,51
 241 -22 241 -22 154.5 54.5 c 128,-1,52
 68 131 68 131 68 238 c 0,53,54
 68 341 68 341 127 413.5 c 128,-1,55
 186.075 486.092 186.075 486.092 292 493 c 2,56,-1
 338 496 l 1,57,58
 338 594 338 594 362 648 c 128,-1,59
 386 702 386 702 452 734 c 1,60,-1
 236 811 l 1,61,-1
 236 1088 l 1,62,63
 351 1150 351 1150 490.5 1187.5 c 128,-1,64
 630 1225 630 1225 800 1225 c 4,65,66
 1100 1225 1100 1225 1229.5 1114 c 128,-1,67
 1359 1003 1359 1003 1359 811 c 2,9,-1
352 -346 m 0,68,69
 384.312 -347 384.312 -347 413.363 -331.5 c 128,-1,70
 442.414 -316 442.414 -316 463 -265 c 1,71,72
 413.875 -240 413.875 -240 373 -241 c 0,73,74
 335 -242 335 -242 313.5 -258 c 128,-1,75
 292 -274 292 -274 292 -298 c 0,76,77
 292 -344 292 -344 352 -346 c 0,68,69
EndSplineSet
EndChar
StartChar: uni0E10
Encoding: 3600 3600 139
Width: 1250
Flags: MW
HStem: -617 143<245.1 329.07> -156 111<734.824 797.961> 0 21G<683 979> 205 144<338.7 419.3> 498 144<339.7 420.3> 984 241<686.5 779.5>
VStem: 160 144<381.7 463.6> 600 114<-239.472 -177.19> 817 211<-321 -180>
Back
1125 984 m 25,0,-1
1038 537 m 10,1,-1
 1038 0 l 1,2,-1
 727 0 l 1,3,-1
 509 336 l 1,4,5
 487 300 487 300 439.5 277 c 0,6,7
 392 254 392 254 338 255 c 0,8,9
 243 256 243 256 180 316 c 0,10,11
 117 376 117 376 117 465 c 0,12,13
 117 565 117 565 186.5 629 c 0,14,15
 256 693 256 693 355 692 c 0,16,17
 420 692 420 692 481 662.5 c 0,18,19
 542 633 542 633 589 583.5 c 0,20,21
 636 534 636 534 668 488 c 0,22,23
 700 442 700 442 725 393 c 1,24,-1
 724 590 l 2,25,26
 724 645 724 645 638 690.5 c 0,27,28
 552 736 552 736 432.5 760.5 c 0,29,30
 313 785 313 785 210.5 798.5 c 0,31,32
 108 812 108 812 50 812 c 1,33,-1
 49 1085 l 1,34,35
 355 1225 355 1225 614 1225 c 0,36,37
 680 1225 680 1225 787 1194 c 0,38,39
 894 1163 894 1163 961 1160 c 0,40,41
 1042 1156 1042 1156 1125 1204 c 1,42,-1
 1125 984 l 1,43,44
 1053 926 1053 926 947 930 c 0,45,46
 901 931 901 931 793.5 957.5 c 0,47,48
 686 984 686 984 618 984 c 0,49,50
 556 987 556 987 487.5 976 c 0,51,52
 419 965 419 965 370 941 c 1,53,-1
 407 938.5 l 2,54,55
 444 936 444 936 503 926 c 0,56,57
 562 916 562 916 633 900 c 0,58,59
 704 884 704 884 775 853 c 0,60,61
 846 822 846 822 905 781.5 c 0,62,63
 964 741 964 741 1001 677.5 c 0,64,65
 1038 614 1038 614 1038 537 c 10,1,-1
336 399 m 28,43,-1
 367 399 367 399 389.5 420 c 0,44,45
 412 441 412 441 413 472 c 0,46,47
 413 504 413 504 390.5 526 c 0,48,49
 368 548 368 548 337 548 c 0,50,51
 306 548 306 548 283.5 526 c 0,52,53
 261 504 261 504 261 472 c 0,54,55
 261 441 261 441 283 420 c 0,56,57
 305 399 305 399 336 399 c 28,43,-1
600 -207 m 0,55,-1
 599 -126 599 -126 657 -85 c 0,56,57
 715 -44 715 -44 797 -45 c 0,58,59
 899 -48 899 -48 963.5 -112.5 c 0,60,61
 1028 -177 1028 -177 1028 -321 c 2,62,-1
 1028 -615 l 1,63,-1
 766 -615 l 1,64,-1
 690 -528 l 1,65,-1
 633 -610 l 1,66,-1
 561 -610 l 1,67,-1
 480 -518 l 1,68,69
 430 -621 430 -621 283 -617 c 0,70,71
 205 -615 205 -615 158 -566.5 c 0,72,73
 111 -518 111 -518 109 -449 c 0,74,75
 107 -378 107 -378 162.5 -323.5 c 0,76,77
 218 -269 218 -269 292 -264 c 0,78,79
 334 -262 334 -262 362 -273.5 c 0,80,81
 390 -285 390 -285 422 -308 c 1,82,-1
 452 -231 l 1,83,-1
 578 -338 l 1,84,-1
 540 -408 l 1,85,-1
 598 -458 l 1,86,-1
 656 -385 l 1,87,-1
 715 -385 l 1,88,-1
 771 -456 l 1,89,-1
 771 -360 l 1,90,91
 709 -367 709 -367 655 -324 c 0,92,93
 601 -281 601 -281 600 -207 c 0,55,-1
768 -156 m 24,90,-1
 746 -156 746 -156 730.5 -170.5 c 0,91,92
 715 -185 715 -185 714 -207 c 0,93,94
 713 -228 713 -228 729 -243 c 0,95,96
 745 -258 745 -258 766 -258 c 0,97,98
 787 -258 787 -258 801.5 -242.5 c 0,99,100
 816 -227 816 -227 817 -206 c 0,101,102
 818 -186 818 -186 803 -171 c 0,103,104
 788 -156 788 -156 768 -156 c 24,90,-1
248 -442 m 0,102,-1
 255 -474 255 -474 288 -474 c 0,103,104
 307 -474 307 -474 320 -469 c 0,105,106
 333 -464 333 -464 338.5 -459.5 c 0,107,108
 344 -455 344 -455 352.5 -444 c 0,109,110
 361 -433 361 -433 366 -428 c 1,111,112
 340 -407 340 -407 328 -401 c 0,113,114
 316 -395 316 -395 294 -394 c 1,115,116
 244 -408 244 -408 248 -442 c 0,102,-1
EndSplineSet
Fore
1086 531 m 2,0,-1
 979 0 l 1,1,-1
 683 0 l 1,2,-1
 552 286 l 1,3,4
 530 250 530 250 482.5 227 c 128,-1,5
 435 204 435 204 381 205 c 0,6,7
 286 206 286 206 223 266 c 128,-1,8
 160 326 160 326 160 415 c 0,9,10
 160 515 160 515 229.5 579 c 128,-1,11
 299 643 299 643 398 642 c 0,12,13
 507 642 507 642 588 558 c 0,14,15
 672 472 672 472 734 360 c 0,16,-1
 772 530 l 2,17,18
 793 623 793 623 617 666 c 2,19,-1
 139 782 l 1,20,-1
 139 1088 l 1,21,22
 322 1164 322 1164 464.5 1194.5 c 128,-1,23
 607 1225 607 1225 718 1225 c 4,24,25
 1017 1225 1017 1225 1153 1122 c 1,26,-1
 970 858 l 1,27,28
 955 914 955 914 896 949 c 128,-1,29
 837 984 837 984 722 984 c 4,30,31
 651 984 651 984 581 974.5 c 128,-1,32
 511 965 511 965 453 938 c 1,33,-1
 937 808 l 2,34,35
 1131 756 1131 756 1086 531 c 2,0,-1
379 349 m 152,-1,37
 410 349 410 349 432.5 370 c 128,-1,38
 455 391 455 391 456 422 c 0,39,40
 456 454 456 454 433.5 476 c 128,-1,41
 411 498 411 498 380 498 c 128,-1,42
 349 498 349 498 326.5 476 c 128,-1,43
 304 454 304 454 304 422 c 0,44,45
 304 391 304 391 326 370 c 128,-1,36
 348 349 348 349 379 349 c 152,-1,37
600 -207 m 0,46,47
 599 -126 599 -126 657 -85 c 128,-1,48
 715 -44 715 -44 797 -45 c 0,49,50
 899 -48 899 -48 963.5 -112.5 c 128,-1,51
 1028 -177 1028 -177 1028 -321 c 2,52,-1
 1028 -615 l 1,53,-1
 766 -615 l 1,54,-1
 690 -528 l 1,55,-1
 633 -610 l 1,56,-1
 561 -610 l 1,57,-1
 480 -518 l 1,58,59
 430 -621 430 -621 283 -617 c 0,60,61
 205 -615 205 -615 158 -566.5 c 128,-1,62
 111 -518 111 -518 109 -449 c 0,63,64
 107 -378 107 -378 162.5 -323.5 c 128,-1,65
 218 -269 218 -269 292 -264 c 0,66,67
 334 -262 334 -262 362 -273.5 c 128,-1,68
 390 -285 390 -285 422 -308 c 1,69,-1
 452 -231 l 1,70,-1
 578 -338 l 1,71,-1
 540 -408 l 1,72,-1
 598 -458 l 1,73,-1
 656 -385 l 1,74,-1
 715 -385 l 1,75,-1
 771 -456 l 1,76,-1
 771 -360 l 1,77,78
 709 -367 709 -367 655 -324 c 128,-1,79
 601 -281 601 -281 600 -207 c 0,46,47
768 -156 m 24,80,81
 746 -156 746 -156 730.5 -170.5 c 128,-1,82
 715 -185 715 -185 714 -207 c 0,83,84
 713 -228 713 -228 729 -243 c 128,-1,85
 745 -258 745 -258 766 -258 c 128,-1,86
 787 -258 787 -258 801.5 -242.5 c 128,-1,87
 816 -227 816 -227 817 -206 c 0,88,89
 818 -186 818 -186 803 -171 c 128,-1,90
 788 -156 788 -156 768 -156 c 24,80,81
248 -442 m 0,91,92
 255 -474 255 -474 288 -474 c 0,93,94
 307 -474 307 -474 320 -469 c 128,-1,95
 333 -464 333 -464 338.5 -459.5 c 128,-1,96
 344 -455 344 -455 352.5 -444 c 128,-1,97
 361 -433 361 -433 366 -428 c 1,98,99
 340 -407 340 -407 328 -401 c 128,-1,100
 316 -395 316 -395 294 -394 c 1,101,102
 244 -408 244 -408 248 -442 c 0,91,92
EndSplineSet
Substitution2: "Single Substitution lookup 11" uni0E10.descless
Substitution2: "Single Substitution lookup 10" uni0E10.descless
EndChar
StartChar: uni0E11
Encoding: 3601 3601 140
Width: 1820
Flags: HW
HStem: 0 21G<432 747 1319 1629> 645 135.956<237.7 320.047> 1203 20G<1270 1405>
VStem: 59 144<816.421 897.3> 356 144<813.7 895.841> 688 229<798.8 949.919> 1319 310<0 811.227>
Fore
283 890 m 24,43,44
 251 891 251 891 227.5 869.5 c 128,-1,45
 204 848 204 848 203 817 c 128,-1,46
 202 786 202 786 224.5 764 c 128,-1,47
 247 742 247 742 278 741 c 128,-1,48
 309 740 309 740 332 761.5 c 128,-1,49
 355 783 355 783 356 814 c 128,-1,50
 357 845 357 845 335.5 867.5 c 128,-1,51
 314 890 314 890 283 890 c 24,43,44
432 406 m 2,4,5
 432 525.843 432 525.843 485.355 613.801 c 128,-1,6
 538.711 701.76 538.711 701.76 608.825 762.881 c 128,-1,7
 678.939 824.001 678.939 824.001 681 910 c 256,8,9
 682.371 954.916 682.371 954.916 666.663 977.789 c 128,-1,10
 650.956 1000.66 650.956 1000.66 614 1008 c 1,11,-1
 511 970 l 1,12,-1
 351 1051 l 1,13,-1
 305 1032 l 1,14,15
 387.639 1020 387.639 1020 440.368 962.166 c 128,-1,16
 493.098 904.332 493.098 904.332 500 812 c 0,17,18
 506 733 506 733 446.5 669 c 128,-1,19
 387 605 387 605 281 605 c 0,20,21
 187 605 187 605 123 668 c 128,-1,22
 59 731 59 731 59 852 c 0,23,24
 59 1022 59 1022 156 1114 c 128,-1,25
 253 1206 253 1206 369 1215 c 1,26,-1
 513 1126 l 1,27,-1
 647 1215 l 1,28,29
 776.312 1198.55 776.312 1198.55 854.268 1114.05 c 128,-1,30
 932.223 1029.55 932.223 1029.55 935 909 c 256,31,32
 935.835 854.025 935.835 854.025 903.417 766.013 c 128,-1,33
 871 678 871 678 823.5 606.5 c 128,-1,34
 776 535 776 535 759 481 c 128,-1,35
 742 427 742 427 742 361 c 6,0,-1
 742 340 l 1,1,2
 778.194 369.711 778.194 369.711 879.61 548.763 c 128,-1,3
 981.026 727.814 981.026 727.814 1046 1003 c 0,4,5
 1063 1075 1063 1075 1135.5 1149 c 128,-1,6
 1208 1223 1208 1223 1332 1223 c 0,7,8
 1478 1223 1478 1223 1553.5 1148.5 c 128,-1,9
 1629 1074 1629 1074 1629 951 c 2,10,-1
 1629 0 l 1,11,-1
 1319 0 l 1,12,-1
 1319 784 l 2,13,14
 1319 810 1319 810 1303.5 822.5 c 128,-1,15
 1288 835 1288 835 1267 836 c 1,16,17
 1253 834 1253 834 1235.91 817.916 c 128,-1,18
 1218.82 801.832 1218.82 801.832 1215 784 c 0,19,20
 1172.75 614.004 1172.75 614.004 1025.88 379.002 c 128,-1,21
 879 144 879 144 747 0 c 1,22,-1
 432 0 l 1,23,-1
 432 406 l 2,4,5
EndSplineSet
EndChar
StartChar: uni0E12
Encoding: 3602 3602 141
Width: 2230
Flags: W
HStem: 0 21G<187 495 1726 2037> 702 140<733.2 825.5>
VStem: 548 144<576.8 666.5> 864.038 150.962<573.8 662.2> 1165.03 306.973<515 856> 1731 306<318 1203>
Fore
1271 170 m 24,0,1
 1306 170 1306 170 1331 194.5 c 128,-1,2
 1356 219 1356 219 1356 253 c 0,3,4
 1356 288 1356 288 1330.5 313 c 128,-1,5
 1305 338 1305 338 1270 338 c 128,-1,6
 1235 338 1235 338 1209.5 313 c 128,-1,7
 1184 288 1184 288 1184 253 c 128,-1,8
 1184 218 1184 218 1209.5 194 c 128,-1,9
 1235 170 1235 170 1271 170 c 24,0,1
776 539 m 152,-1,11
 811 538 811 538 837 561 c 128,-1,12
 863 584 863 584 864 618 c 128,-1,13
 865 652 865 652 840 676.5 c 128,-1,14
 815 701 815 701 780 702 c 0,15,16
 744 703 744 703 718.5 679.5 c 128,-1,17
 693 656 693 656 692 621 c 0,18,19
 691 587 691 587 716 563.5 c 128,-1,10
 741 540 741 540 776 539 c 152,-1,11
1354.5 1082.5 m 128,-1,21
 1472 947 1472 947 1472 746 c 2,22,-1
 1472 512 l 1,23,24
 1608 482 1608 482 1731 318 c 1,25,-1
 1731 1205 l 1,26,-1
 2037 1203 l 1,27,-1
 2037 0 l 1,28,-1
 1726 0 l 1,29,30
 1646 160 1646 160 1550 209 c 1,31,32
 1551 135 1551 135 1472.5 55.5 c 128,-1,33
 1394 -24 1394 -24 1274 -21 c 0,34,35
 1130 -17 1130 -17 1053 58 c 128,-1,36
 976 133 976 133 978 257 c 0,37,38
 979 355 979 355 1037 422.5 c 128,-1,39
 1095 490 1095 490 1164 515 c 1,40,-1
 1165 730 l 2,41,42
 1166 856 1166 856 1130 918.5 c 128,-1,43
 1094 981 1094 981 1053 994 c 1,44,-1
 897 898 l 1,45,-1
 760 898 l 1,46,-1
 592 993 l 1,47,48
 517 947 517 947 476 877 c 128,-1,49
 435 807 435 807 444 689 c 2,50,-1
 471 339 l 1,51,52
 626 373 626 373 673 437 c 1,53,54
 610 466 610 466 579.5 509.5 c 128,-1,55
 549 553 549 553 548 616 c 0,56,57
 547 717 547 717 610.5 780.5 c 128,-1,58
 674 844 674 844 781 842 c 0,59,60
 881 839 881 839 949 783 c 128,-1,61
 1017 727 1017 727 1015 625 c 0,62,63
 1010 361 1010 361 495 0 c 1,64,-1
 187 0 l 1,65,-1
 135 710 l 2,66,67
 118 944 118 944 266 1078.5 c 128,-1,68
 414 1213 414 1213 572 1223 c 1,69,-1
 818 1082 l 1,70,-1
 1045 1223 l 1,71,20
 1237 1218 1237 1218 1354.5 1082.5 c 128,-1,21
EndSplineSet
EndChar
StartChar: uni0E13
Encoding: 3603 3603 142
Width: 2060
Flags: W
HStem: 0 21G<900 1209> 985.072 239.928<503.923 823.129>
VStem: 900 310<345 896.1> 1481 310<501 1203>
Fore
1663 178 m 152,-1,1
 1694 178 1694 178 1717 199.5 c 128,-1,2
 1740 221 1740 221 1740 251.5 c 128,-1,3
 1740 282 1740 282 1718 304.5 c 128,-1,4
 1696 327 1696 327 1664 327 c 128,-1,5
 1632 327 1632 327 1610 304.5 c 128,-1,6
 1588 282 1588 282 1588 251 c 128,-1,7
 1588 220 1588 220 1610 199 c 128,-1,0
 1632 178 1632 178 1663 178 c 152,-1,1
900 0 m 1,8,-1
 900 796 l 2,9,10
 900 873 900 873 837.203 929.517 c 128,-1,11
 774.407 986.033 774.407 986.033 612 985.072 c 0,12,13
 578.532 984.875 578.532 984.875 527.266 979.438 c 128,-1,14
 476 974 476 974 410 938 c 1,15,-1
 612 847 l 1,16,-1
 612 651 l 1,17,18
 456.67 618 456.67 618 443 512 c 1,19,-1
 499 509 l 2,20,21
 594.102 503.905 594.102 503.905 668.5 434.5 c 128,-1,22
 743 365 743 365 743 252 c 256,23,24
 743 139 743 139 656.544 60.5 c 128,-1,25
 570.088 -18 570.088 -18 444 -18 c 256,26,27
 299 -18 299 -18 214 78.5 c 128,-1,28
 129 175 129 175 129 336 c 2,29,-1
 129 465 l 2,30,31
 129 544 129 544 169 619.5 c 128,-1,32
 209 695 209 695 282 735 c 1,33,-1
 96 812 l 1,34,-1
 96 1088 l 1,35,36
 242 1148 242 1148 386 1186.5 c 128,-1,37
 530 1225 530 1225 660 1225 c 0,38,39
 925 1225 925 1225 1067.5 1125.5 c 128,-1,40
 1210 1026 1210 1026 1210 812 c 2,41,-1
 1210 345 l 1,42,43
 1330.82 471 1330.82 471 1481 495 c 1,44,-1
 1481 1203 l 1,45,-1
 1791 1203 l 1,46,-1
 1792 501 l 1,47,48
 1848 490 1848 490 1903.5 415 c 128,-1,49
 1959 340 1959 340 1952 244 c 256,50,51
 1943 114 1943 114 1868 47.5 c 128,-1,52
 1793 -19 1793 -19 1667 -24 c 256,53,54
 1542 -28 1542 -28 1462.5 36 c 128,-1,55
 1383 100 1383 100 1376 199 c 1,56,57
 1320 172 1320 172 1209 0 c 1,58,-1
 900 0 l 1,8,-1
462 334 m 152,-1,60
 431 334 431 334 408 312.5 c 128,-1,61
 385 291 385 291 385 260.5 c 128,-1,62
 385 230 385 230 407.5 207.5 c 128,-1,63
 430 185 430 185 461 185 c 128,-1,64
 492 185 492 185 514.5 207.5 c 128,-1,65
 537 230 537 230 537 261 c 128,-1,66
 537 292 537 292 515 313 c 128,-1,59
 493 334 493 334 462 334 c 152,-1,60
EndSplineSet
EndChar
StartChar: uni0E14
Encoding: 3604 3604 143
Width: 1600
Flags: MW
HStem: 0 21G<171 482> 984 240<799 807>
VStem: 150 320<528.298 834.684> 554 144<549.7 631.6> 850 148<551 631.6> 1114 311<1 832.9>
Fore
484 264 m 1,0,1
 591 292 591 292 694 402 c 1,2,3
 645 414 645 414 601 463.5 c 128,-1,4
 557 513 557 513 554 586 c 0,5,6
 551 670 551 670 610.5 735.5 c 128,-1,7
 670 801 670 801 772 810 c 0,8,9
 853 817 853 817 926 747.5 c 128,-1,10
 999 678 999 678 998 593 c 0,11,12
 995.915 402.255 995.915 402.255 844 261 c 0,13,14
 673.412 102.383 673.412 102.383 482 0 c 1,15,-1
 171 0 l 1,16,-1
 150 732 l 2,17,18
 142.887 979.926 142.887 979.926 324 1100 c 128,-1,19
 505 1220 505 1220 799 1224 c 4,20,21
 1137 1229 1137 1229 1281 1077.5 c 128,-1,22
 1425 926 1425 926 1425 729 c 2,23,-1
 1425 0 l 1,24,-1
 1114 1 l 1,25,-1
 1114 738 l 2,26,27
 1114 811 1114 811 1054 898.5 c 128,-1,28
 994 986 994 986 807 984 c 4,29,30
 616 982 616 982 541.883 896.866 c 128,-1,31
 467.721 811.68 467.721 811.68 470 735 c 2,32,-1
 484 264 l 1,0,1
773 517 m 152,-1,34
 804 517 804 517 827 538.5 c 128,-1,35
 850 560 850 560 850 590 c 0,36,37
 850 622 850 622 828 644 c 128,-1,38
 806 666 806 666 774 666 c 128,-1,39
 742 666 742 666 720 644 c 128,-1,40
 698 622 698 622 698 590 c 0,41,42
 698 559 698 559 720 538 c 128,-1,33
 742 517 742 517 773 517 c 152,-1,34
EndSplineSet
EndChar
StartChar: uni0E15
Encoding: 3605 3605 144
Width: 1600
Flags: W
HStem: 0 21G<171 481>
VStem: 150 319<524.912 889.3> 564 134<519.7 601.6> 850 148<521 601.6> 1114 311<1 940.4>
Fore
481 0 m 1,0,-1
 171 0 l 1,1,-1
 150 742 l 2,2,3
 143 987 143 987 267.5 1088.5 c 128,-1,4
 392 1190 392 1190 566 1213 c 1,5,-1
 811 1028 l 1,6,-1
 1045 1213 l 1,7,8
 1228 1169 1228 1169 1326.5 1061.5 c 128,-1,9
 1425 954 1425 954 1425 739 c 2,10,-1
 1425 0 l 1,11,-1
 1114 1 l 1,12,-1
 1114 748 l 2,13,14
 1114 896 1114 896 1084 928 c 128,-1,15
 1054 960 1054 960 1030 965 c 1,16,-1
 897 854 l 1,17,-1
 708 854 l 1,18,-1
 572 966 l 1,19,20
 528 940 528 940 497 898 c 128,-1,21
 466 856 466 856 469 745 c 2,22,-1
 481 302 l 1,23,24
 595 318 595 318 690 392 c 1,25,26
 650 404 650 404 608.5 448 c 128,-1,27
 567 492 567 492 564 556 c 0,28,29
 561 640 561 640 615.5 700.5 c 128,-1,30
 670 761 670 761 772 770 c 0,31,32
 854 777 854 777 926 712.5 c 128,-1,33
 998 648 998 648 998 563 c 0,34,35
 998 269 998 269 481 0 c 1,0,-1
773 487 m 152,-1,37
 804 487 804 487 827 508.5 c 128,-1,38
 850 530 850 530 850 560 c 0,39,40
 850 592 850 592 828 614 c 128,-1,41
 806 636 806 636 774 636 c 128,-1,42
 742 636 742 636 720 614 c 128,-1,43
 698 592 698 592 698 560 c 0,44,45
 698 529 698 529 720 508 c 128,-1,36
 742 487 742 487 773 487 c 152,-1,37
EndSplineSet
EndChar
StartChar: uni0E16
Encoding: 3606 3606 145
Width: 1430
Flags: MW
HStem: 1 21G<929 1239> 984 240<680 683>
VStem: 929 310<1 710.973>
Fore
929 1 m 1,0,-1
 930 797 l 2,1,2
 930 875 930 875 872.5 924 c 128,-1,3
 815 973 815 973 683 984 c 4,4,5
 624 990 624 990 539 977 c 128,-1,6
 454 964 454 964 409 939 c 1,7,-1
 611 848 l 1,8,-1
 611 652 l 1,9,10
 532 625 532 625 492.5 594 c 128,-1,11
 453 563 453 563 442 511 c 1,12,-1
 498 508 l 2,13,14
 604 508 604 508 673 427 c 128,-1,15
 742 346 742 346 742 253 c 0,16,17
 742 132 742 132 657 60.5 c 128,-1,18
 572 -11 572 -11 430 -11 c 0,19,20
 309 -5 309 -5 220.5 68.5 c 128,-1,21
 132 142 132 142 128 325 c 2,22,-1
 128 466 l 2,23,24
 128 542 128 542 176.5 618 c 128,-1,25
 225 694 225 694 301 736 c 1,26,-1
 95 813 l 1,27,-1
 96 1090 l 1,28,29
 234 1146 234 1146 370 1185.5 c 128,-1,30
 506 1225 506 1225 680 1224 c 4,31,32
 922 1224 922 1224 1076 1132.5 c 128,-1,33
 1230 1041 1230 1041 1240 813 c 2,34,-1
 1239 1 l 1,35,-1
 929 1 l 1,0,-1
461 333 m 152,-1,37
 430 333 430 333 407 311.5 c 128,-1,38
 384 290 384 290 384 260 c 0,39,40
 384 228 384 228 406 206 c 128,-1,41
 428 184 428 184 460 184 c 128,-1,42
 492 184 492 184 514 206 c 128,-1,43
 536 228 536 228 536 260 c 0,44,45
 536 291 536 291 514 312 c 128,-1,36
 492 333 492 333 461 333 c 152,-1,37
EndSplineSet
EndChar
StartChar: uni0E17
Encoding: 3607 3607 146
Width: 1690
Flags: W
HStem: 0 21G<335 675 1202 1512> 745 146<218.7 299.3> 1194 20G<1136 1280>
VStem: 38 146<923.7 1005.6> 335 316<467 759 925 1005.6> 1202 310<0 865>
Fore
862 993 m 2,0,1
 897.119 1080.55 897.119 1080.55 983.56 1147.27 c 128,-1,2
 1070 1214 1070 1214 1202 1214 c 0,3,4
 1358 1214 1358 1214 1435 1139 c 128,-1,5
 1512 1064 1512 1064 1512 941 c 2,6,-1
 1512 0 l 1,7,-1
 1202 0 l 1,8,-1
 1202 839 l 2,9,10
 1202 865 1202 865 1178.5 883 c 128,-1,11
 1155 901 1155 901 1130 901 c 0,12,13
 1107 901 1107 901 1087.52 880.989 c 128,-1,14
 1068.03 860.978 1068.03 860.978 1058 839 c 2,15,-1
 675 0 l 1,16,-1
 335 0 l 1,17,-1
 335 759 l 1,18,19
 305 745 305 745 259 745 c 0,20,21
 181 745 181 745 109 806.5 c 128,-1,22
 37 868 37 868 38 968 c 0,23,24
 39 1065 39 1065 100.5 1139.5 c 128,-1,25
 162 1214 162 1214 298 1215 c 0,26,27
 457 1217 457 1217 554 1121 c 128,-1,28
 651 1025 651 1025 651 813 c 2,29,-1
 651 467 l 1,30,-1
 862 993 l 2,0,1
259 891 m 152,-1,32
 290 891 290 891 313 912.5 c 128,-1,33
 336 934 336 934 336 964 c 0,34,35
 336 996 336 996 314 1018 c 128,-1,36
 292 1040 292 1040 260 1040 c 128,-1,37
 228 1040 228 1040 206 1018 c 128,-1,38
 184 996 184 996 184 964 c 0,39,40
 184 933 184 933 206 912 c 128,-1,31
 228 891 228 891 259 891 c 152,-1,32
EndSplineSet
EndChar
StartChar: uni0E18
Encoding: 3608 3608 147
Width: 1330
Flags: MW
HStem: 0 158<515 800> 984 241<691.5 804.5>
VStem: 204 311<158 622> 802 314<158 650>
Fore
1116 521 m 2,0,-1
 1116 0 l 1,1,-1
 204 0 l 1,2,-1
 204 622 l 1,3,-1
 515 622 l 1,4,-1
 515 158 l 1,5,-1
 800 158 l 1,6,-1
 802 520 l 2,7,8
 803 620 803 620 647 656 c 2,9,-1
 139 772 l 1,10,-1
 139 1078 l 1,11,12
 365 1173 365 1173 486 1199 c 128,-1,13
 607 1225 607 1225 728 1225 c 4,14,15
 1044 1225 1044 1225 1193 1112 c 1,16,-1
 1010 848 l 1,17,18
 987 919 987 919 932 951.5 c 128,-1,19
 877 984 877 984 732 984 c 4,20,21
 651 984 651 984 581 974.5 c 128,-1,22
 511 965 511 965 453 938 c 1,23,-1
 967 798 l 2,24,25
 1116 757 1116 757 1116 521 c 2,0,-1
EndSplineSet
EndChar
StartChar: uni0E19
Encoding: 3609 3609 148
Width: 1580
Flags: W
HStem: -1 21G<337 648> 751 146<218.7 299.3> 1046 175<218.4 309>
VStem: 38 146<929.7 1011.6> 336 315<304 765 931 1011.6> 1046 312<491 1206>
Fore
259 897 m 152,-1,1
 290 897 290 897 313 918.5 c 128,-1,2
 336 940 336 940 336 970 c 0,3,4
 336 1002 336 1002 314 1024 c 128,-1,5
 292 1046 292 1046 260 1046 c 128,-1,6
 228 1046 228 1046 206 1024 c 128,-1,7
 184 1002 184 1002 184 970 c 0,8,9
 184 939 184 939 206 918 c 128,-1,0
 228 897 228 897 259 897 c 152,-1,1
1229 173 m 152,-1,11
 1260 173 1260 173 1283 194.5 c 128,-1,12
 1306 216 1306 216 1306 246 c 0,13,14
 1306 278 1306 278 1284 300 c 128,-1,15
 1262 322 1262 322 1230 322 c 128,-1,16
 1198 322 1198 322 1176 300 c 128,-1,17
 1154 278 1154 278 1154 246 c 0,18,19
 1154 215 1154 215 1176 194 c 128,-1,10
 1198 173 1198 173 1229 173 c 152,-1,11
960 199 m 1,20,21
 820 167 820 167 648 -1 c 1,22,-1
 337 -1 l 1,23,-1
 336 765 l 17,24,25
 300 751 300 751 259 751 c 0,26,27
 181 751 181 751 109.5 812 c 128,-1,28
 38 873 38 873 38 969.5 c 128,-1,29
 38 1066 38 1066 99.5 1142.5 c 128,-1,30
 161 1219 161 1219 309 1221 c 128,-1,31
 457 1223 457 1223 554 1128.5 c 128,-1,32
 651 1034 651 1034 651 819 c 2,33,-1
 651 304 l 1,34,35
 793 462 793 462 1046 485 c 1,36,-1
 1046 1206 l 5,37,-1
 1358 1206 l 5,38,-1
 1358 491 l 1,39,40
 1390 486 1390 486 1457 418 c 128,-1,41
 1524 350 1524 350 1519 245 c 0,42,43
 1515 143 1515 143 1443 60.5 c 128,-1,44
 1371 -22 1371 -22 1233 -23 c 0,45,46
 1106 -24 1106 -24 1037 46 c 128,-1,47
 968 116 968 116 960 199 c 1,20,21
EndSplineSet
EndChar
StartChar: uni0E1A
Encoding: 3610 3610 149
Width: 1600
Flags: W
HStem: 0 222<651 1114> 744 146<218.7 299.3> 1039 176<218.4 308>
VStem: 38 146<922.7 1003.3> 336 315<222 755 924 1003.3> 1114 314<222 1205>
Fore
259 890 m 156,-1,1
 290 890 290 890 313 911.5 c 132,-1,2
 336 933 336 933 336 963 c 4,3,4
 336 994 336 994 314 1016.5 c 132,-1,5
 292 1039 292 1039 260 1039 c 132,-1,6
 228 1039 228 1039 206 1016.5 c 132,-1,7
 184 994 184 994 184 963 c 132,-1,8
 184 932 184 932 206 911 c 132,-1,0
 228 890 228 890 259 890 c 156,-1,1
1428 0 m 5,9,-1
 337 0 l 5,10,-1
 336 755 l 5,11,12
 316 744 316 744 259 744 c 4,13,14
 165 744 165 744 101.5 807.5 c 132,-1,15
 38 871 38 871 38 961 c 4,16,17
 38 1071 38 1071 105 1143 c 132,-1,18
 172 1215 172 1215 308 1215 c 4,19,20
 463 1215 463 1215 557 1123.5 c 132,-1,21
 651 1032 651 1032 651 822 c 6,22,-1
 651 222 l 5,23,-1
 1114 222 l 5,24,-1
 1114 1205 l 5,25,-1
 1428 1205 l 5,26,-1
 1428 0 l 5,9,-1
EndSplineSet
EndChar
StartChar: uni0E1B
Encoding: 3611 3611 150
Width: 1600
Flags: W
HStem: 0 222<651 1114> 754 146<218.7 299.3>
VStem: 38 146<932.7 1013.3> 336 315<222 768 934 1013.3> 1114 314<222 1641>
AnchorPoint: "AboveBase" 986 1344 basechar 0
Fore
259 900 m 152,-1,1
 290 900 290 900 313 921.5 c 128,-1,2
 336 943 336 943 336 973 c 0,3,4
 336 1004 336 1004 314 1026.5 c 128,-1,5
 292 1049 292 1049 260 1049 c 128,-1,6
 228 1049 228 1049 206 1026.5 c 128,-1,7
 184 1004 184 1004 184 973 c 128,-1,8
 184 942 184 942 206 921 c 128,-1,0
 228 900 228 900 259 900 c 152,-1,1
1428 0 m 1,9,-1
 337 0 l 1,10,-1
 335 768 l 1,11,12
 317 754 317 754 259 754 c 0,13,14
 181 754 181 754 109.5 815 c 128,-1,15
 38 876 38 876 38 961 c 0,16,17
 38 1072 38 1072 103 1147.5 c 128,-1,18
 168 1223 168 1223 298 1224 c 0,19,20
 454 1224 454 1224 552.5 1127 c 128,-1,21
 651 1030 651 1030 651 822 c 2,22,-1
 651 222 l 1,23,-1
 1114 222 l 1,24,-1
 1114 1641 l 5,25,-1
 1428 1641 l 5,26,-1
 1428 0 l 1,9,-1
EndSplineSet
EndChar
StartChar: uni0E1C
Encoding: 3612 3612 151
Width: 1580
Flags: W
HStem: 0 21G<172 504 1056 1385> 748 146<553.7 634.3> 1186 20G<1074 1385>
VStem: 172 316<352 762> 669 146<927 1007.6> 1074 311<336 1206>
Fore
594 894 m 152,-1,1
 625 894 625 894 647 915 c 128,-1,2
 669 936 669 936 669 966 c 0,3,4
 669 998 669 998 646.5 1020 c 128,-1,5
 624 1042 624 1042 593 1042 c 128,-1,6
 562 1042 562 1042 539.5 1020 c 128,-1,7
 517 998 517 998 517 966 c 0,8,9
 517 936 517 936 540 915 c 128,-1,0
 563 894 563 894 594 894 c 152,-1,1
1056 0 m 1,10,-1
 784 391 l 1,11,-1
 504 0 l 1,12,-1
 172 0 l 1,13,-1
 172 836 l 2,14,15
 172 1033 172 1033 270.291 1126.57 c 128,-1,16
 368.581 1220.13 368.581 1220.13 555 1217 c 0,17,18
 674 1215 674 1215 746 1149 c 128,-1,19
 818 1083 818 1083 815 964 c 0,20,21
 812 867 812 867 742.5 808 c 128,-1,22
 673 749 673 749 594 748 c 0,23,24
 510.194 747 510.194 747 488 762 c 9,25,-1
 488 352 l 1,26,-1
 692 652 l 1,27,-1
 866 652 l 1,28,-1
 1074 336 l 1,29,-1
 1074 1206 l 5,30,-1
 1385 1206 l 5,31,-1
 1385 0 l 1,32,-1
 1056 0 l 1,10,-1
EndSplineSet
EndChar
StartChar: uni0E1D
Encoding: 3613 3613 152
Width: 1580
Flags: W
HStem: 0 21G<172 504 1056 1385> 748 146<553.7 634.3>
VStem: 172 316<352 762> 669 146<927 1007.6> 1074 311<336 1638>
AnchorPoint: "AboveBase" 960 1340 basechar 0
Fore
594 894 m 152,-1,1
 625 894 625 894 647 915 c 128,-1,2
 669 936 669 936 669 966 c 0,3,4
 669 998 669 998 646.5 1020 c 128,-1,5
 624 1042 624 1042 593 1042 c 128,-1,6
 562 1042 562 1042 539.5 1020 c 128,-1,7
 517 998 517 998 517 966 c 0,8,9
 517 936 517 936 540 915 c 128,-1,0
 563 894 563 894 594 894 c 152,-1,1
1056 0 m 1,10,-1
 784 391 l 1,11,-1
 504 0 l 1,12,-1
 172 0 l 1,13,-1
 172 836 l 2,14,15
 172 1033 172 1033 270.291 1126.57 c 128,-1,16
 368.581 1220.13 368.581 1220.13 555 1217 c 0,17,18
 674 1215 674 1215 746 1149 c 128,-1,19
 818 1083 818 1083 815 964 c 0,20,21
 812 867 812 867 742.5 808 c 128,-1,22
 673 749 673 749 594 748 c 0,23,24
 510.194 747 510.194 747 488 762 c 9,25,-1
 488 352 l 1,26,-1
 692 652 l 1,27,-1
 866 652 l 1,28,-1
 1074 336 l 1,29,-1
 1074 1638 l 1,30,-1
 1385 1638 l 1,31,-1
 1385 0 l 5,32,-1
 1056 0 l 1,10,-1
EndSplineSet
EndChar
StartChar: uni0E1E
Encoding: 3614 3614 153
Width: 1700
Flags: HW
HStem: 0 21G<338 653 1222 1531> 753 146<220.7 301.3> 1048 176<220.4 314.5>
VStem: 40 146<931.7 1013.6> 337 316<505 767 933 1013.6> 1221 310<500 1205>
Fore
929 640 m 25,0,-1
 653 0 l 1,1,-1
 338 0 l 1,2,-1
 337 767 l 1,3,4
 304 753 304 753 261 753 c 0,5,6
 183 753 183 753 111.5 814 c 128,-1,7
 40 875 40 875 40 960 c 0,8,9
 40 1068 40 1068 102 1145.5 c 128,-1,10
 164 1223 164 1223 314.5 1224 c 128,-1,11
 465 1225 465 1225 559 1131 c 128,-1,12
 653 1037 653 1037 653 821 c 2,13,-1
 653 505 l 1,14,-1
 854 1064 l 5,15,-1
 1013 1064 l 5,16,-1
 1221 500 l 1,17,-1
 1221 1205 l 1,18,-1
 1531 1205 l 1,19,-1
 1531 0 l 1,20,-1
 1222 0 l 1,21,-1
 929 640 l 25,0,-1
261 899 m 152,-1,23
 292 899 292 899 315 920.5 c 128,-1,24
 338 942 338 942 338 972 c 0,25,26
 338 1004 338 1004 316 1026 c 128,-1,27
 294 1048 294 1048 262 1048 c 128,-1,28
 230 1048 230 1048 208 1026 c 128,-1,29
 186 1004 186 1004 186 972 c 0,30,31
 186 941 186 941 208 920 c 128,-1,22
 230 899 230 899 261 899 c 152,-1,23
EndSplineSet
EndChar
StartChar: uni0E1F
Encoding: 3615 3615 154
Width: 1700
Flags: HW
HStem: 0 21G<338 653 1222 1531> 753 146<220.7 301.3> 1048 176<220.4 314.5>
VStem: 40 146<931.7 1013.6> 337 316<505 767 933 1013.6> 1221 310<500 1639>
AnchorPoint: "AboveBase" 1103 1296 basechar 0
Fore
929 640 m 25,0,-1
 653 0 l 1,1,-1
 338 0 l 1,2,-1
 337 767 l 1,3,4
 304 753 304 753 261 753 c 0,5,6
 183 753 183 753 111.5 814 c 128,-1,7
 40 875 40 875 40 960 c 0,8,9
 40 1068 40 1068 102 1145.5 c 128,-1,10
 164 1223 164 1223 314.5 1224 c 128,-1,11
 465 1225 465 1225 559 1131 c 128,-1,12
 653 1037 653 1037 653 821 c 2,13,-1
 653 505 l 1,14,-1
 854 1064 l 5,15,-1
 1013 1064 l 5,16,-1
 1221 500 l 1,17,-1
 1221 1639 l 1,18,-1
 1531 1639 l 1,19,-1
 1531 0 l 1,20,-1
 1222 0 l 1,21,-1
 929 640 l 25,0,-1
261 899 m 152,-1,23
 292 899 292 899 315 920.5 c 128,-1,24
 338 942 338 942 338 972 c 0,25,26
 338 1004 338 1004 316 1026 c 128,-1,27
 294 1048 294 1048 262 1048 c 128,-1,28
 230 1048 230 1048 208 1026 c 128,-1,29
 186 1004 186 1004 186 972 c 0,30,31
 186 941 186 941 208 920 c 128,-1,22
 230 899 230 899 261 899 c 152,-1,23
EndSplineSet
EndChar
StartChar: uni0E20
Encoding: 3616 3616 155
Width: 1550
Flags: MW
HStem: 0 21G<1053 1362> 986 237<765 792>
VStem: 1052 310<0 864.9>
Fore
320 328 m 152,-1,1
 289 328 289 328 267 307 c 128,-1,2
 245 286 245 286 245 255 c 128,-1,3
 245 224 245 224 267.5 201.5 c 128,-1,4
 290 179 290 179 321 179 c 128,-1,5
 352 179 352 179 374.5 201.5 c 128,-1,6
 397 224 397 224 397 255 c 0,7,8
 397 285 397 285 374 306.5 c 128,-1,0
 351 328 351 328 320 328 c 152,-1,1
339 506 m 1,9,10
 339 677 339 677 442 735 c 1,11,-1
 237 812 l 1,12,-1
 238 1088 l 1,13,14
 346 1161 346 1161 531.5 1192 c 128,-1,15
 717 1223 717 1223 806 1223 c 4,16,17
 1105 1223 1105 1223 1233.5 1103.5 c 128,-1,18
 1362 984 1362 984 1362 812 c 2,19,-1
 1362 0 l 1,20,-1
 1053 0 l 1,21,-1
 1052 796 l 2,22,23
 1052 849 1052 849 981 917 c 128,-1,24
 910 985 910 985 792 986 c 4,25,26
 738 986 738 986 667.5 974.5 c 128,-1,27
 597 963 597 963 551 938 c 1,28,-1
 771 837 l 1,29,-1
 771 635 l 1,30,31
 726 621 726 621 689.5 570.5 c 128,-1,32
 653 520 653 520 653 479 c 2,33,-1
 653 290 l 2,34,35
 653 142 653 142 556.5 65 c 128,-1,36
 460 -12 460 -12 341 -13 c 0,37,38
 203 -14 203 -14 131 56 c 128,-1,39
 59 126 59 126 59 235 c 0,40,41
 59 362 59 362 129.5 429.5 c 128,-1,42
 200 497 200 497 293 503 c 2,43,-1
 339 506 l 1,9,10
EndSplineSet
EndChar
StartChar: uni0E21
Encoding: 3617 3617 156
Width: 1560
Flags: W
HStem: 0 21G<1064 1375> 752 146<283.7 364.3> 1205 20G<298 541>
VStem: 103 146<930.7 1011.3> 401 318<579 766 932 1011.3> 1069 306<356 1203>
Fore
324 898 m 152,-1,1
 355 898 355 898 378 919.5 c 128,-1,2
 401 941 401 941 401 971 c 0,3,4
 401 1002 401 1002 378.5 1024.5 c 128,-1,5
 356 1047 356 1047 325 1047 c 128,-1,6
 294 1047 294 1047 271.5 1024.5 c 128,-1,7
 249 1002 249 1002 249 971 c 128,-1,8
 249 940 249 940 271 919 c 128,-1,0
 293 898 293 898 324 898 c 152,-1,1
719 541 m 1,9,10
 908 486 908 486 1069 356 c 1,11,-1
 1069 1204 l 1,12,-1
 1375 1203 l 1,13,-1
 1375 0 l 1,14,-1
 1064 0 l 1,15,16
 973 189 973 189 788 270 c 0,17,18
 760 282 760 282 719 296 c 1,19,-1
 719 266 l 2,20,21
 719 151 719 151 628.5 70 c 128,-1,22
 538 -11 538 -11 399.5 -11 c 128,-1,23
 261 -11 261 -11 180.5 69 c 128,-1,24
 100 149 100 149 100 285 c 0,25,26
 100 422 100 422 202 500.5 c 128,-1,27
 304 579 304 579 401 579 c 1,28,-1
 401 766 l 1,29,30
 376 752 376 752 311 752 c 128,-1,31
 246 752 246 752 174.5 813 c 128,-1,32
 103 874 103 874 103 972.5 c 128,-1,33
 103 1071 103 1071 168 1148 c 128,-1,34
 233 1225 233 1225 363 1225 c 0,35,36
 719 1225 719 1225 719 820 c 2,37,-1
 719 541 l 1,9,10
400 196 m 24,38,39
 435 196 435 196 460 220.5 c 128,-1,40
 485 245 485 245 485 279 c 0,41,42
 485 314 485 314 459.5 339 c 128,-1,43
 434 364 434 364 399 364 c 128,-1,44
 364 364 364 364 338.5 339 c 128,-1,45
 313 314 313 314 313 279 c 128,-1,46
 313 244 313 244 338.5 220 c 128,-1,47
 364 196 364 196 400 196 c 24,38,39
EndSplineSet
EndChar
StartChar: uni0E22
Encoding: 3618 3618 157
Width: 1470
Flags: W
HStem: 0 222<462 960> 447 200<595.3 724> 1048 175<481 577.3>
VStem: 613 146<931.7 1012.3> 960 315<222 1205>
Fore
538 898 m 152,-1,1
 569 898 569 898 591 919.5 c 128,-1,2
 613 941 613 941 613 972 c 128,-1,3
 613 1003 613 1003 590.5 1025.5 c 128,-1,4
 568 1048 568 1048 537 1048 c 128,-1,5
 506 1048 506 1048 483.5 1025.5 c 128,-1,6
 461 1003 461 1003 461 972 c 128,-1,7
 461 941 461 941 484 919.5 c 128,-1,0
 507 898 507 898 538 898 c 152,-1,1
462 222 m 1,8,-1
 960 222 l 1,9,-1
 960 1205 l 1,10,-1
 1275 1205 l 1,11,-1
 1275 0 l 1,12,-1
 153 0 l 1,13,-1
 153 237 l 2,14,15
 153 373 153 373 222 451.5 c 128,-1,16
 291 530 291 530 380 540 c 1,17,18
 275 573 275 573 200 653 c 128,-1,19
 125 733 125 733 126 888 c 0,20,21
 127 996 127 996 215 1109.5 c 128,-1,22
 303 1223 303 1223 481 1223 c 0,23,24
 635 1223 635 1223 697 1144.5 c 128,-1,25
 759 1066 759 1066 759 970.5 c 128,-1,26
 759 875 759 875 687.5 813.5 c 128,-1,27
 616 752 616 752 538 752 c 1,28,29
 499 744 499 744 461.5 758 c 128,-1,30
 424 772 424 772 404 789 c 1,31,32
 408 726 408 726 516.5 684.5 c 128,-1,33
 625 643 625 643 724 647 c 1,34,-1
 724 447 l 1,35,36
 579 452 579 452 520.5 402.5 c 128,-1,37
 462 353 462 353 462 222 c 1,8,-1
EndSplineSet
EndChar
StartChar: uni0E23
Encoding: 3619 3619 158
Width: 1190
Flags: MW
HStem: 984 241<686.5 779.5>
Fore
537 686 m 2,0,-1
 139 782 l 1,1,-1
 139 1088 l 1,2,3
 322 1164 322 1164 464.5 1194.5 c 128,-1,4
 607 1225 607 1225 718 1225 c 4,5,6
 1017 1225 1017 1225 1153 1122 c 1,7,-1
 970 858 l 1,8,9
 955 914 955 914 907 942 c 0,10,11
 837 984 837 984 722 984 c 4,12,13
 651 984 651 984 581 974.5 c 128,-1,14
 511 965 511 965 453 938 c 1,15,-1
 857 828 l 2,16,17
 1006 787 1006 787 1006 551 c 2,18,-1
 1006 330 l 2,19,20
 1006 173 1006 173 907.5 80 c 128,-1,21
 809 -13 809 -13 674 -12 c 128,-1,22
 539 -11 539 -11 460.5 62.5 c 128,-1,23
 382 136 382 136 382 258 c 0,24,25
 382 349 382 349 453.5 424 c 128,-1,26
 525 499 525 499 636 503 c 2,27,-1
 692 505 l 1,28,-1
 692 550 l 2,29,30
 692 649 692 649 537 686 c 2,0,-1
653 328 m 152,-1,32
 622 328 622 328 600 307 c 128,-1,33
 578 286 578 286 578 255 c 128,-1,34
 578 224 578 224 600 201.5 c 128,-1,35
 622 179 622 179 654 179 c 128,-1,36
 686 179 686 179 708 201.5 c 128,-1,37
 730 224 730 224 730 255 c 0,38,39
 730 285 730 285 707 306.5 c 128,-1,31
 684 328 684 328 653 328 c 152,-1,32
EndSplineSet
EndChar
StartChar: uni0E24
Encoding: 3620 3620 159
Width: 1410
Flags: MW
HStem: -11 21G<341 481> 983 240<664 664>
VStem: 911 309<-410 849.072>
Fore
911 -410 m 1,0,-1
 910 796 l 2,1,2
 909.956 849.072 909.956 849.072 847.131 909.919 c 128,-1,3
 784.307 970.765 784.307 970.765 664 983 c 4,4,5
 605 989 605 989 520 976 c 128,-1,6
 435 963 435 963 390 938 c 1,7,-1
 592 847 l 1,8,-1
 592 661 l 1,9,10
 514 633 514 633 471.5 599 c 128,-1,11
 429 565 429 565 423 512 c 1,12,-1
 479 509 l 2,13,14
 590.069 503.05 590.069 503.05 654 428 c 0,15,16
 723 347 723 347 723 241 c 128,-1,17
 723 135 723 135 637 62 c 128,-1,18
 551 -11 551 -11 411 -11 c 128,-1,19
 271 -11 271 -11 190 75.5 c 128,-1,20
 109 162 109 162 109 306 c 2,21,-1
 109 455 l 2,22,23
 109 532 109 532 158 613 c 128,-1,24
 207 694 207 694 282 735 c 1,25,-1
 76 812 l 1,26,-1
 76 1088 l 1,27,28
 206 1150 206 1150 359.877 1185.59 c 128,-1,29
 513.753 1221.18 513.753 1221.18 664 1223 c 4,30,31
 907.763 1225.95 907.763 1225.95 1063.88 1137.98 c 128,-1,32
 1220 1050 1220 1050 1220 812 c 2,33,-1
 1220 -410 l 1,34,-1
 911 -410 l 1,0,-1
442 334 m 152,-1,36
 411 334 411 334 388 312.5 c 128,-1,37
 365 291 365 291 365 261 c 0,38,39
 365 230 365 230 387.5 207.5 c 128,-1,40
 410 185 410 185 441 185 c 128,-1,41
 472 185 472 185 494.5 207.5 c 128,-1,42
 517 230 517 230 517 261 c 128,-1,43
 517 292 517 292 495 313 c 128,-1,35
 473 334 473 334 442 334 c 152,-1,36
EndSplineSet
EndChar
StartChar: uni0E25
Encoding: 3621 3621 160
Width: 1460
Flags: MW
HStem: -1 21G<966 1275> 606 254<398.9 688.2> 979 242<632 684>
VStem: 965 310<588 865>
Fore
477 317 m 24,0,1
 445 317 445 317 422.5 296 c 128,-1,2
 400 275 400 275 400 244 c 0,3,4
 399 213 399 213 421.5 190.5 c 128,-1,5
 444 168 444 168 476 168 c 0,6,7
 507 168 507 168 529 190 c 128,-1,8
 551 212 551 212 552 244 c 0,9,10
 552 275 552 275 530 296 c 128,-1,11
 508 317 508 317 477 317 c 24,0,1
501 860 m 0,12,13
 645 858 645 858 765 783 c 128,-1,14
 885 708 885 708 965 588 c 1,15,-1
 964 716 l 2,16,17
 963 865 963 865 876 920 c 128,-1,18
 789 975 789 975 632 979 c 0,19,20
 514 981 514 981 393 950 c 128,-1,21
 272 919 272 919 192 836 c 1,22,-1
 149 1082 l 1,23,24
 274 1147 274 1147 408 1182.5 c 128,-1,25
 542 1218 542 1218 684 1221 c 0,26,27
 914 1225 914 1225 1094.5 1121.5 c 128,-1,28
 1275 1018 1275 1018 1275 770 c 2,29,-1
 1275 -1 l 1,30,-1
 966 -1 l 1,31,32
 859 352 859 352 755.5 481 c 128,-1,33
 652 610 652 610 525 606 c 0,34,35
 428 603 428 603 428 485 c 1,36,-1
 494 483 l 2,37,38
 612 479 612 479 679 406 c 0,39,40
 748 331 748 331 748 225 c 128,-1,41
 748 119 748 119 665 54 c 128,-1,42
 582 -11 582 -11 438.5 -11.5 c 128,-1,43
 295 -12 295 -12 210 81 c 0,44,45
 125 176 125 176 124 319 c 2,46,-1
 123 494 l 2,47,48
 122 650 122 650 236 756 c 128,-1,49
 350 862 350 862 501 860 c 0,12,13
EndSplineSet
EndChar
StartChar: uni0E26
Encoding: 3622 3622 161
Width: 1570
Flags: MW
HStem: 983 240<802 805>
VStem: 1053 309<-410 888.158>
Fore
320 328 m 152,-1,1
 289 328 289 328 267 307 c 128,-1,2
 245 286 245 286 245 255 c 128,-1,3
 245 224 245 224 267.5 201.5 c 128,-1,4
 290 179 290 179 321 179 c 128,-1,5
 352 179 352 179 374.5 201.5 c 128,-1,6
 397 224 397 224 397 255 c 0,7,8
 397 285 397 285 374 306.5 c 128,-1,0
 351 328 351 328 320 328 c 152,-1,1
1053 -410 m 1,9,-1
 1052 796 l 2,10,11
 1051.92 888.158 1051.92 888.158 992.456 934.798 c 128,-1,12
 932.988 981.439 932.988 981.439 805 983 c 4,13,14
 723 984 723 984 660 973.5 c 128,-1,15
 597 963 597 963 551 938 c 1,16,-1
 771 837 l 1,17,-1
 771 635 l 1,18,19
 726 621 726 621 689.5 570.5 c 128,-1,20
 653 520 653 520 653 479 c 2,21,-1
 653 290 l 2,22,23
 653 138 653 138 550 63 c 128,-1,24
 447 -12 447 -12 341 -12 c 0,25,26
 203 -13 203 -13 127 62.5 c 128,-1,27
 51 138 51 138 49 248 c 0,28,29
 48 341 48 341 114.358 418.339 c 128,-1,30
 180.717 495.677 180.717 495.677 293 503 c 2,31,-1
 339 506 l 1,32,33
 339 573 339 573 358.5 636 c 128,-1,34
 378 699 378 699 442 735 c 1,35,-1
 237 812 l 1,36,-1
 238 1088 l 1,37,38
 380 1147 380 1147 506 1185 c 128,-1,39
 632 1223 632 1223 802 1223 c 4,40,41
 1044 1223 1044 1223 1203 1125.5 c 128,-1,42
 1362 1028 1362 1028 1362 812 c 2,43,-1
 1362 -410 l 1,44,-1
 1053 -410 l 1,9,-1
EndSplineSet
EndChar
StartChar: uni0E27
Encoding: 3623 3623 162
Width: 1270
Flags: MW
HStem: 981 240<421 564.5>
VStem: 774 311<517 863.9>
Fore
731 334 m 152,-1,1
 700 334 700 334 678 313 c 128,-1,2
 656 292 656 292 656 261 c 128,-1,3
 656 230 656 230 678 207.5 c 128,-1,4
 700 185 700 185 732 185 c 128,-1,5
 764 185 764 185 786 207.5 c 128,-1,6
 808 230 808 230 808 261 c 0,7,8
 808 291 808 291 785 312.5 c 128,-1,0
 762 334 762 334 731 334 c 152,-1,1
774 717 m 2,9,10
 774 830 774 830 711 905.5 c 128,-1,11
 648 981 648 981 481 981 c 4,12,13
 338 981 338 981 236.5 946 c 128,-1,14
 135 911 135 911 81 837 c 1,15,-1
 38 1083 l 1,16,17
 139 1153 139 1153 250 1187 c 128,-1,18
 361 1221 361 1221 481 1221 c 4,19,20
 753 1221 753 1221 919 1119.5 c 128,-1,21
 1085 1018 1085 1018 1085 771 c 2,22,-1
 1085 316 l 2,23,24
 1085 158 1085 158 994 73.5 c 128,-1,25
 903 -11 903 -11 752 -11 c 0,26,27
 627 -9 627 -9 548.5 67 c 128,-1,28
 470 143 470 143 470 264 c 0,29,30
 470 355 470 355 548.5 437 c 128,-1,31
 627 519 627 519 734 519 c 2,32,-1
 774 517 l 1,33,-1
 774 717 l 2,9,10
EndSplineSet
EndChar
StartChar: uni0E28
Encoding: 3624 3624 163
Width: 1580
Flags: HMW
HStem: 0 21G<173 484> 343 124<734.7 815.3> 616 144<734.4 817.6> 984 239<781 789>
VStem: 152 320<587 861.1> 852 128<501 581.6> 1076 311<1 799.425>
Fore
471 577 m 1,36,37
 513 678 513 678 595 741.5 c 128,-1,31
 677 805 677 805 774 805 c 0,0,1
 857 805 857 805 925.5 742.5 c 128,-1,2
 994 680 994 680 995 593 c 0,3,4
 996 509 996 509 928 448.5 c 128,-1,5
 860 388 860 388 778 390 c 0,6,7
 670 393 670 393 620 453 c 1,8,9
 562.102 357.158 562.102 357.158 523.051 258.579 c 128,-1,10
 484 160 484 160 484 0 c 1,11,-1
 173 0 l 1,11,-1
 152 732 l 2,12,13
 146.423 926.395 146.423 926.395 303.712 1073.2 c 132,-1,14
 461 1220 461 1220 781 1223 c 0,15,16
 1030 1225 1030 1225 1146 1144 c 1,17,-1
 1242 1278 l 1,18,-1
 1462 1129 l 1,19,-1
 1315 985 l 1,20,21
 1387 874 1387 874 1387 729 c 2,22,-1
 1387 0 l 1,23,-1
 1076 1 l 1,24,-1
 1076 738 l 2,25,26
 1076 762 1076 762 1074 786 c 1,27,-1
 1012 744 l 1,28,-1
 859 828 l 1,29,-1
 978 930 l 1,30,31
 934 984 934 984 789 984 c 0,32,33
 629 983 629 983 550.827 910.581 c 132,-1,34
 472.653 838.162 472.653 838.162 472 735 c 2,35,-1
 471 577 l 1,36,37
775 517 m 152,-1,33
 806 517 806 517 829 538.5 c 128,-1,34
 852 560 852 560 852 590 c 0,35,36
 852 622 852 622 830 644 c 128,-1,37
 808 666 808 666 776 666 c 128,-1,38
 744 666 744 666 722 644 c 128,-1,39
 700 622 700 622 700 590 c 0,40,41
 700 559 700 559 722 538 c 128,-1,32
 744 517 744 517 775 517 c 152,-1,33
EndSplineSet
EndChar
StartChar: uni0E29
Encoding: 3625 3625 164
Width: 1620
Flags: W
HStem: 0 222<651 1114> 699 119<874.528 942.598> 744 146<218.7 299.3> 1039 176<218.4 308>
VStem: 38 146<922.7 1003.3> 336 315<222 755 924 1003.3> 727 121<608.596 674.2> 1114 314<222 410 935.781 1205>
Fore
259 890 m 152,-1,1
 290 890 290 890 313 911.5 c 128,-1,2
 336 933 336 933 336 963 c 0,3,4
 336 994 336 994 314 1016.5 c 128,-1,5
 292 1039 292 1039 260 1039 c 128,-1,6
 228 1039 228 1039 206 1016.5 c 128,-1,7
 184 994 184 994 184 963 c 128,-1,8
 184 932 184 932 206 911 c 128,-1,0
 228 890 228 890 259 890 c 152,-1,1
1428 466 m 9,9,-1
 1428 0 l 1,10,-1
 337 0 l 1,11,-1
 336 755 l 1,12,13
 316 744 316 744 259 744 c 0,14,15
 165 744 165 744 101.5 807.5 c 128,-1,16
 38 871 38 871 38 961 c 0,17,18
 38 1071 38 1071 105 1143 c 128,-1,19
 172 1215 172 1215 308 1215 c 0,20,21
 463 1215 463 1215 557 1123.5 c 128,-1,22
 651 1032 651 1032 651 822 c 2,23,-1
 651 222 l 1,24,-1
 1114 222 l 1,25,-1
 1114 410 l 17,26,27
 938 410 938 410 833 473 c 128,-1,28
 728 536 728 536 727 647 c 0,29,30
 727 714 727 714 782.5 767.5 c 128,-1,31
 838 821 838 821 925 818 c 0,32,33
 990 816 990 816 1046.5 769.5 c 128,-1,34
 1103 723 1103 723 1114 624 c 9,35,-1
 1114 1205 l 1,36,-1
 1428 1205 l 1,37,-1
 1428 682 l 17,38,39
 1493 726 1493 726 1542 801 c 1,40,-1
 1581 552 l 1,41,42
 1519 498 1519 498 1428 466 c 9,9,-1
908 585 m 24,43,44
 932 584 932 584 950 600 c 128,-1,45
 968 616 968 616 969 640 c 128,-1,46
 970 664 970 664 952.5 681 c 128,-1,47
 935 698 935 698 911 699 c 0,48,49
 886 699 886 699 867.5 683 c 128,-1,50
 849 667 849 667 848 643 c 128,-1,51
 847 619 847 619 865 602.5 c 128,-1,52
 883 586 883 586 908 585 c 24,43,44
EndSplineSet
EndChar
StartChar: uni0E2A
Encoding: 3626 3626 165
Width: 1490
Flags: MW
HStem: 609 254<454.9 722.7> 983 240<592.5 696>
Fore
497 328 m 152,-1,1
 466 328 466 328 443 306.5 c 128,-1,2
 420 285 420 285 420 255 c 0,3,4
 420 224 420 224 442 201.5 c 128,-1,5
 464 179 464 179 496 179 c 128,-1,6
 528 179 528 179 550 201.5 c 128,-1,7
 572 224 572 224 572 255 c 128,-1,8
 572 286 572 286 550 307 c 128,-1,0
 528 328 528 328 497 328 c 152,-1,1
511 863 m 0,9,10
 693 863 693 863 809 777 c 128,-1,11
 925 691 925 691 987 591 c 1,12,-1
 987 719 l 2,13,14
 987 795 987 795 972 814 c 1,15,-1
 900 759 l 1,16,-1
 790 842 l 1,17,-1
 888 924 l 1,18,19
 852 966 852 966 789.5 974.5 c 128,-1,20
 727 983 727 983 665 983 c 4,21,22
 526 987 526 987 413.5 950 c 128,-1,23
 301 913 301 913 212 839 c 1,24,-1
 169 1085 l 1,25,26
 273 1152 273 1152 396.5 1187.5 c 128,-1,27
 520 1223 520 1223 665 1223 c 4,28,29
 786 1224 786 1224 894 1211 c 128,-1,30
 1002 1198 1002 1198 1068 1158 c 1,31,-1
 1128 1276 l 1,32,-1
 1355 1134 l 1,33,-1
 1233 1012 l 1,34,35
 1296 916 1296 916 1296 773 c 2,36,-1
 1296 -2 l 1,37,-1
 986 -1 l 1,38,39
 913 241 913 241 798.5 425 c 128,-1,40
 684 609 684 609 555 609 c 0,41,42
 478 609 478 609 448 506 c 1,43,-1
 524 503 l 2,44,45
 630 503 630 503 699 422 c 128,-1,46
 768 341 768 341 768 248 c 0,47,48
 768 127 768 127 683.5 58 c 128,-1,49
 599 -11 599 -11 456 -12 c 0,50,51
 318 -12 318 -12 230.5 79.5 c 128,-1,52
 143 171 143 171 143 330 c 2,53,-1
 143 487 l 2,54,55
 143 646 143 646 251.5 754.5 c 128,-1,56
 360 863 360 863 511 863 c 0,9,10
EndSplineSet
EndChar
StartChar: uni0E2B
Encoding: 3627 3627 166
Width: 1620
Flags: W
HStem: 0 21G<335 675 1136 1446> 756 146<218.7 299.3> 1066 158<1123 1227>
VStem: 38 146<934.7 1015.3> 335 316<540 760 936 1015.3> 898 180<919.3 1022> 1136 310<0 698.9> 1271 175<919.3 1022>
Fore
1136 656 m 2,0,1
 1136 689 1136 689 1106 701 c 1,2,3
 1064 629 1064 629 868.5 390.5 c 128,-1,4
 673 152 673 152 675 0 c 1,5,-1
 335 0 l 1,6,-1
 335 760 l 1,7,-1
 259 756 l 0,8,9
 181 756 181 756 109.5 817 c 128,-1,10
 38 878 38 878 38 963 c 0,11,12
 38 1070 38 1070 105.5 1148 c 128,-1,13
 173 1226 173 1226 298 1226 c 0,14,15
 451 1226 451 1226 551 1128.5 c 128,-1,16
 651 1031 651 1031 651 824 c 2,17,-1
 651 540 l 1,18,19
 676 569 676 569 805.5 668.5 c 128,-1,20
 935 768 935 768 950 812 c 1,21,22
 928 837 928 837 913 879.5 c 128,-1,23
 898 922 898 922 898 956 c 0,24,25
 898 1068 898 1068 979.5 1146 c 128,-1,26
 1061 1224 1061 1224 1174 1224 c 0,27,28
 1286 1224 1286 1224 1366 1145.5 c 128,-1,29
 1446 1067 1446 1067 1446 956 c 0,30,31
 1446 857 1446 857 1377 783 c 1,32,33
 1446 696 1446 696 1446 596 c 2,34,-1
 1446 0 l 1,35,-1
 1136 0 l 1,36,-1
 1136 656 l 2,0,1
1174 876 m 24,37,38
 1214 876 1214 876 1242.5 903.5 c 128,-1,39
 1271 931 1271 931 1271 970 c 0,40,41
 1271 1010 1271 1010 1243 1038 c 128,-1,42
 1215 1066 1215 1066 1175 1066 c 128,-1,43
 1135 1066 1135 1066 1106.5 1038 c 128,-1,44
 1078 1010 1078 1010 1078 970 c 0,45,46
 1078 931 1078 931 1106.5 903.5 c 128,-1,47
 1135 876 1135 876 1174 876 c 24,37,38
259 902 m 152,-1,49
 290 902 290 902 313 923.5 c 128,-1,50
 336 945 336 945 336 975 c 0,51,52
 336 1006 336 1006 314 1028.5 c 128,-1,53
 292 1051 292 1051 260 1051 c 128,-1,54
 228 1051 228 1051 206 1028.5 c 128,-1,55
 184 1006 184 1006 184 975 c 128,-1,56
 184 944 184 944 206 923 c 128,-1,48
 228 902 228 902 259 902 c 152,-1,49
EndSplineSet
EndChar
StartChar: uni0E2C
Encoding: 3628 3628 167
Width: 1700
Flags: W
HStem: 0 21G<338 653 1222 1531> 753 146<220.7 301.3> 1048 176<220.4 314.5>
VStem: 40 146<931.7 1013.6> 337 316<475 767 933 1013.6> 1221 310<470 936>
AnchorPoint: "AboveBase" 774 1341 basechar 0
Fore
1221 936 m 1,0,1
 1078.66 938 1078.66 938 975.752 1028.5 c 128,-1,2
 873 1119 873 1119 873 1246 c 0,3,4
 873 1390 873 1390 968.443 1480.99 c 128,-1,5
 1063.89 1571.98 1063.89 1571.98 1205 1574 c 0,6,7
 1347.91 1576.04 1347.91 1576.04 1438.45 1483.02 c 128,-1,8
 1529 1390 1529 1390 1529 1258 c 1,9,10
 1586 1292 1586 1292 1650 1366 c 1,11,-1
 1678 1107 l 1,12,13
 1606 1052 1606 1052 1531 1016 c 1,14,-1
 1531 0 l 1,15,-1
 1222 0 l 1,16,-1
 929 560 l 25,17,-1
 653 0 l 1,18,-1
 338 0 l 1,19,-1
 337 767 l 1,20,21
 304 753 304 753 261 753 c 0,22,23
 183 753 183 753 111.5 814 c 128,-1,24
 40 875 40 875 40 960 c 0,25,26
 40 1068 40 1068 102 1145.5 c 128,-1,27
 164 1223 164 1223 314.5 1224 c 128,-1,28
 465 1225 465 1225 559 1131 c 128,-1,29
 653 1037 653 1037 653 821 c 2,30,-1
 653 475 l 1,31,-1
 854 894 l 5,32,-1
 1013 894 l 5,33,-1
 1221 470 l 1,34,-1
 1221 936 l 1,0,1
261 899 m 152,-1,36
 292 899 292 899 315 920.5 c 128,-1,37
 338 942 338 942 338 972 c 0,38,39
 338 1004 338 1004 316 1026 c 128,-1,40
 294 1048 294 1048 262 1048 c 128,-1,41
 230 1048 230 1048 208 1026 c 128,-1,42
 186 1004 186 1004 186 972 c 0,43,44
 186 941 186 941 208 920 c 128,-1,35
 230 899 230 899 261 899 c 152,-1,36
1203 1174 m 24,45,46
 1233 1175 1233 1175 1254.5 1196.5 c 128,-1,47
 1276 1218 1276 1218 1275 1248 c 0,48,49
 1274 1279 1274 1279 1252.5 1301.5 c 128,-1,50
 1231 1324 1231 1324 1201 1323 c 0,51,52
 1169 1322 1169 1322 1146 1299.5 c 128,-1,53
 1123 1277 1123 1277 1124 1246 c 128,-1,54
 1125 1215 1125 1215 1148 1194 c 128,-1,55
 1171 1173 1171 1173 1203 1174 c 24,45,46
EndSplineSet
EndChar
StartChar: uni0E2D
Encoding: 3629 3629 168
Width: 1420
Flags: MW
HStem: 0 222<465 933> 353 146<510.4 592.3> 648 178<500 591.3> 986 240<609 609>
VStem: 933 306<222 893.6>
Fore
552 499 m 24,0,1
 583 499 583 499 605 520 c 128,-1,2
 627 541 627 541 627 572 c 0,3,4
 626 604 626 604 604 626 c 128,-1,5
 582 648 582 648 551 648 c 0,6,7
 519 648 519 648 496.5 625.5 c 128,-1,8
 474 603 474 603 475 572 c 0,9,10
 475 541 475 541 497.5 520 c 128,-1,11
 520 499 520 499 552 499 c 24,0,1
933 722 m 2,12,13
 933 854 933 854 843 918 c 128,-1,14
 753 982 753 982 609 986 c 4,15,16
 472 990 472 990 353.5 955.5 c 128,-1,17
 235 921 235 921 157 842 c 1,18,-1
 114 1088 l 1,19,20
 235 1159 235 1159 359 1192.5 c 128,-1,21
 483 1226 483 1226 609 1226 c 4,22,23
 881 1226 881 1226 1060 1129 c 128,-1,24
 1239 1032 1239 1032 1239 776 c 2,25,-1
 1239 -1 l 1,26,-1
 150 0 l 1,27,-1
 150 421 l 2,28,29
 150 576 150 576 234 699 c 128,-1,30
 318 822 318 822 500 826 c 0,31,32
 635 829 635 829 712.5 759.5 c 128,-1,33
 790 690 790 690 793 570 c 0,34,35
 795 483 795 483 721 418.5 c 128,-1,36
 647 354 647 354 552 353 c 0,37,38
 486 353 486 353 465 367 c 9,39,-1
 465 222 l 1,40,-1
 933 222 l 1,41,-1
 933 722 l 2,12,13
EndSplineSet
EndChar
StartChar: uni0E2E
Encoding: 3630 3630 169
Width: 1460
Flags: W
HStem: 0 222<486 959> 257 131<532.7 613.3> 736 179<457.047 650.777> 1019 207<506.143 704.893>
VStem: 648 146<420.7 501.3> 959 305<222 834.001>
Fore
573 388 m 152,-1,1
 604 388 604 388 626 409 c 128,-1,2
 648 430 648 430 648 461 c 128,-1,3
 648 492 648 492 626 514.5 c 128,-1,4
 604 537 604 537 572 537 c 128,-1,5
 540 537 540 537 518 514.5 c 128,-1,6
 496 492 496 492 496 461 c 0,7,8
 496 431 496 431 519 409.5 c 128,-1,0
 542 388 542 388 573 388 c 152,-1,1
947 838 m 1,9,10
 887 802 887 802 766 769 c 128,-1,11
 645 736 645 736 556 736 c 0,12,13
 383 734 383 734 262.5 787 c 128,-1,14
 142 840 142 840 140 936 c 0,15,16
 138 1088 138 1088 299.5 1156.5 c 128,-1,17
 461 1225 461 1225 635 1226 c 4,18,19
 880 1228 880 1228 1031 1166 c 1,20,21
 1104 1228 1104 1228 1160 1316 c 1,22,-1
 1324 1094 l 1,23,-1
 1207 1007 l 1,24,25
 1264 912 1264 912 1264 776 c 2,26,-1
 1263 0 l 1,27,-1
 170 0 l 1,28,-1
 170 310 l 2,29,30
 170 509 170 509 287 611.5 c 128,-1,31
 404 714 404 714 544 712 c 0,32,33
 632 711 632 711 714 657.5 c 128,-1,34
 796 604 796 604 794 449 c 0,35,36
 793 364 793 364 725 312 c 128,-1,37
 657 260 657 260 573 257 c 0,38,39
 514 255 514 255 487 266 c 1,40,-1
 486 222 l 1,41,-1
 959 222 l 1,42,-1
 959 722 l 2,43,44
 959 791 959 791 947 838 c 1,9,10
812 984 m 1,45,46
 781 995 781 995 730.5 1005.5 c 128,-1,47
 680 1016 680 1016 637 1019 c 4,48,49
 580 1022 580 1022 504 1007.5 c 128,-1,50
 428 993 428 993 428 960 c 0,51,52
 429 931 429 931 470 923 c 128,-1,53
 511 915 511 915 558 915 c 0,54,55
 619 915 619 915 682.5 932.5 c 128,-1,56
 746 950 746 950 812 984 c 1,45,46
EndSplineSet
EndChar
StartChar: uni0E2F
Encoding: 3631 3631 170
Width: 1410
Flags: W
HStem: 0 21G<877 1188> 487.82 253.18<439.694 674.6> 1058 157<272.4 355.6>
VStem: 390 161<941.7 1023.6> 877 311<0 624>
Back
1217 1509.5 m 29,0,-1
 1217 -110.5 l 1
1260 1207.5 m 29,2,-1
 1260 -412.5 l 1
1411 1327.5 m 29,4,-1
 1410 -292.5 l 1
1324 1318.5 m 29,6,-1
 1323 -301.5 l 1
1392 1276.5 m 29,8,-1
 1391 -343.5 l 1
1310 1149.5 m 29,10,-1
 1310 -470.5 l 1
EndSplineSet
Fore
315 909 m 152,-1,1
 346 909 346 909 368 930 c 128,-1,2
 390 951 390 951 390 982 c 0,3,4
 390 1014 390 1014 368 1036 c 128,-1,5
 346 1058 346 1058 314 1058 c 128,-1,6
 282 1058 282 1058 260 1036 c 128,-1,7
 238 1014 238 1014 238 982 c 0,8,9
 238 952 238 952 261 930.5 c 128,-1,0
 284 909 284 909 315 909 c 152,-1,1
34 890 m 2,10,-1
 35 951 l 2,11,12
 36.9667 1070.97 36.9667 1070.97 119 1142.5 c 128,-1,13
 201 1214 201 1214 310 1215 c 0,14,15
 428 1216 428 1216 489.5 1144 c 128,-1,16
 551 1072 551 1072 551 968 c 0,17,18
 551 885 551 885 495.5 834.5 c 128,-1,19
 440 784 440 784 369 783 c 1,20,21
 381 772 381 772 424.5 756 c 128,-1,22
 468 740 468 740 495 741 c 0,23,24
 748 752 748 752 837 1161 c 1,25,-1
 1187 1081 l 1,26,-1
 1188 0 l 1,27,-1
 877 0 l 1,28,-1
 877 624 l 1,29,30
 849 579 849 579 737.5 532 c 128,-1,31
 626 485 626 485 464 488 c 0,32,33
 335 490 335 490 183 594.5 c 128,-1,34
 30.8703 699.089 30.8703 699.089 34 890 c 2,10,-1
EndSplineSet
EndChar
StartChar: uni0E30
Encoding: 3632 3632 171
Width: 1160
Flags: W
HStem: 28 186<238.8 396> 328 128.017<235.959 305.631> 1012 129.017<241.827 311.598>
VStem: 86 131<237.596 303.2 921.596 987.2>
Fore
276 898 m 24,0,1
 301 897 301 897 319 913 c 128,-1,2
 337 929 337 929 338 953 c 128,-1,3
 339 977 339 977 321.5 994 c 128,-1,4
 304 1011 304 1011 280 1012 c 0,5,6
 255 1013 255 1013 236.5 996.5 c 128,-1,7
 218 980 218 980 217 956 c 128,-1,8
 216 932 216 932 234 915.5 c 128,-1,9
 252 899 252 899 276 898 c 24,0,1
921 1147 m 1,10,-1
 970 888 l 1,11,12
 873 814 873 814 708.5 766 c 128,-1,13
 544 718 544 718 402 714 c 0,14,15
 344 713 344 713 285 728.5 c 128,-1,16
 226 744 226 744 189 769 c 0,17,18
 87 839 87 839 86 965 c 0,19,20
 85 1025 85 1025 147 1083.5 c 128,-1,21
 209 1142 209 1142 284 1141 c 0,22,23
 358 1140 358 1140 414.5 1083.5 c 128,-1,24
 471 1027 471 1027 471 961 c 0,25,26
 471 937.183 471 937.183 477.322 940.884 c 1,27,28
 472.404 938.005 472.404 938.005 466 930 c 1,29,30
 551 938 551 938 694 1000.5 c 128,-1,31
 837 1063 837 1063 921 1147 c 1,10,-1
270 214 m 152,-1,33
 294 213 294 213 312.5 229 c 128,-1,34
 331 245 331 245 332 269 c 128,-1,35
 333 293 333 293 315.5 310 c 128,-1,36
 298 327 298 327 273 328 c 0,37,38
 249 329 249 329 230.5 312.5 c 128,-1,39
 212 296 212 296 211 272 c 128,-1,40
 210 248 210 248 228 231.5 c 128,-1,32
 246 215 246 215 270 214 c 152,-1,33
915 462 m 1,41,-1
 964 203 l 1,42,43
 866 129 866 129 702 80.5 c 128,-1,44
 538 32 538 32 396 28 c 0,45,46
 271 25 271 25 189 81 c 0,47,48
 80 156 80 156 80 280 c 0,49,50
 79 340 79 340 141 398.5 c 128,-1,51
 203 457 203 457 278 456 c 0,52,53
 352 455 352 455 408.5 398.5 c 128,-1,54
 465 342 465 342 465 276 c 0,55,56
 465 253.592 465 253.592 470.823 255.697 c 1,57,58
 467.139 254.365 467.139 254.365 470.08 256.337 c 1,59,60
 466.381 253.857 466.381 253.857 459 245 c 1,61,62
 545 253 545 253 688 315.5 c 128,-1,63
 831 378 831 378 915 462 c 1,41,-1
EndSplineSet
EndChar
StartChar: uni0E31
Encoding: 3633 3633 172
Width: 0
Flags: W
HStem: 1336 175<-508.5 -350> 1625 119.017<-508.37 -440.369>
VStem: -666 131<1533.81 1600.2>
AnchorPoint: "AboveMark" -195 1752 basemark 0
AnchorPoint: "AboveBase" -318 1284 mark 0
Fore
-476 1511 m 24,0,1
 -452 1510 -452 1510 -433.5 1526 c 128,-1,2
 -415 1542 -415 1542 -414 1566 c 128,-1,3
 -413 1590 -413 1590 -430.5 1607 c 128,-1,4
 -448 1624 -448 1624 -473 1625 c 0,5,6
 -497 1625 -497 1625 -515.5 1609 c 128,-1,7
 -534 1593 -534 1593 -535 1569 c 128,-1,8
 -536 1545 -536 1545 -518.5 1528.5 c 128,-1,9
 -501 1512 -501 1512 -476 1511 c 24,0,1
179 1740 m 1,10,-1
 218 1491 l 1,11,12
 124 1420 124 1420 -37 1380 c 128,-1,13
 -198 1340 -198 1340 -350 1336 c 0,14,15
 -475 1331 -475 1331 -552 1384 c 0,16,17
 -665 1460 -665 1460 -666 1573 c 0,18,19
 -667 1632 -667 1632 -604.5 1688.5 c 128,-1,20
 -542 1745 -542 1745 -468 1744 c 128,-1,21
 -394 1743 -394 1743 -337.5 1686.5 c 128,-1,22
 -281 1630 -281 1630 -281 1563 c 0,23,24
 -281 1540.31 -281 1540.31 -274.989 1543.62 c 1,25,26
 -284.014 1538.65 -284.014 1538.65 -276.166 1544.16 c 1,27,28
 -279.869 1541.56 -279.869 1541.56 -287 1533 c 1,29,30
 -196 1541 -196 1541 -50 1599 c 128,-1,31
 96 1657 96 1657 179 1740 c 1,10,-1
EndSplineSet
EndChar
StartChar: uni0E32
Encoding: 3634 3634 173
Width: 1220
Flags: MW
HStem: 0 21G<722 1033> 990 240<448 448>
VStem: 722 311<0 862>
Fore
1033 0 m 1,0,-1
 1033 780 l 2,1,2
 1033 1016 1033 1016 892.5 1122.5 c 128,-1,3
 752 1229 752 1229 448 1230 c 4,4,5
 282 1231 282 1231 185.5 1183.5 c 128,-1,6
 89 1136 89 1136 35 1092 c 1,7,-1
 78 846 l 1,8,9
 126 900 126 900 212.005 945.532 c 128,-1,10
 298.009 991.064 298.009 991.064 448 990 c 4,11,12
 576.758 989.087 576.758 989.087 649.379 925.543 c 128,-1,13
 722 862 722 862 722 726 c 2,14,-1
 722 0 l 1,15,-1
 1033 0 l 1,0,-1
EndSplineSet
EndChar
StartChar: uni0E34
Encoding: 3636 3636 175
Width: 0
Flags: W
HStem: 1422.4 149.604<-966.99 -559.919> 1429 149<-1010.5 -642.21> 1683 159<-831.3 -631.479>
AnchorPoint: "AboveMark" -284 1841 basemark 0
AnchorPoint: "AboveBase" -186 1288 mark 0
Fore
-480 1536 m 1,0,1
 -508 1577 -508 1577 -525 1597 c 128,-1,2
 -542 1617 -542 1617 -571 1640.5 c 128,-1,3
 -600 1664 -600 1664 -637.5 1673.5 c 128,-1,4
 -675 1683 -675 1683 -726 1683 c 0,5,6
 -807 1683 -807 1683 -849.5 1659.5 c 128,-1,7
 -892 1636 -892 1636 -930 1578 c 1,8,9
 -821 1580 -821 1580 -705 1572 c 0,10,11
 -595 1565 -595 1565 -480 1536 c 1,0,1
-180 1326 m 1,12,13
 -260 1347 -260 1347 -417.5 1379.5 c 128,-1,14
 -575 1412 -575 1412 -702 1422 c 0,15,16
 -855 1432 -855 1432 -1010.5 1429 c 128,-1,17
 -1166 1426 -1166 1426 -1231 1414 c 1,18,-1
 -1230 1575 l 1,19,20
 -1171 1685 -1171 1685 -1021 1761 c 128,-1,21
 -871 1837 -871 1837 -723 1842 c 0,22,23
 -634 1843 -634 1843 -545 1815.5 c 128,-1,24
 -456 1788 -456 1788 -382.5 1741 c 128,-1,25
 -309 1694 -309 1694 -249.5 1639.5 c 128,-1,26
 -190 1585 -190 1585 -144 1524 c 1,27,-1
 -180 1326 l 1,12,13
EndSplineSet
EndChar
StartChar: uni0E35
Encoding: 3637 3637 176
Width: 0
Flags: W
HStem: 1422.4 149.604<-966.99 -559.919> 1429 149<-1010.5 -642.21> 1683 159<-831.3 -631.479>
VStem: -402.42 197.42<1752.52 1903>
AnchorPoint: "AboveBase" -190 1283 mark 0
AnchorPoint: "AboveMark" -288 1962 basemark 0
Fore
-480 1536 m 1,0,1
 -508 1577 -508 1577 -525 1597 c 128,-1,2
 -542 1617 -542 1617 -571 1640.5 c 128,-1,3
 -600 1664 -600 1664 -637.5 1673.5 c 128,-1,4
 -675 1683 -675 1683 -726 1683 c 0,5,6
 -807 1683 -807 1683 -849.5 1659.5 c 128,-1,7
 -892 1636 -892 1636 -930 1578 c 1,8,9
 -821 1580 -821 1580 -705 1572 c 0,10,11
 -595 1565 -595 1565 -480 1536 c 1,0,1
-204.974 1595.54 m 1,12,13
 -171.984 1560.73 -171.984 1560.73 -144 1524 c 1,14,-1
 -180 1326 l 1,15,16
 -260 1347 -260 1347 -417.5 1379.5 c 128,-1,17
 -575 1412 -575 1412 -702 1422 c 0,18,19
 -855 1432 -855 1432 -1010.5 1429 c 128,-1,20
 -1166 1426 -1166 1426 -1231 1414 c 1,21,-1
 -1230 1575 l 1,22,23
 -1171 1685 -1171 1685 -1021 1761 c 128,-1,24
 -871 1837 -871 1837 -723 1842 c 0,25,26
 -561.067 1843.96 -561.067 1843.96 -402.42 1752.52 c 1,27,-1
 -402 1903 l 1,28,-1
 -205 1903 l 1,29,-1
 -204.974 1595.54 l 1,12,13
EndSplineSet
EndChar
StartChar: uni0E36
Encoding: 3638 3638 177
Width: 0
Flags: W
HStem: 1422.4 149.604<-966.99 -559.919> 1429 149<-1010.5 -642.21> 1683 159<-831.3 -631.479> 1840.5 123<-341.748 -264.159>
VStem: -231.5 122<1733.1 1808.29>
AnchorPoint: "AboveBase" -187 1284 mark 0
AnchorPoint: "AboveMark" -256.5 2001.5 basemark 0
Fore
-480 1536 m 1,0,1
 -508 1577 -508 1577 -525 1597 c 128,-1,2
 -542 1617 -542 1617 -571 1640.5 c 128,-1,3
 -600 1664 -600 1664 -637.5 1673.5 c 128,-1,4
 -675 1683 -675 1683 -726 1683 c 0,5,6
 -807 1683 -807 1683 -849.5 1659.5 c 128,-1,7
 -892 1636 -892 1636 -930 1578 c 1,8,9
 -821 1580 -821 1580 -705 1572 c 0,10,11
 -595 1565 -595 1565 -480 1536 c 1,0,1
-486.171 1794.05 m 1,12,13
 -486.803 1858.06 -486.803 1858.06 -431.347 1910.78 c 128,-1,14
 -375.892 1963.5 -375.892 1963.5 -303.5 1963.5 c 0,15,16
 -221.908 1963.5 -221.908 1963.5 -165.704 1907.7 c 128,-1,17
 -109.5 1851.9 -109.5 1851.9 -109.5 1774.5 c 0,18,19
 -109.5 1718.85 -109.5 1718.85 -139.445 1672.36 c 128,-1,20
 -169.389 1625.87 -169.389 1625.87 -218 1604 c 1,21,22
 -161 1546 -161 1546 -144 1524 c 1,23,-1
 -180 1326 l 1,24,25
 -260 1347 -260 1347 -417.5 1379.5 c 128,-1,26
 -575 1412 -575 1412 -702 1422 c 0,27,28
 -855 1432 -855 1432 -1010.5 1429 c 128,-1,29
 -1166 1426 -1166 1426 -1231 1414 c 1,30,-1
 -1230 1575 l 1,31,32
 -1171 1685 -1171 1685 -1021 1761 c 128,-1,33
 -871 1837 -871 1837 -723 1842 c 0,34,35
 -604.529 1843.43 -604.529 1843.43 -486.171 1794.05 c 1,12,13
-302.5 1840.5 m 24,36,37
 -332.377 1840.5 -332.377 1840.5 -353.938 1820.15 c 128,-1,38
 -375.5 1799.8 -375.5 1799.8 -375.5 1770.5 c 0,39,40
 -375.5 1741.49 -375.5 1741.49 -353.888 1721.49 c 128,-1,41
 -332.277 1701.5 -332.277 1701.5 -302.5 1701.5 c 0,42,43
 -273.347 1701.5 -273.347 1701.5 -252.424 1721.61 c 128,-1,44
 -231.5 1741.73 -231.5 1741.73 -231.5 1770.5 c 0,45,46
 -231.5 1799.57 -231.5 1799.57 -252.371 1820.03 c 128,-1,47
 -273.241 1840.5 -273.241 1840.5 -302.5 1840.5 c 24,36,37
EndSplineSet
EndChar
StartChar: uni0E37
Encoding: 3639 3639 178
Width: 0
Flags: W
HStem: 1422.4 149.604<-966.99 -559.919> 1429 149<-1010.5 -642.21> 1683 159<-831.3 -631.479>
VStem: -388.376 183.521<1744.23 1927>
AnchorPoint: "AboveBase" -186 1290 mark 0
AnchorPoint: "AboveMark" -294 1980 basemark 0
Fore
-480 1536 m 1,0,1
 -508 1577 -508 1577 -525 1597 c 128,-1,2
 -542 1617 -542 1617 -571 1640.5 c 128,-1,3
 -600 1664 -600 1664 -637.5 1673.5 c 128,-1,4
 -675 1683 -675 1683 -726 1683 c 0,5,6
 -807 1683 -807 1683 -849.5 1659.5 c 128,-1,7
 -892 1636 -892 1636 -930 1578 c 1,8,9
 -821 1580 -821 1580 -705 1572 c 0,10,11
 -595 1565 -595 1565 -480 1536 c 1,0,1
-204.855 1595.41 m 1,12,13
 -171.907 1560.63 -171.907 1560.63 -144 1524 c 1,14,-1
 -180 1326 l 1,15,16
 -260 1347 -260 1347 -417.5 1379.5 c 128,-1,17
 -575 1412 -575 1412 -702 1422 c 0,18,19
 -855 1432 -855 1432 -1010.5 1429 c 128,-1,20
 -1166 1426 -1166 1426 -1231 1414 c 1,21,-1
 -1230 1575 l 1,22,23
 -1171 1685 -1171 1685 -1021 1761 c 128,-1,24
 -871 1837 -871 1837 -723 1842 c 0,25,26
 -686.964 1842.43 -686.964 1842.43 -650.915 1838.13 c 1,27,-1
 -650 1928 l 1,28,-1
 -455 1928 l 1,29,-1
 -455.257 1780.27 l 1,30,31
 -421.444 1764.21 -421.444 1764.21 -388.376 1744.23 c 1,32,-1
 -387 1927 l 1,33,-1
 -204 1927 l 1,34,-1
 -204.855 1595.41 l 1,12,13
EndSplineSet
EndChar
StartChar: uni0E38
Encoding: 3640 3640 179
Width: 0
Flags: W
HStem: -412 102<-467.328 -400.043> -204 126<-467.328 -399.18>
VStem: -589 99<-288.069 -225.246> -378 248<-378 -228.4>
AnchorPoint: "BelowBase" -133.5 -85.5 mark 0
Fore
-386 -512 m 1,0,-1
 -386 -405 l 1,1,2
 -401 -412 -401 -412 -435 -412 c 0,3,4
 -492 -411 -492 -411 -540.5 -363 c 128,-1,5
 -589 -315 -589 -315 -589 -254 c 0,6,7
 -589 -184 -589 -184 -541 -131 c 128,-1,8
 -493 -78 -493 -78 -406 -78 c 0,9,10
 -293 -78 -293 -78 -213.5 -165 c 128,-1,11
 -134 -252 -134 -252 -130 -378 c 2,12,-1
 -128 -512 l 1,13,-1
 -386 -512 l 1,0,-1
-433 -204 m 152,-1,15
 -456 -204 -456 -204 -473 -219 c 128,-1,16
 -490 -234 -490 -234 -490 -256 c 0,17,18
 -490 -279 -490 -279 -473 -294.5 c 128,-1,19
 -456 -310 -456 -310 -433 -310 c 0,20,21
 -411 -310 -411 -310 -394.5 -294.5 c 128,-1,22
 -378 -279 -378 -279 -378 -257 c 128,-1,23
 -378 -235 -378 -235 -394 -219.5 c 128,-1,14
 -410 -204 -410 -204 -433 -204 c 152,-1,15
EndSplineSet
EndChar
StartChar: uni0E39
Encoding: 3641 3641 180
Width: 0
Flags: W
HStem: -560 151.53<-523.595 -442> -404 102<-861.328 -794.043> -196 126<-861.328 -793.18>
VStem: -988 104<-280.069 -217.246> -772 248<-370 -220.4> -438 258<-409 -76>
AnchorPoint: "BelowBase" -133.5 -85.5 mark 0
Fore
-438 -76 m 1,0,-1
 -180 -76 l 1,1,-1
 -180 -560 l 1,2,-1
 -780 -560 l 1,3,-1
 -780 -397 l 1,4,5
 -795 -404 -795 -404 -829 -404 c 0,6,7
 -886 -403 -886 -403 -937 -355 c 128,-1,8
 -988 -307 -988 -307 -988 -246 c 0,9,10
 -988 -176 -988 -176 -938 -123 c 128,-1,11
 -888 -70 -888 -70 -800 -70 c 0,12,13
 -687 -70 -687 -70 -607.5 -157 c 128,-1,14
 -528 -244 -528 -244 -524 -370 c 2,15,-1
 -523.595 -408.47 l 1,16,-1
 -442 -409 l 1,17,-1
 -438 -76 l 1,0,-1
-827 -196 m 152,-1,19
 -850 -196 -850 -196 -867 -211 c 128,-1,20
 -884 -226 -884 -226 -884 -248 c 0,21,22
 -884 -271 -884 -271 -867 -286.5 c 128,-1,23
 -850 -302 -850 -302 -827 -302 c 0,24,25
 -805 -302 -805 -302 -788.5 -286.5 c 128,-1,26
 -772 -271 -772 -271 -772 -249 c 128,-1,27
 -772 -227 -772 -227 -788 -211.5 c 128,-1,18
 -804 -196 -804 -196 -827 -196 c 152,-1,19
EndSplineSet
EndChar
StartChar: uni0E3A
Encoding: 3642 3642 181
Width: 0
Flags: W
AnchorPoint: "BelowBase" -158 -108 mark 0
Fore
-276 -103 m 152,-1,1
 -208 -103 -208 -103 -159.5 -151.5 c 128,-1,2
 -111 -200 -111 -200 -111 -268 c 128,-1,3
 -111 -336 -111 -336 -159.5 -384.5 c 128,-1,4
 -208 -433 -208 -433 -276 -433 c 128,-1,5
 -344 -433 -344 -433 -391.5 -384.5 c 128,-1,6
 -439 -336 -439 -336 -439 -268 c 128,-1,7
 -439 -200 -439 -200 -391.5 -151.5 c 128,-1,0
 -344 -103 -344 -103 -276 -103 c 152,-1,1
EndSplineSet
EndChar
StartChar: uni0E3F
Encoding: 3647 3647 182
Width: 1561
Flags: W
HStem: -20 20G<188 666> 1211 20G<573 666.688>
VStem: 188 385<262 653 915 1231> 666 194.628<-136 0 265.898 649.083 922.132 1222.41 1493 1593>
Fore
860.578 0.476562 m 1,0,-1
 860.628 -136 l 1,1,-1
 666 -136 l 1,2,-1
 666 0 l 1,3,-1
 188 0 l 1,4,-1
 188 1493 l 1,5,-1
 665.83 1493 l 1,6,-1
 666 1593 l 1,7,-1
 860 1593 l 1,8,-1
 860.369 1490.63 l 1,9,10
 1098.55 1478.49 1098.55 1478.49 1216.5 1399 c 0,11,12
 1356 1304.99 1356 1304.99 1356 1098 c 0,13,14
 1356 988.995 1356 988.995 1305 912.5 c 128,-1,15
 1254 836 1254 836 1157 799 c 1,16,17
 1281.01 763 1281.01 763 1349 666 c 128,-1,18
 1416.99 569 1416.99 569 1417 428 c 0,19,20
 1417 212 1417 212 1271 106 c 0,21,22
 1133.5 6.16503 1133.5 6.16503 860.578 0.476562 c 1,0,-1
860.116 922.132 m 17,23,24
 868.105 926.056 868.105 926.056 882.714 932.234 c 128,-1,25
 897.323 938.412 897.323 938.412 906.802 943.422 c 128,-1,26
 916.282 948.431 916.282 948.431 924 955 c 0,27,28
 971 995 971 995 971 1073 c 0,29,30
 971 1149.99 971 1149.99 924 1190.5 c 0,31,32
 897.32 1213.5 897.32 1213.5 860.488 1222.41 c 1,33,-1
 860.116 922.132 l 17,23,24
859.863 265.898 m 1,34,35
 929.646 274.268 929.646 274.268 973.5 311 c 0,36,37
 1032 360 1032 360 1032 459 c 0,38,39
 1032 556 1032 556 974 604.5 c 0,40,41
 931.605 639.95 931.605 639.95 860.732 649.083 c 1,42,-1
 859.863 265.898 l 1,34,35
666.083 262 m 1,43,-1
 665.949 653 l 1,44,-1
 573 653 l 1,45,-1
 573 262 l 1,46,-1
 666.083 262 l 1,43,-1
666.688 914.613 m 1,47,-1
 666.688 1231 l 1,48,-1
 573 1231 l 1,49,-1
 573 915 l 1,50,-1
 666.688 914.613 l 1,47,-1
860.488 1222.41 m 0,51,-1
859.863 265.898 m 0,52,-1
860.732 649.083 m 0,53,-1
EndSplineSet
EndChar
StartChar: uni0E40
Encoding: 3648 3648 183
Width: 850
Flags: W
HStem: 1186 20G<182 490>
VStem: 182 308<523 1206>
Fore
490 523 m 5,0,-1
 526 523 l 6,1,2
 683 523 683 523 746.5 439.5 c 132,-1,3
 810 356 810 356 810 265 c 4,4,5
 810 144 810 144 718 65.5 c 132,-1,6
 626 -13 626 -13 488 -10 c 4,7,8
 365 -8 365 -8 273.5 77 c 132,-1,9
 182 162 182 162 182 347 c 6,10,-1
 182 1206 l 5,11,-1
 490 1206 l 5,12,-1
 490 523 l 5,0,-1
529 345 m 156,-1,14
 498 345 498 345 475 324 c 132,-1,15
 452 303 452 303 452 272 c 132,-1,16
 452 241 452 241 474.5 218.5 c 132,-1,17
 497 196 497 196 528.5 196 c 132,-1,18
 560 196 560 196 582 218.5 c 132,-1,19
 604 241 604 241 604 272 c 4,20,21
 604 302 604 302 582 323.5 c 132,-1,13
 560 345 560 345 529 345 c 156,-1,14
EndSplineSet
EndChar
StartChar: uni0E41
Encoding: 3649 3649 184
Width: 1570
Flags: W
HStem: -10 206<487.55 569.45 1207.55 1289.45> 345 178<490 569.3 1210 1289.3> 1186 20G<182 490 902 1210>
VStem: 182 308<523 1206> 902 308<523 1206>
Back
258 282 m 4,0,1
 258 399 258 399 340.5 481.5 c 0,2,3
 423 564 423 564 540 564 c 0,4,5
 657 564 657 564 739.5 481.5 c 0,6,7
 822 399 822 399 822 282 c 0,8,9
 822 165 822 165 739.5 82.5 c 0,10,11
 657 0 657 0 540 0 c 0,12,13
 423 0 423 0 340.5 82.5 c 0,14,15
 258 165 258 165 258 282 c 4,0,1
461 282 m 0,8,9
 461 314 461 314 484 337 c 0,10,11
 507 360 507 360 539 360 c 0,12,13
 571 360 571 360 594 337 c 0,14,15
 617 314 617 314 617 282 c 0,16,17
 617 250 617 250 594 227 c 0,18,19
 571 204 571 204 539 204 c 0,20,21
 507 204 507 204 484 227 c 0,22,23
 461 250 461 250 461 282 c 0,8,9
EndSplineSet
Fore
1210 523 m 1,0,-1
 1246 523 l 2,1,2
 1403 523 1403 523 1466.5 439.5 c 128,-1,3
 1530 356 1530 356 1530 265 c 0,4,5
 1530 144 1530 144 1438 65.5 c 128,-1,6
 1346 -13 1346 -13 1208 -10 c 0,7,8
 1085 -8 1085 -8 993.5 77 c 128,-1,9
 902 162 902 162 902 347 c 2,10,-1
 902 1206 l 1,11,-1
 1210 1206 l 1,12,-1
 1210 523 l 1,0,-1
1249 345 m 152,-1,14
 1218 345 1218 345 1195 324 c 128,-1,15
 1172 303 1172 303 1172 272 c 128,-1,16
 1172 241 1172 241 1194.5 218.5 c 128,-1,17
 1217 196 1217 196 1248.5 196 c 128,-1,18
 1280 196 1280 196 1302 218.5 c 128,-1,19
 1324 241 1324 241 1324 272 c 0,20,21
 1324 302 1324 302 1302 323.5 c 128,-1,13
 1280 345 1280 345 1249 345 c 152,-1,14
490 523 m 1,22,-1
 526 523 l 2,23,24
 683 523 683 523 746.5 439.5 c 128,-1,25
 810 356 810 356 810 265 c 0,26,27
 810 144 810 144 718 65.5 c 128,-1,28
 626 -13 626 -13 488 -10 c 0,29,30
 365 -8 365 -8 273.5 77 c 128,-1,31
 182 162 182 162 182 347 c 2,32,-1
 182 1206 l 1,33,-1
 490 1206 l 1,34,-1
 490 523 l 1,22,-1
529 345 m 152,-1,36
 498 345 498 345 475 324 c 128,-1,37
 452 303 452 303 452 272 c 128,-1,38
 452 241 452 241 474.5 218.5 c 128,-1,39
 497 196 497 196 528.5 196 c 128,-1,40
 560 196 560 196 582 218.5 c 128,-1,41
 604 241 604 241 604 272 c 0,42,43
 604 302 604 302 582 323.5 c 128,-1,35
 560 345 560 345 529 345 c 152,-1,36
EndSplineSet
EndChar
StartChar: uni0E42
Encoding: 3650 3650 185
Width: 1090
Flags: W
HStem: 1817 241<380.722 676.5>
VStem: 424 307<523 1481.01>
Fore
772 345 m 152,-1,1
 741 345 741 345 718 324 c 128,-1,2
 695 303 695 303 695 272 c 128,-1,3
 695 241 695 241 717.5 218.5 c 128,-1,4
 740 196 740 196 771.5 196 c 128,-1,5
 803 196 803 196 825 218.5 c 128,-1,6
 847 241 847 241 847 272 c 0,7,8
 847 302 847 302 825 323.5 c 128,-1,0
 803 345 803 345 772 345 c 152,-1,1
731 523 m 1,9,-1
 769 523 l 2,10,11
 926 523 926 523 989.5 439.5 c 128,-1,12
 1053 356 1053 356 1053 265 c 0,13,14
 1053 144 1053 144 961 65.5 c 128,-1,15
 869 -13 869 -13 731 -10 c 0,16,17
 608 -8 608 -8 516 77.4568 c 128,-1,18
 424 162.914 424 162.914 424 347 c 2,19,-1
 424 1388 l 2,20,21
 424 1481.01 424 1481.01 270 1524 c 2,22,-1
 -56 1615 l 1,23,-1
 -56 1921 l 1,24,25
 127 1997 127 1997 269.5 2027.5 c 128,-1,26
 412 2058 412 2058 523 2058 c 0,27,28
 822 2058 822 2058 958 1954 c 1,29,-1
 775 1691 l 1,30,31
 760 1747 760 1747 701 1782 c 128,-1,32
 642 1817 642 1817 527 1817 c 0,33,34
 456 1817 456 1817 386 1807.5 c 128,-1,35
 316 1798 316 1798 258 1771 c 1,36,-1
 582 1661 l 2,37,38
 731 1610.41 731 1610.41 731 1384 c 2,39,-1
 731 523 l 1,9,-1
EndSplineSet
EndChar
StartChar: uni0E43
Encoding: 3651 3651 186
Width: 1040
Flags: W
HStem: 1408 160<143.528 225.29>
VStem: 324 307<523 1143.81>
Fore
672 345 m 152,-1,1
 641 345 641 345 618 324 c 128,-1,2
 595 303 595 303 595 272 c 128,-1,3
 595 241 595 241 617.5 218.5 c 128,-1,4
 640 196 640 196 671.5 196 c 128,-1,5
 703 196 703 196 725 218.5 c 128,-1,6
 747 241 747 241 747 272 c 0,7,8
 747 302 747 302 725 323.5 c 128,-1,0
 703 345 703 345 672 345 c 152,-1,1
631 523 m 1,9,-1
 669 523 l 2,10,11
 826 523 826 523 889.5 439.5 c 128,-1,12
 953 356 953 356 953 265 c 0,13,14
 953 144 953 144 861 65.5 c 128,-1,15
 769 -13 769 -13 631 -10 c 0,16,17
 508 -8 508 -8 416 77.457 c 128,-1,18
 324 162.907 324 162.907 324 347 c 2,19,-1
 324 1142 l 2,20,21
 324 1200.35 324 1200.35 344 1256.17 c 128,-1,22
 364 1312 364 1312 391.5 1352.5 c 128,-1,23
 419 1393 419 1393 446.5 1431.5 c 128,-1,24
 474 1470 474 1470 493.793 1512.97 c 128,-1,25
 513.587 1555.93 513.587 1555.93 516 1605 c 0,26,27
 519 1666 519 1666 476.99 1724.5 c 128,-1,28
 434.981 1783 434.981 1783 354 1804 c 1,29,30
 392.87 1780.25 392.87 1780.25 410.935 1746.12 c 128,-1,31
 429 1712 429 1712 430 1634 c 0,32,33
 430.105 1543.59 430.105 1543.59 360.714 1475.27 c 128,-1,34
 291.322 1406.95 291.322 1406.95 184 1408 c 0,35,36
 82 1409 82 1409 15 1475 c 128,-1,37
 -52 1541 -52 1541 -54 1652 c 0,38,39
 -58.0551 1834.48 -58.0551 1834.48 66.6021 1940.12 c 128,-1,40
 191.259 2045.76 191.259 2045.76 368 2052 c 0,41,42
 564.844 2058.03 564.844 2058.03 694.981 1924.61 c 128,-1,43
 825.117 1791.19 825.117 1791.19 828 1624 c 0,44,45
 829 1566 829 1566 809 1510 c 128,-1,46
 789 1454 789 1454 759.5 1406.5 c 128,-1,47
 730 1359 730 1359 700.5 1310.5 c 128,-1,48
 671 1262 671 1262 651 1200.32 c 128,-1,49
 631 1138.64 631 1138.64 631 1074 c 2,50,-1
 631 523 l 1,9,-1
189.5 1717 m 24,51,52
 157.538 1717.63 157.538 1717.63 134.046 1696.51 c 128,-1,53
 110.554 1675.38 110.554 1675.38 109.5 1644 c 0,54,55
 108.462 1613.06 108.462 1613.06 130.723 1590.84 c 128,-1,56
 152.983 1568.62 152.983 1568.62 184.5 1568 c 0,57,58
 215.529 1567.39 215.529 1567.39 237.994 1588.68 c 128,-1,59
 260.459 1609.98 260.459 1609.98 261.5 1641 c 0,60,61
 262.527 1671.61 262.527 1671.61 241.319 1694 c 128,-1,62
 220.112 1716.39 220.112 1716.39 189.5 1717 c 24,51,52
EndSplineSet
EndChar
StartChar: uni0E44
Encoding: 3652 3652 187
Width: 1100
Flags: W
VStem: 414 307<523 1151.85>
Fore
762 345 m 152,-1,1
 731 345 731 345 708 324 c 128,-1,2
 685 303 685 303 685 272 c 128,-1,3
 685 241 685 241 707.5 218.5 c 128,-1,4
 730 196 730 196 761.5 196 c 128,-1,5
 793 196 793 196 815 218.5 c 128,-1,6
 837 241 837 241 837 272 c 0,7,8
 837 302 837 302 815 323.5 c 128,-1,0
 793 345 793 345 762 345 c 152,-1,1
721 523 m 1,9,-1
 759 523 l 2,10,11
 916 523 916 523 979.5 439.5 c 128,-1,12
 1043 356 1043 356 1043 265 c 0,13,14
 1043 144 1043 144 951 65.5 c 128,-1,15
 859 -13 859 -13 721 -10 c 0,16,17
 598 -8 598 -8 506 77.5 c 128,-1,18
 414 163 414 163 414 347 c 2,19,-1
 414 1092 l 6,20,21
 414 1159 414 1159 429 1227 c 132,-1,22
 444 1295 444 1295 465 1344 c 132,-1,23
 486 1393 486 1393 504.757 1433.64 c 132,-1,24
 523.515 1474.28 523.515 1474.28 541.367 1530.99 c 4,25,26
 559.992 1590.16 559.992 1590.16 558 1631 c 6,27,-1
 556 1672 l 1,28,29
 489 1665 489 1665 435 1591 c 128,-1,30
 381 1517 381 1517 356 1424 c 1,31,-1
 104 1424 l 1,32,33
 88 1503 88 1503 53.5 1587 c 128,-1,34
 19 1671 19 1671 -36.5 1748 c 128,-1,35
 -92 1825 -92 1825 -152 1856 c 1,36,-1
 -108 2064 l 1,37,38
 -64 2034 -64 2034 -16 1996 c 128,-1,39
 32 1958 32 1958 86.5 1908.5 c 128,-1,40
 141 1859 141 1859 183 1803.5 c 128,-1,41
 225 1748 225 1748 240 1700 c 1,42,43
 260 1765 260 1765 302 1819 c 128,-1,44
 344 1873 344 1873 391 1905 c 128,-1,45
 438 1937 438 1937 481.5 1954.5 c 128,-1,46
 525 1972 525 1972 556 1972 c 2,47,-1
 774 1972 l 2,48,49
 790 1972 790 1972 814.5 1942.5 c 128,-1,50
 839 1913 839 1913 858.5 1869.5 c 128,-1,51
 878 1826 878 1826 878 1792 c 2,52,-1
 878 1628 l 6,53,54
 878 1556 878 1556 862 1492 c 132,-1,55
 846 1428 846 1428 823 1380.5 c 132,-1,56
 800 1333 800 1333 777 1288 c 132,-1,57
 754 1243 754 1243 737.5 1192 c 132,-1,58
 721 1141 721 1141 721 1088 c 6,59,-1
 721 523 l 1,9,-1
EndSplineSet
EndChar
StartChar: uni0E45
Encoding: 3653 3653 188
Width: 1210
Flags: MW
HStem: 990 240<298 298>
VStem: 572 311<-410 862>
Fore
883 -410 m 1,0,-1
 883 780 l 2,1,2
 883 1016 883 1016 742.5 1122.5 c 128,-1,3
 602 1229 602 1229 298 1230 c 4,4,5
 132 1231 132 1231 35.5 1183.5 c 128,-1,6
 -61 1136 -61 1136 -115 1092 c 1,7,-1
 -72 846 l 1,8,9
 -24 900 -24 900 62.0049 945.532 c 128,-1,10
 148.009 991.064 148.009 991.064 298 990 c 4,11,12
 426.758 989.087 426.758 989.087 499.379 925.543 c 128,-1,13
 572 862 572 862 572 726 c 2,14,-1
 572 -410 l 1,15,-1
 883 -410 l 1,0,-1
EndSplineSet
EndChar
StartChar: uni0E46
Encoding: 3654 3654 189
Width: 1460
Flags: W
HStem: 436 165<313.1 400.561>
VStem: 95 182<636.4 748> 940 310<-411 930.8>
Fore
384 924 m 5,0,1
 481 912 481 912 544.5 844 c 132,-1,2
 608 776 608 776 608 692 c 4,3,4
 608 576 608 576 529.5 506 c 132,-1,5
 451 436 451 436 356 436 c 4,6,7
 244 436 244 436 167.5 518 c 132,-1,8
 91 600 91 600 95 748 c 4,9,10
 98 849 98 849 134 937.5 c 132,-1,11
 170 1026 170 1026 226.5 1085.5 c 132,-1,12
 283 1145 283 1145 351.5 1181 c 132,-1,13
 420 1217 420 1217 490 1224 c 5,14,15
 490 1220 490 1220 645 1116 c 5,16,-1
 802 1224 l 5,17,18
 872 1220 872 1220 936.5 1199.5 c 132,-1,19
 1001 1179 1001 1179 1074 1125 c 132,-1,20
 1147 1071 1147 1071 1198.5 983.5 c 132,-1,21
 1250 896 1250 896 1250 780 c 6,22,-1
 1250 -411 l 5,23,-1
 941 -411 l 5,24,-1
 940 764 l 6,25,26
 939.883 902.197 939.883 902.197 802 984 c 5,27,-1
 642 896 l 5,28,-1
 468 992 l 5,29,30
 408 968 408 968 384 924 c 5,0,1
356 601 m 156,-1,32
 389 600 389 600 413 621.5 c 132,-1,33
 437 643 437 643 438 675 c 132,-1,34
 439 707 439 707 416 730 c 132,-1,35
 393 753 393 753 360 754 c 132,-1,36
 327 755 327 755 302.5 733 c 132,-1,37
 278 711 278 711 277 678 c 4,38,39
 276 646 276 646 299.5 624 c 132,-1,31
 323 602 323 602 356 601 c 156,-1,32
EndSplineSet
EndChar
StartChar: uni0E47
Encoding: 3655 3655 190
Width: 0
Flags: W
HStem: 1514 76<-387.449 -324.622> 1614 117.465<-532.545 -293.906>
VStem: -868 129<1434.5 1573.6> -306 78<1431.25 1495.51>
AnchorPoint: "AboveMark" -525 1293 mark 0
AnchorPoint: "AboveBase" -152 1293 mark 0
Fore
-355 1514 m 24,0,1
 -377 1514 -377 1514 -392.5 1499 c 128,-1,2
 -408 1484 -408 1484 -408 1463 c 0,3,4
 -408 1441 -408 1441 -392 1426.5 c 128,-1,5
 -376 1412 -376 1412 -354 1412 c 0,6,7
 -334 1412 -334 1412 -320 1427.5 c 128,-1,8
 -306 1443 -306 1443 -306 1464 c 128,-1,9
 -306 1485 -306 1485 -320.5 1499.5 c 128,-1,10
 -335 1514 -335 1514 -355 1514 c 24,0,1
-154 1734 m 1,11,12
 -182 1687 -182 1687 -234.5 1658.5 c 128,-1,13
 -287 1630 -287 1630 -339 1624 c 128,-1,14
 -391 1618 -391 1618 -443.5 1614.5 c 128,-1,15
 -496 1611 -496 1611 -524 1614 c 0,16,17
 -620 1614 -620 1614 -681 1584.5 c 128,-1,18
 -742 1555 -742 1555 -739 1493 c 0,19,20
 -736 1448 -736 1448 -713 1434 c 1,21,-1
 -709 1448.5 l 2,22,23
 -705 1463 -705 1463 -696 1480 c 128,-1,24
 -687 1497 -687 1497 -665.5 1511 c 128,-1,25
 -644 1525 -644 1525 -615 1525 c 0,26,27
 -590 1527 -590 1527 -547.5 1489.5 c 128,-1,28
 -505 1452 -505 1452 -485 1452 c 1,29,30
 -485.258 1454.2 -485.258 1454.2 -485.542 1456.49 c 2,31,-1
 -485.618 1457.59 l 1,32,-1
 -484.009 1474.44 l 1,33,-1
 -484 1478 l 2,34,35
 -484 1527 -484 1527 -448 1558.5 c 128,-1,36
 -412 1590 -412 1590 -362 1590 c 0,37,38
 -307 1590 -307 1590 -268.5 1559.5 c 128,-1,39
 -230 1529 -230 1529 -228 1469 c 0,40,41
 -226 1408 -226 1408 -271.5 1355 c 128,-1,42
 -317 1302 -317 1302 -399 1302 c 0,43,44
 -435 1302 -435 1302 -469 1316 c 128,-1,45
 -503 1330 -503 1330 -523.5 1346.5 c 128,-1,46
 -544 1363 -544 1363 -565 1377 c 128,-1,47
 -586 1391 -586 1391 -599 1391 c 0,48,49
 -618 1391 -618 1391 -625.5 1372.5 c 128,-1,50
 -633 1354 -633 1354 -635 1330.5 c 128,-1,51
 -637 1307 -637 1307 -640 1303 c 1,52,53
 -674 1303 -674 1303 -702 1306.5 c 128,-1,54
 -730 1310 -730 1310 -763 1323.5 c 128,-1,55
 -796 1337 -796 1337 -818 1359 c 128,-1,56
 -840 1381 -840 1381 -854.5 1422 c 128,-1,57
 -869 1463 -869 1463 -868 1518 c 0,58,59
 -867 1570 -867 1570 -839.5 1610.5 c 128,-1,60
 -812 1651 -812 1651 -772 1674 c 128,-1,61
 -732 1697 -732 1697 -683 1711 c 128,-1,62
 -634 1725 -634 1725 -594 1729.5 c 128,-1,63
 -554 1734 -554 1734 -522 1732 c 0,64,65
 -501 1729 -501 1729 -455.5 1732 c 128,-1,66
 -410 1735 -410 1735 -363.5 1741 c 128,-1,67
 -317 1747 -317 1747 -276 1776 c 128,-1,68
 -235 1805 -235 1805 -222 1853 c 1,69,-1
 -154 1734 l 1,11,12
EndSplineSet
EndChar
StartChar: uni0E48
Encoding: 3656 3656 191
Width: 0
Flags: W
VStem: -422 212<1822 2178>
AnchorPoint: "AboveMark" -268 1746 mark 0
Fore
-422 2178 m 29,0,-1
 -210 2178 l 5,1,-1
 -210 1822 l 1,2,-1
 -422 1822 l 1,3,-1
 -422 2178 l 29,0,-1
EndSplineSet
Substitution2: "Single Substitution lookup 7" uni0E48.low
MultipleSubs2: "Multiple Substitution lookup 6" uni0E4D uni0E48
EndChar
StartChar: uni0E49
Encoding: 3657 3657 192
Width: 0
Flags: W
HStem: 1764 132<-573 -476.62> 2128 88<-498.23 -426.871>
VStem: -605 81<2037.35 2103.2> -403 102<2039.5 2105.3>
AnchorPoint: "AboveMark" -274 1734 mark 0
Fore
-605 2081 m 4,0,1
 -605 2135 -605 2135 -557.5 2175.5 c 128,-1,2
 -510 2216 -510 2216 -457 2216 c 0,3,4
 -389 2216 -389 2216 -346 2170 c 128,-1,5
 -303 2124 -303 2124 -301 2070 c 0,6,7
 -299 1995 -299 1995 -349 1928 c 1,8,9
 -205 1954 -205 1954 -53 2184 c 1,10,-1
 62 2042 l 1,11,12
 -2 1960 -2 1960 -87.5 1902 c 128,-1,13
 -173 1844 -173 1844 -261.5 1815.5 c 128,-1,14
 -350 1787 -350 1787 -426 1775 c 128,-1,15
 -502 1763 -502 1763 -573 1764 c 1,16,-1
 -571 1896 l 1,17,18
 -520 1901 -520 1901 -508.5 1905 c 128,-1,19
 -497 1909 -497 1909 -473 1934 c 1,20,21
 -520 1930 -520 1930 -562.5 1968 c 128,-1,22
 -605 2006 -605 2006 -605 2081 c 4,0,1
-465 2014 m 24,23,24
 -440 2014 -440 2014 -422 2030.5 c 128,-1,25
 -404 2047 -404 2047 -403 2072 c 0,26,27
 -402 2095 -402 2095 -420 2111.5 c 128,-1,28
 -438 2128 -438 2128 -462 2128 c 0,29,30
 -487 2128 -487 2128 -505 2112 c 128,-1,31
 -523 2096 -523 2096 -524 2072 c 128,-1,32
 -525 2048 -525 2048 -507 2031 c 128,-1,33
 -489 2014 -489 2014 -465 2014 c 24,23,24
EndSplineSet
Substitution2: "Single Substitution lookup 7" uni0E49.low
MultipleSubs2: "Multiple Substitution lookup 6" uni0E4D uni0E49
EndChar
StartChar: uni0E4A
Encoding: 3658 3658 193
Width: 0
Flags: W
HStem: 2010 66<-633.96 -569.551>
VStem: -549 71<1929.69 1990.2> -348 136<1982.97 2109.3>
AnchorPoint: "AboveMark" -458 1730 mark 0
Fore
-549 1958 m 24,0,1
 -549 1980 -549 1980 -564.5 1995 c 128,-1,2
 -580 2010 -580 2010 -602 2010 c 128,-1,3
 -624 2010 -624 2010 -640 1994 c 128,-1,4
 -656 1978 -656 1978 -656 1956 c 0,5,6
 -656 1937 -656 1937 -640.5 1924.5 c 128,-1,7
 -625 1912 -625 1912 -604 1912 c 0,8,9
 -582 1912 -582 1912 -565.5 1925 c 128,-1,10
 -549 1938 -549 1938 -549 1958 c 24,0,1
-600 2116 m 1,11,12
 -626 2093 -626 2093 -631 2087.5 c 128,-1,13
 -636 2082 -636 2082 -650 2058 c 1,14,-1
 -650.5 2064 l 2,15,16
 -651 2070 -651 2070 -649 2071 c 128,-1,17
 -647 2072 -647 2072 -635.5 2074 c 128,-1,18
 -624 2076 -624 2076 -602 2076 c 0,19,20
 -551 2075 -551 2075 -514.5 2040.5 c 128,-1,21
 -478 2006 -478 2006 -478 1962 c 0,22,23
 -478 1905 -478 1905 -516.5 1864 c 128,-1,24
 -555 1823 -555 1823 -619 1828 c 0,25,26
 -681 1833 -681 1833 -733 1881.5 c 128,-1,27
 -785 1930 -785 1930 -784 1996 c 0,28,29
 -783 2069 -783 2069 -739.5 2134.5 c 128,-1,30
 -696 2200 -696 2200 -612 2230 c 1,31,-1
 -486 2152 l 1,32,-1
 -376 2232 l 1,33,34
 -323 2214 -323 2214 -268.5 2160.5 c 128,-1,35
 -214 2107 -214 2107 -212 2042 c 0,36,37
 -211 2015 -211 2015 -217.5 1996 c 128,-1,38
 -224 1977 -224 1977 -236 1964 c 128,-1,39
 -248 1951 -248 1951 -265 1931 c 1,40,41
 -214 1949 -214 1949 -165.5 2038 c 128,-1,42
 -117 2127 -117 2127 -96 2227 c 1,43,-1
 48 2118 l 1,44,45
 40 2075 40 2075 6 2025.5 c 128,-1,46
 -28 1976 -28 1976 -77 1932 c 128,-1,47
 -126 1888 -126 1888 -193 1858.5 c 128,-1,48
 -260 1829 -260 1829 -326 1828 c 1,49,-1
 -392 1936 l 1,50,51
 -369 1958 -369 1958 -358.5 1978 c 128,-1,52
 -348 1998 -348 1998 -348 2030 c 0,53,54
 -348 2091 -348 2091 -386 2118 c 1,55,-1
 -488 2050 l 1,56,-1
 -600 2116 l 1,11,12
EndSplineSet
Substitution2: "Single Substitution lookup 7" uni0E4A.low
MultipleSubs2: "Multiple Substitution lookup 6" uni0E4D uni0E4A
EndChar
StartChar: uni0E4B
Encoding: 3659 3659 194
Width: 0
Flags: W
HStem: 1964 179<-625 -488 -300 -163>
VStem: -488 188<1827 1963 2143 2279>
AnchorPoint: "AboveMark" -377 1732 mark 0
Fore
-163 1964 m 1,0,-1
 -300 1964 l 1,1,-1
 -300 1827 l 1,2,-1
 -488 1827 l 1,3,-1
 -488 1963 l 1,4,-1
 -625 1963 l 1,5,-1
 -625 2142 l 1,6,-1
 -488 2142 l 1,7,-1
 -488 2279 l 1,8,-1
 -300 2280 l 1,9,-1
 -300 2143 l 1,10,-1
 -163 2143 l 1,11,-1
 -163 1964 l 1,0,-1
EndSplineSet
Substitution2: "Single Substitution lookup 7" uni0E4B.low
MultipleSubs2: "Multiple Substitution lookup 6" uni0E4D uni0E4B
EndChar
StartChar: uni0E4C
Encoding: 3660 3660 195
Width: 0
Flags: W
HStem: 1818 110<-496.071 -422.9>
VStem: -658 130<1956.9 2030.32> -394 122<1957.6 2032.07>
AnchorPoint: "AboveBase" -460 1750 mark 0
Fore
16 2282 m 1,0,-1
 42 2120 l 1,1,2
 -4 2093 -4 2093 -64.5 2087.5 c 128,-1,3
 -125 2082 -125 2082 -192.5 2087 c 128,-1,4
 -260 2092 -260 2092 -290 2088 c 1,5,6
 -281 2075 -281 2075 -276.5 2059 c 128,-1,7
 -272 2043 -272 2043 -272 1994 c 0,8,9
 -272 1933 -272 1933 -325 1875.5 c 128,-1,10
 -378 1818 -378 1818 -460 1818 c 0,11,12
 -554 1818 -554 1818 -606 1874.5 c 128,-1,13
 -658 1931 -658 1931 -658 2002 c 0,14,15
 -658 2077 -658 2077 -604 2137.5 c 128,-1,16
 -550 2198 -550 2198 -460 2210 c 0,17,18
 -447 2212 -447 2212 -330 2219.5 c 128,-1,19
 -213 2227 -213 2227 -118.5 2241.5 c 128,-1,20
 -24 2256 -24 2256 16 2282 c 1,0,-1
-458 2064 m 24,21,22
 -487 2064 -487 2064 -507.5 2042.5 c 128,-1,23
 -528 2021 -528 2021 -528 1992 c 0,24,25
 -528 1965 -528 1965 -507 1946.5 c 128,-1,26
 -486 1928 -486 1928 -458 1928 c 0,27,28
 -431 1928 -431 1928 -412.5 1947.5 c 128,-1,29
 -394 1967 -394 1967 -394 1994 c 0,30,31
 -394 2022 -394 2022 -412.5 2043 c 128,-1,32
 -431 2064 -431 2064 -458 2064 c 24,21,22
EndSplineSet
Substitution2: "Single Substitution lookup 7" uni0E4C.low
MultipleSubs2: "Multiple Substitution lookup 6" uni0E4D uni0E4C
EndChar
StartChar: uni0E4D
Encoding: 3661 3661 196
Width: 0
Flags: W
HStem: 1336 180<-456 -352> 1708 180<-456 -352>
VStem: -680 180<1560 1664> -308 180<1560 1664>
AnchorPoint: "AboveMark" -391.5 2003 basemark 0
AnchorPoint: "AboveBase" -205.5 1319 mark 0
Fore
-680 1612 m 132,-1,1
 -680 1726 -680 1726 -599 1807 c 132,-1,2
 -518 1888 -518 1888 -404 1888 c 132,-1,3
 -290 1888 -290 1888 -209 1807 c 132,-1,4
 -128 1726 -128 1726 -128 1612 c 132,-1,5
 -128 1498 -128 1498 -209 1417 c 132,-1,6
 -290 1336 -290 1336 -404 1336 c 132,-1,7
 -518 1336 -518 1336 -599 1417 c 132,-1,0
 -680 1498 -680 1498 -680 1612 c 132,-1,1
-500 1612 m 132,-1,9
 -500 1572 -500 1572 -472 1544 c 132,-1,10
 -444 1516 -444 1516 -404 1516 c 132,-1,11
 -364 1516 -364 1516 -336 1544 c 132,-1,12
 -308 1572 -308 1572 -308 1612 c 132,-1,13
 -308 1652 -308 1652 -336 1680 c 132,-1,14
 -364 1708 -364 1708 -404 1708 c 132,-1,15
 -444 1708 -444 1708 -472 1680 c 132,-1,8
 -500 1652 -500 1652 -500 1612 c 132,-1,9
EndSplineSet
Substitution2: "Single Substitution lookup 5" uni0E4D.high
EndChar
StartChar: uni0E4E
Encoding: 3662 3662 197
Width: 0
Flags: W
HStem: 1256 150<-373.1 -132> 1538 132<-348.3 -165> 1797 144<-378.253 -163.625>
VStem: -577 184<1691.7 1814.7>
AnchorPoint: "AboveBase" -140 1227 mark 0
Fore
-210 1406 m 2,0,-1
 -132 1406 l 1,1,-1
 -132 1256 l 1,2,-1
 -216 1256 l 2,3,4
 -218 1256 -218 1256 -221.7 1256 c 0,5,6
 -264 1256 -264 1256 -285 1256 c 128,-1,7
 -306 1256 -306 1256 -345 1258 c 128,-1,8
 -384 1260 -384 1260 -405 1263 c 128,-1,9
 -426 1266 -426 1266 -457.5 1273 c 128,-1,10
 -489 1280 -489 1280 -506.5 1289.5 c 128,-1,11
 -524 1299 -524 1299 -545 1313.5 c 128,-1,12
 -566 1328 -566 1328 -577 1347 c 128,-1,13
 -588 1366 -588 1366 -596 1392 c 128,-1,14
 -604 1418 -604 1418 -604 1450 c 0,15,16
 -604 1495 -604 1495 -559.5 1543 c 128,-1,17
 -515 1591 -515 1591 -470 1602 c 1,18,19
 -517 1626 -517 1626 -547.5 1666.5 c 128,-1,20
 -578 1707 -578 1707 -577 1758 c 0,21,22
 -576 1807 -576 1807 -548.5 1845 c 128,-1,23
 -521 1883 -521 1883 -476.5 1904 c 128,-1,24
 -432 1925 -432 1925 -380.5 1934 c 128,-1,25
 -329 1943 -329 1943 -276 1941 c 0,26,27
 -176 1937 -176 1937 -99 1918 c 1,28,-1
 -98 1773 l 1,29,30
 -192.5 1797 -192.5 1797 -266 1797 c 0,31,32
 -393 1797 -393 1797 -393 1738 c 0,33,34
 -393 1670 -393 1670 -234 1670 c 2,35,-1
 -164 1670 l 1,36,-1
 -165 1538 l 1,37,-1
 -230 1538 l 2,38,39
 -321 1538 -321 1538 -366.5 1519.5 c 128,-1,40
 -412 1501 -412 1501 -412 1470 c 0,41,42
 -412 1443 -412 1443 -397 1428.5 c 128,-1,43
 -382 1414 -382 1414 -355 1410 c 128,-1,44
 -328 1406 -328 1406 -291 1405.5 c 128,-1,45
 -254 1405 -254 1405 -210 1406 c 2,0,-1
EndSplineSet
EndChar
StartChar: uni0E4F
Encoding: 3663 3663 198
Width: 1310
Flags: W
HStem: -1 198<529 787.7> 290 156<591 719.7> 677 156<588 718> 933 198<521.85 783.15>
VStem: 87 198<428.3 688.3> 374 156<496.3 623.7> 773 156<498.9 623.7> 1023 198<432.3 692.3>
Fore
653 677 m 152,-1,1
 603 677 603 677 566.5 643 c 128,-1,2
 530 609 530 609 530 560 c 0,3,4
 531 511 531 511 568.5 478.5 c 128,-1,5
 606 446 606 446 656 446 c 0,6,7
 705 446 705 446 739.5 479.5 c 128,-1,8
 774 513 774 513 773 560 c 0,9,10
 773 609 773 609 738 643 c 128,-1,0
 703 677 703 677 653 677 c 152,-1,1
285 557 m 24,11,12
 286 458 286 458 337 374.5 c 128,-1,13
 388 291 388 291 473.5 243.5 c 128,-1,14
 559 196 559 196 659 197 c 0,15,16
 758 198 758 198 842.5 246.5 c 128,-1,17
 927 295 927 295 975.5 378.5 c 128,-1,18
 1024 462 1024 462 1023 561 c 0,19,20
 1022 662 1022 662 972.5 748 c 128,-1,21
 923 834 923 834 838 884 c 128,-1,22
 753 934 753 934 652.5 933 c 128,-1,23
 552 932 552 932 467 881.5 c 128,-1,24
 382 831 382 831 333 744.5 c 128,-1,25
 284 658 284 658 285 557 c 24,11,12
87 557 m 24,26,27
 87 673 87 673 131 779 c 128,-1,28
 175 885 175 885 251 962 c 128,-1,29
 327 1039 327 1039 432 1085 c 128,-1,30
 537 1131 537 1131 652.5 1131 c 128,-1,31
 768 1131 768 1131 873 1086 c 128,-1,32
 978 1041 978 1041 1054 964.5 c 128,-1,33
 1130 888 1130 888 1175.5 782.5 c 128,-1,34
 1221 677 1221 677 1221 561 c 0,35,36
 1222 447 1222 447 1177.5 343 c 128,-1,37
 1133 239 1133 239 1057.5 164 c 128,-1,38
 982 89 982 89 878 44 c 128,-1,39
 774 -1 774 -1 659 -1 c 128,-1,40
 544 -1 544 -1 439 42.5 c 128,-1,41
 334 86 334 86 257 160.5 c 128,-1,42
 180 235 180 235 134 338.5 c 128,-1,43
 88 442 88 442 87 557 c 24,26,27
374 560 m 24,44,45
 374 673 374 673 456 753 c 128,-1,46
 538 833 538 833 653 833 c 0,47,48
 767 833 767 833 848 753 c 128,-1,49
 929 673 929 673 929 560 c 0,50,51
 930 448 930 448 849.5 369 c 128,-1,52
 769 290 769 290 656 290 c 0,53,54
 541 290 541 290 458 368.5 c 128,-1,55
 375 447 375 447 374 560 c 24,44,45
EndSplineSet
EndChar
